%TF.GenerationSoftware,KiCad,Pcbnew,5.1.9+dfsg1-1~bpo10+1*%
%TF.CreationDate,2021-08-30T17:30:26+01:00*%
%TF.ProjectId,MBext,4d426578-742e-46b6-9963-61645f706362,0*%
%TF.SameCoordinates,Original*%
%TF.FileFunction,Copper,L2,Bot*%
%TF.FilePolarity,Positive*%
%FSLAX46Y46*%
G04 Gerber Fmt 4.6, Leading zero omitted, Abs format (unit mm)*
G04 Created by KiCad (PCBNEW 5.1.9+dfsg1-1~bpo10+1) date 2021-08-30 17:30:26*
%MOMM*%
%LPD*%
G01*
G04 APERTURE LIST*
%TA.AperFunction,EtchedComponent*%
%ADD10C,0.010000*%
%TD*%
%TA.AperFunction,ComponentPad*%
%ADD11C,2.000000*%
%TD*%
%TA.AperFunction,Conductor*%
%ADD12C,1.000000*%
%TD*%
%TA.AperFunction,Conductor*%
%ADD13C,0.500000*%
%TD*%
G04 APERTURE END LIST*
D10*
%TO.C,REF\u002A\u002A*%
G36*
X254663900Y-54074097D02*
G01*
X254775450Y-54018478D01*
X254873908Y-53916069D01*
X254901023Y-53878136D01*
X254930562Y-53828500D01*
X254949728Y-53774588D01*
X254960693Y-53702636D01*
X254965629Y-53598878D01*
X254966713Y-53461899D01*
X254961818Y-53274185D01*
X254944804Y-53133242D01*
X254912177Y-53028092D01*
X254860442Y-52947757D01*
X254786104Y-52881259D01*
X254780642Y-52877322D01*
X254707380Y-52837047D01*
X254619160Y-52817120D01*
X254506962Y-52812207D01*
X254324567Y-52812207D01*
X254324491Y-52635143D01*
X254322793Y-52536530D01*
X254312450Y-52478686D01*
X254285422Y-52443994D01*
X254233668Y-52414836D01*
X254221239Y-52408879D01*
X254163077Y-52380961D01*
X254118044Y-52363328D01*
X254084559Y-52361806D01*
X254061038Y-52382219D01*
X254045900Y-52430393D01*
X254037563Y-52512154D01*
X254034444Y-52633328D01*
X254034960Y-52799740D01*
X254037529Y-53017215D01*
X254038332Y-53082264D01*
X254041222Y-53306498D01*
X254043812Y-53453179D01*
X254324414Y-53453179D01*
X254325991Y-53328674D01*
X254333000Y-53247213D01*
X254348858Y-53193485D01*
X254376981Y-53152177D01*
X254396075Y-53132029D01*
X254474135Y-53073079D01*
X254543247Y-53068280D01*
X254614560Y-53116962D01*
X254616368Y-53118759D01*
X254645383Y-53156382D01*
X254663033Y-53207516D01*
X254671936Y-53286262D01*
X254674709Y-53406724D01*
X254674759Y-53433412D01*
X254668058Y-53599417D01*
X254646248Y-53714495D01*
X254606765Y-53784746D01*
X254547044Y-53816271D01*
X254512528Y-53819448D01*
X254430611Y-53804540D01*
X254374421Y-53755452D01*
X254340598Y-53665638D01*
X254325780Y-53528555D01*
X254324414Y-53453179D01*
X254043812Y-53453179D01*
X254044287Y-53480048D01*
X254048247Y-53610618D01*
X254053826Y-53705913D01*
X254061746Y-53773636D01*
X254072731Y-53821493D01*
X254087501Y-53857187D01*
X254106782Y-53888422D01*
X254115049Y-53900176D01*
X254224712Y-54011203D01*
X254363365Y-54074153D01*
X254523754Y-54091703D01*
X254663900Y-54074097D01*
G37*
X254663900Y-54074097D02*
X254775450Y-54018478D01*
X254873908Y-53916069D01*
X254901023Y-53878136D01*
X254930562Y-53828500D01*
X254949728Y-53774588D01*
X254960693Y-53702636D01*
X254965629Y-53598878D01*
X254966713Y-53461899D01*
X254961818Y-53274185D01*
X254944804Y-53133242D01*
X254912177Y-53028092D01*
X254860442Y-52947757D01*
X254786104Y-52881259D01*
X254780642Y-52877322D01*
X254707380Y-52837047D01*
X254619160Y-52817120D01*
X254506962Y-52812207D01*
X254324567Y-52812207D01*
X254324491Y-52635143D01*
X254322793Y-52536530D01*
X254312450Y-52478686D01*
X254285422Y-52443994D01*
X254233668Y-52414836D01*
X254221239Y-52408879D01*
X254163077Y-52380961D01*
X254118044Y-52363328D01*
X254084559Y-52361806D01*
X254061038Y-52382219D01*
X254045900Y-52430393D01*
X254037563Y-52512154D01*
X254034444Y-52633328D01*
X254034960Y-52799740D01*
X254037529Y-53017215D01*
X254038332Y-53082264D01*
X254041222Y-53306498D01*
X254043812Y-53453179D01*
X254324414Y-53453179D01*
X254325991Y-53328674D01*
X254333000Y-53247213D01*
X254348858Y-53193485D01*
X254376981Y-53152177D01*
X254396075Y-53132029D01*
X254474135Y-53073079D01*
X254543247Y-53068280D01*
X254614560Y-53116962D01*
X254616368Y-53118759D01*
X254645383Y-53156382D01*
X254663033Y-53207516D01*
X254671936Y-53286262D01*
X254674709Y-53406724D01*
X254674759Y-53433412D01*
X254668058Y-53599417D01*
X254646248Y-53714495D01*
X254606765Y-53784746D01*
X254547044Y-53816271D01*
X254512528Y-53819448D01*
X254430611Y-53804540D01*
X254374421Y-53755452D01*
X254340598Y-53665638D01*
X254325780Y-53528555D01*
X254324414Y-53453179D01*
X254043812Y-53453179D01*
X254044287Y-53480048D01*
X254048247Y-53610618D01*
X254053826Y-53705913D01*
X254061746Y-53773636D01*
X254072731Y-53821493D01*
X254087501Y-53857187D01*
X254106782Y-53888422D01*
X254115049Y-53900176D01*
X254224712Y-54011203D01*
X254363365Y-54074153D01*
X254523754Y-54091703D01*
X254663900Y-54074097D01*
G36*
X256909429Y-54058281D02*
G01*
X257003123Y-54004086D01*
X257068264Y-53950293D01*
X257115907Y-53893934D01*
X257148728Y-53825013D01*
X257169406Y-53733532D01*
X257180620Y-53609494D01*
X257185049Y-53442902D01*
X257185563Y-53323149D01*
X257185563Y-52882341D01*
X257061483Y-52826717D01*
X256937402Y-52771093D01*
X256922805Y-53253905D01*
X256916773Y-53434221D01*
X256910445Y-53565099D01*
X256902606Y-53655489D01*
X256892037Y-53714336D01*
X256877523Y-53750587D01*
X256857848Y-53773190D01*
X256851535Y-53778083D01*
X256755888Y-53816294D01*
X256659207Y-53801173D01*
X256601655Y-53761057D01*
X256578245Y-53732630D01*
X256562039Y-53695328D01*
X256551741Y-53638777D01*
X256546049Y-53552606D01*
X256543664Y-53426442D01*
X256543264Y-53294958D01*
X256543186Y-53130001D01*
X256540361Y-53013239D01*
X256530907Y-52934490D01*
X256510940Y-52883569D01*
X256476576Y-52850294D01*
X256423932Y-52824480D01*
X256353617Y-52797656D01*
X256276820Y-52768458D01*
X256285962Y-53286654D01*
X256289643Y-53473461D01*
X256293950Y-53611510D01*
X256300123Y-53710432D01*
X256309402Y-53779855D01*
X256323027Y-53829410D01*
X256342239Y-53868727D01*
X256365402Y-53903416D01*
X256477152Y-54014230D01*
X256613513Y-54078311D01*
X256761825Y-54093661D01*
X256909429Y-54058281D01*
G37*
X256909429Y-54058281D02*
X257003123Y-54004086D01*
X257068264Y-53950293D01*
X257115907Y-53893934D01*
X257148728Y-53825013D01*
X257169406Y-53733532D01*
X257180620Y-53609494D01*
X257185049Y-53442902D01*
X257185563Y-53323149D01*
X257185563Y-52882341D01*
X257061483Y-52826717D01*
X256937402Y-52771093D01*
X256922805Y-53253905D01*
X256916773Y-53434221D01*
X256910445Y-53565099D01*
X256902606Y-53655489D01*
X256892037Y-53714336D01*
X256877523Y-53750587D01*
X256857848Y-53773190D01*
X256851535Y-53778083D01*
X256755888Y-53816294D01*
X256659207Y-53801173D01*
X256601655Y-53761057D01*
X256578245Y-53732630D01*
X256562039Y-53695328D01*
X256551741Y-53638777D01*
X256546049Y-53552606D01*
X256543664Y-53426442D01*
X256543264Y-53294958D01*
X256543186Y-53130001D01*
X256540361Y-53013239D01*
X256530907Y-52934490D01*
X256510940Y-52883569D01*
X256476576Y-52850294D01*
X256423932Y-52824480D01*
X256353617Y-52797656D01*
X256276820Y-52768458D01*
X256285962Y-53286654D01*
X256289643Y-53473461D01*
X256293950Y-53611510D01*
X256300123Y-53710432D01*
X256309402Y-53779855D01*
X256323027Y-53829410D01*
X256342239Y-53868727D01*
X256365402Y-53903416D01*
X256477152Y-54014230D01*
X256613513Y-54078311D01*
X256761825Y-54093661D01*
X256909429Y-54058281D01*
G36*
X253540221Y-54069985D02*
G01*
X253677061Y-53998032D01*
X253778051Y-53882234D01*
X253813925Y-53807787D01*
X253841839Y-53696008D01*
X253856129Y-53554773D01*
X253857484Y-53400629D01*
X253846595Y-53250121D01*
X253824153Y-53119795D01*
X253790850Y-53026197D01*
X253780615Y-53010078D01*
X253659382Y-52889751D01*
X253515387Y-52817683D01*
X253359139Y-52796592D01*
X253201148Y-52829198D01*
X253157180Y-52848747D01*
X253071556Y-52908988D01*
X252996408Y-52988865D01*
X252989306Y-52998996D01*
X252960439Y-53047819D01*
X252941357Y-53100010D01*
X252930084Y-53168715D01*
X252924645Y-53267082D01*
X252923062Y-53408256D01*
X252923035Y-53439908D01*
X252923107Y-53449981D01*
X253214989Y-53449981D01*
X253216687Y-53316744D01*
X253223372Y-53228326D01*
X253237425Y-53171215D01*
X253261229Y-53131898D01*
X253273379Y-53118759D01*
X253343236Y-53068828D01*
X253411059Y-53071105D01*
X253479635Y-53114416D01*
X253520535Y-53160654D01*
X253544758Y-53228143D01*
X253558361Y-53334567D01*
X253559294Y-53346980D01*
X253561616Y-53539853D01*
X253537350Y-53683100D01*
X253486824Y-53775840D01*
X253410368Y-53817193D01*
X253383076Y-53819448D01*
X253311411Y-53808107D01*
X253262390Y-53768816D01*
X253232418Y-53693674D01*
X253217899Y-53574778D01*
X253214989Y-53449981D01*
X252923107Y-53449981D01*
X252924122Y-53590341D01*
X252928688Y-53695451D01*
X252938688Y-53768286D01*
X252956079Y-53821892D01*
X252982816Y-53869319D01*
X252988724Y-53878136D01*
X253088032Y-53996993D01*
X253196242Y-54065992D01*
X253327981Y-54093381D01*
X253372717Y-54094719D01*
X253540221Y-54069985D01*
G37*
X253540221Y-54069985D02*
X253677061Y-53998032D01*
X253778051Y-53882234D01*
X253813925Y-53807787D01*
X253841839Y-53696008D01*
X253856129Y-53554773D01*
X253857484Y-53400629D01*
X253846595Y-53250121D01*
X253824153Y-53119795D01*
X253790850Y-53026197D01*
X253780615Y-53010078D01*
X253659382Y-52889751D01*
X253515387Y-52817683D01*
X253359139Y-52796592D01*
X253201148Y-52829198D01*
X253157180Y-52848747D01*
X253071556Y-52908988D01*
X252996408Y-52988865D01*
X252989306Y-52998996D01*
X252960439Y-53047819D01*
X252941357Y-53100010D01*
X252930084Y-53168715D01*
X252924645Y-53267082D01*
X252923062Y-53408256D01*
X252923035Y-53439908D01*
X252923107Y-53449981D01*
X253214989Y-53449981D01*
X253216687Y-53316744D01*
X253223372Y-53228326D01*
X253237425Y-53171215D01*
X253261229Y-53131898D01*
X253273379Y-53118759D01*
X253343236Y-53068828D01*
X253411059Y-53071105D01*
X253479635Y-53114416D01*
X253520535Y-53160654D01*
X253544758Y-53228143D01*
X253558361Y-53334567D01*
X253559294Y-53346980D01*
X253561616Y-53539853D01*
X253537350Y-53683100D01*
X253486824Y-53775840D01*
X253410368Y-53817193D01*
X253383076Y-53819448D01*
X253311411Y-53808107D01*
X253262390Y-53768816D01*
X253232418Y-53693674D01*
X253217899Y-53574778D01*
X253214989Y-53449981D01*
X252923107Y-53449981D01*
X252924122Y-53590341D01*
X252928688Y-53695451D01*
X252938688Y-53768286D01*
X252956079Y-53821892D01*
X252982816Y-53869319D01*
X252988724Y-53878136D01*
X253088032Y-53996993D01*
X253196242Y-54065992D01*
X253327981Y-54093381D01*
X253372717Y-54094719D01*
X253540221Y-54069985D01*
G36*
X255807552Y-54051324D02*
G01*
X255922658Y-53973889D01*
X256011611Y-53862051D01*
X256064749Y-53719735D01*
X256075497Y-53614985D01*
X256074276Y-53571274D01*
X256064056Y-53537806D01*
X256035961Y-53507821D01*
X255981116Y-53474560D01*
X255890645Y-53431262D01*
X255755672Y-53371167D01*
X255754989Y-53370866D01*
X255630751Y-53313963D01*
X255528873Y-53263435D01*
X255459767Y-53224720D01*
X255433846Y-53203260D01*
X255433839Y-53203087D01*
X255456685Y-53156356D01*
X255510109Y-53104846D01*
X255571442Y-53067739D01*
X255602515Y-53060368D01*
X255687289Y-53085862D01*
X255760293Y-53149709D01*
X255795913Y-53219906D01*
X255830180Y-53271657D01*
X255897303Y-53330591D01*
X255976208Y-53381504D01*
X256045821Y-53409191D01*
X256060377Y-53410713D01*
X256076763Y-53385679D01*
X256077750Y-53321689D01*
X256065708Y-53235407D01*
X256043007Y-53143499D01*
X256012014Y-53062631D01*
X256010448Y-53059491D01*
X255917181Y-52929266D01*
X255796304Y-52840689D01*
X255659027Y-52797214D01*
X255516560Y-52802294D01*
X255380112Y-52859384D01*
X255374045Y-52863398D01*
X255266710Y-52960674D01*
X255196132Y-53087591D01*
X255157074Y-53254474D01*
X255151832Y-53301361D01*
X255142548Y-53522671D01*
X255153678Y-53625876D01*
X255433839Y-53625876D01*
X255437479Y-53561497D01*
X255457389Y-53542709D01*
X255507026Y-53556765D01*
X255585267Y-53589991D01*
X255672726Y-53631641D01*
X255674899Y-53632744D01*
X255749030Y-53671735D01*
X255778781Y-53697756D01*
X255771445Y-53725035D01*
X255740553Y-53760879D01*
X255661960Y-53812749D01*
X255577323Y-53816561D01*
X255501403Y-53778811D01*
X255448965Y-53705999D01*
X255433839Y-53625876D01*
X255153678Y-53625876D01*
X255161644Y-53699739D01*
X255210634Y-53840171D01*
X255278836Y-53938553D01*
X255401935Y-54037970D01*
X255537528Y-54087289D01*
X255675955Y-54090432D01*
X255807552Y-54051324D01*
G37*
X255807552Y-54051324D02*
X255922658Y-53973889D01*
X256011611Y-53862051D01*
X256064749Y-53719735D01*
X256075497Y-53614985D01*
X256074276Y-53571274D01*
X256064056Y-53537806D01*
X256035961Y-53507821D01*
X255981116Y-53474560D01*
X255890645Y-53431262D01*
X255755672Y-53371167D01*
X255754989Y-53370866D01*
X255630751Y-53313963D01*
X255528873Y-53263435D01*
X255459767Y-53224720D01*
X255433846Y-53203260D01*
X255433839Y-53203087D01*
X255456685Y-53156356D01*
X255510109Y-53104846D01*
X255571442Y-53067739D01*
X255602515Y-53060368D01*
X255687289Y-53085862D01*
X255760293Y-53149709D01*
X255795913Y-53219906D01*
X255830180Y-53271657D01*
X255897303Y-53330591D01*
X255976208Y-53381504D01*
X256045821Y-53409191D01*
X256060377Y-53410713D01*
X256076763Y-53385679D01*
X256077750Y-53321689D01*
X256065708Y-53235407D01*
X256043007Y-53143499D01*
X256012014Y-53062631D01*
X256010448Y-53059491D01*
X255917181Y-52929266D01*
X255796304Y-52840689D01*
X255659027Y-52797214D01*
X255516560Y-52802294D01*
X255380112Y-52859384D01*
X255374045Y-52863398D01*
X255266710Y-52960674D01*
X255196132Y-53087591D01*
X255157074Y-53254474D01*
X255151832Y-53301361D01*
X255142548Y-53522671D01*
X255153678Y-53625876D01*
X255433839Y-53625876D01*
X255437479Y-53561497D01*
X255457389Y-53542709D01*
X255507026Y-53556765D01*
X255585267Y-53589991D01*
X255672726Y-53631641D01*
X255674899Y-53632744D01*
X255749030Y-53671735D01*
X255778781Y-53697756D01*
X255771445Y-53725035D01*
X255740553Y-53760879D01*
X255661960Y-53812749D01*
X255577323Y-53816561D01*
X255501403Y-53778811D01*
X255448965Y-53705999D01*
X255433839Y-53625876D01*
X255153678Y-53625876D01*
X255161644Y-53699739D01*
X255210634Y-53840171D01*
X255278836Y-53938553D01*
X255401935Y-54037970D01*
X255537528Y-54087289D01*
X255675955Y-54090432D01*
X255807552Y-54051324D01*
G36*
X258236598Y-54212143D02*
G01*
X258245154Y-54092812D01*
X258254981Y-54022494D01*
X258268599Y-53991821D01*
X258288527Y-53991429D01*
X258294989Y-53995090D01*
X258380940Y-54021602D01*
X258492745Y-54020054D01*
X258606414Y-53992801D01*
X258677510Y-53957545D01*
X258750405Y-53901222D01*
X258803693Y-53837481D01*
X258840275Y-53756490D01*
X258863050Y-53648414D01*
X258874919Y-53503420D01*
X258878782Y-53311674D01*
X258878851Y-53274891D01*
X258878897Y-52861712D01*
X258786954Y-52829661D01*
X258721652Y-52807856D01*
X258685824Y-52797703D01*
X258684770Y-52797609D01*
X258681242Y-52825140D01*
X258678239Y-52901077D01*
X258675990Y-53015435D01*
X258674724Y-53158231D01*
X258674529Y-53245049D01*
X258674123Y-53416227D01*
X258672032Y-53538912D01*
X258666947Y-53623000D01*
X258657560Y-53678386D01*
X258642561Y-53714968D01*
X258620642Y-53742641D01*
X258606957Y-53755968D01*
X258512949Y-53809672D01*
X258410364Y-53813693D01*
X258317290Y-53768275D01*
X258300078Y-53751877D01*
X258274832Y-53721043D01*
X258257320Y-53684469D01*
X258246142Y-53631585D01*
X258239896Y-53551823D01*
X258237182Y-53434615D01*
X258236598Y-53273009D01*
X258236598Y-52861712D01*
X258144655Y-52829661D01*
X258079353Y-52807856D01*
X258043525Y-52797703D01*
X258042471Y-52797609D01*
X258039775Y-52825552D01*
X258037345Y-52904370D01*
X258035278Y-53026547D01*
X258033671Y-53184568D01*
X258032623Y-53370917D01*
X258032231Y-53578080D01*
X258032230Y-53587294D01*
X258032230Y-54376980D01*
X258127115Y-54417003D01*
X258222000Y-54457027D01*
X258236598Y-54212143D01*
G37*
X258236598Y-54212143D02*
X258245154Y-54092812D01*
X258254981Y-54022494D01*
X258268599Y-53991821D01*
X258288527Y-53991429D01*
X258294989Y-53995090D01*
X258380940Y-54021602D01*
X258492745Y-54020054D01*
X258606414Y-53992801D01*
X258677510Y-53957545D01*
X258750405Y-53901222D01*
X258803693Y-53837481D01*
X258840275Y-53756490D01*
X258863050Y-53648414D01*
X258874919Y-53503420D01*
X258878782Y-53311674D01*
X258878851Y-53274891D01*
X258878897Y-52861712D01*
X258786954Y-52829661D01*
X258721652Y-52807856D01*
X258685824Y-52797703D01*
X258684770Y-52797609D01*
X258681242Y-52825140D01*
X258678239Y-52901077D01*
X258675990Y-53015435D01*
X258674724Y-53158231D01*
X258674529Y-53245049D01*
X258674123Y-53416227D01*
X258672032Y-53538912D01*
X258666947Y-53623000D01*
X258657560Y-53678386D01*
X258642561Y-53714968D01*
X258620642Y-53742641D01*
X258606957Y-53755968D01*
X258512949Y-53809672D01*
X258410364Y-53813693D01*
X258317290Y-53768275D01*
X258300078Y-53751877D01*
X258274832Y-53721043D01*
X258257320Y-53684469D01*
X258246142Y-53631585D01*
X258239896Y-53551823D01*
X258237182Y-53434615D01*
X258236598Y-53273009D01*
X258236598Y-52861712D01*
X258144655Y-52829661D01*
X258079353Y-52807856D01*
X258043525Y-52797703D01*
X258042471Y-52797609D01*
X258039775Y-52825552D01*
X258037345Y-52904370D01*
X258035278Y-53026547D01*
X258033671Y-53184568D01*
X258032623Y-53370917D01*
X258032231Y-53578080D01*
X258032230Y-53587294D01*
X258032230Y-54376980D01*
X258127115Y-54417003D01*
X258222000Y-54457027D01*
X258236598Y-54212143D01*
G36*
X259571944Y-54011640D02*
G01*
X259686343Y-53969158D01*
X259687652Y-53968342D01*
X259758403Y-53916270D01*
X259810636Y-53855416D01*
X259847371Y-53776113D01*
X259871634Y-53668691D01*
X259886445Y-53523483D01*
X259894829Y-53330821D01*
X259895564Y-53303372D01*
X259906120Y-52889479D01*
X259817291Y-52843544D01*
X259753018Y-52812502D01*
X259714210Y-52797794D01*
X259712415Y-52797609D01*
X259705700Y-52824750D01*
X259700365Y-52897959D01*
X259697083Y-53004919D01*
X259696368Y-53091531D01*
X259696351Y-53231838D01*
X259689937Y-53319949D01*
X259667580Y-53361975D01*
X259619732Y-53364025D01*
X259536849Y-53332210D01*
X259411713Y-53273728D01*
X259319697Y-53225155D01*
X259272371Y-53183014D01*
X259258458Y-53137084D01*
X259258437Y-53134811D01*
X259281395Y-53055689D01*
X259349370Y-53012945D01*
X259453398Y-53006754D01*
X259528330Y-53007828D01*
X259567839Y-52986247D01*
X259592478Y-52934409D01*
X259606659Y-52868368D01*
X259586223Y-52830896D01*
X259578528Y-52825533D01*
X259506083Y-52803994D01*
X259404633Y-52800945D01*
X259300157Y-52815222D01*
X259226125Y-52841312D01*
X259123772Y-52928215D01*
X259065591Y-53049184D01*
X259054069Y-53143692D01*
X259062862Y-53228938D01*
X259094680Y-53298524D01*
X259157684Y-53360328D01*
X259260031Y-53422228D01*
X259409882Y-53492103D01*
X259419012Y-53496052D01*
X259553997Y-53558412D01*
X259637294Y-53609554D01*
X259672997Y-53655512D01*
X259665203Y-53702317D01*
X259618007Y-53756002D01*
X259603894Y-53768356D01*
X259509359Y-53816259D01*
X259411406Y-53814242D01*
X259326097Y-53767276D01*
X259269496Y-53680331D01*
X259264237Y-53663266D01*
X259213023Y-53580496D01*
X259148037Y-53540628D01*
X259054069Y-53501118D01*
X259054069Y-53603342D01*
X259082653Y-53751928D01*
X259167495Y-53888216D01*
X259211645Y-53933809D01*
X259312005Y-53992326D01*
X259439635Y-54018816D01*
X259571944Y-54011640D01*
G37*
X259571944Y-54011640D02*
X259686343Y-53969158D01*
X259687652Y-53968342D01*
X259758403Y-53916270D01*
X259810636Y-53855416D01*
X259847371Y-53776113D01*
X259871634Y-53668691D01*
X259886445Y-53523483D01*
X259894829Y-53330821D01*
X259895564Y-53303372D01*
X259906120Y-52889479D01*
X259817291Y-52843544D01*
X259753018Y-52812502D01*
X259714210Y-52797794D01*
X259712415Y-52797609D01*
X259705700Y-52824750D01*
X259700365Y-52897959D01*
X259697083Y-53004919D01*
X259696368Y-53091531D01*
X259696351Y-53231838D01*
X259689937Y-53319949D01*
X259667580Y-53361975D01*
X259619732Y-53364025D01*
X259536849Y-53332210D01*
X259411713Y-53273728D01*
X259319697Y-53225155D01*
X259272371Y-53183014D01*
X259258458Y-53137084D01*
X259258437Y-53134811D01*
X259281395Y-53055689D01*
X259349370Y-53012945D01*
X259453398Y-53006754D01*
X259528330Y-53007828D01*
X259567839Y-52986247D01*
X259592478Y-52934409D01*
X259606659Y-52868368D01*
X259586223Y-52830896D01*
X259578528Y-52825533D01*
X259506083Y-52803994D01*
X259404633Y-52800945D01*
X259300157Y-52815222D01*
X259226125Y-52841312D01*
X259123772Y-52928215D01*
X259065591Y-53049184D01*
X259054069Y-53143692D01*
X259062862Y-53228938D01*
X259094680Y-53298524D01*
X259157684Y-53360328D01*
X259260031Y-53422228D01*
X259409882Y-53492103D01*
X259419012Y-53496052D01*
X259553997Y-53558412D01*
X259637294Y-53609554D01*
X259672997Y-53655512D01*
X259665203Y-53702317D01*
X259618007Y-53756002D01*
X259603894Y-53768356D01*
X259509359Y-53816259D01*
X259411406Y-53814242D01*
X259326097Y-53767276D01*
X259269496Y-53680331D01*
X259264237Y-53663266D01*
X259213023Y-53580496D01*
X259148037Y-53540628D01*
X259054069Y-53501118D01*
X259054069Y-53603342D01*
X259082653Y-53751928D01*
X259167495Y-53888216D01*
X259211645Y-53933809D01*
X259312005Y-53992326D01*
X259439635Y-54018816D01*
X259571944Y-54011640D01*
G36*
X260557943Y-54014080D02*
G01*
X260690565Y-53965141D01*
X260798010Y-53878581D01*
X260840032Y-53817648D01*
X260885843Y-53705839D01*
X260884891Y-53624994D01*
X260836808Y-53570622D01*
X260819017Y-53561376D01*
X260742204Y-53532550D01*
X260702976Y-53539935D01*
X260689689Y-53588342D01*
X260689012Y-53615080D01*
X260664686Y-53713452D01*
X260601281Y-53782266D01*
X260513154Y-53815502D01*
X260414663Y-53807139D01*
X260334602Y-53763704D01*
X260307561Y-53738928D01*
X260288394Y-53708871D01*
X260275446Y-53663435D01*
X260267064Y-53592524D01*
X260261593Y-53486040D01*
X260257378Y-53333888D01*
X260256287Y-53285713D01*
X260252307Y-53120905D01*
X260247781Y-53004912D01*
X260240995Y-52928167D01*
X260230231Y-52881107D01*
X260213773Y-52854165D01*
X260189906Y-52837777D01*
X260174626Y-52830537D01*
X260109733Y-52805780D01*
X260071534Y-52797609D01*
X260058912Y-52824897D01*
X260051208Y-52907397D01*
X260048380Y-53046059D01*
X260050386Y-53241838D01*
X260051011Y-53272035D01*
X260055421Y-53450651D01*
X260060635Y-53581077D01*
X260068055Y-53673508D01*
X260079082Y-53738142D01*
X260095117Y-53785175D01*
X260117561Y-53824804D01*
X260129302Y-53841785D01*
X260196619Y-53916920D01*
X260271910Y-53975362D01*
X260281128Y-53980464D01*
X260416133Y-54020740D01*
X260557943Y-54014080D01*
G37*
X260557943Y-54014080D02*
X260690565Y-53965141D01*
X260798010Y-53878581D01*
X260840032Y-53817648D01*
X260885843Y-53705839D01*
X260884891Y-53624994D01*
X260836808Y-53570622D01*
X260819017Y-53561376D01*
X260742204Y-53532550D01*
X260702976Y-53539935D01*
X260689689Y-53588342D01*
X260689012Y-53615080D01*
X260664686Y-53713452D01*
X260601281Y-53782266D01*
X260513154Y-53815502D01*
X260414663Y-53807139D01*
X260334602Y-53763704D01*
X260307561Y-53738928D01*
X260288394Y-53708871D01*
X260275446Y-53663435D01*
X260267064Y-53592524D01*
X260261593Y-53486040D01*
X260257378Y-53333888D01*
X260256287Y-53285713D01*
X260252307Y-53120905D01*
X260247781Y-53004912D01*
X260240995Y-52928167D01*
X260230231Y-52881107D01*
X260213773Y-52854165D01*
X260189906Y-52837777D01*
X260174626Y-52830537D01*
X260109733Y-52805780D01*
X260071534Y-52797609D01*
X260058912Y-52824897D01*
X260051208Y-52907397D01*
X260048380Y-53046059D01*
X260050386Y-53241838D01*
X260051011Y-53272035D01*
X260055421Y-53450651D01*
X260060635Y-53581077D01*
X260068055Y-53673508D01*
X260079082Y-53738142D01*
X260095117Y-53785175D01*
X260117561Y-53824804D01*
X260129302Y-53841785D01*
X260196619Y-53916920D01*
X260271910Y-53975362D01*
X260281128Y-53980464D01*
X260416133Y-54020740D01*
X260557943Y-54014080D01*
G36*
X261885914Y-53781545D02*
G01*
X261885543Y-53563339D01*
X261884108Y-53395481D01*
X261881002Y-53269930D01*
X261875622Y-53178645D01*
X261867362Y-53113585D01*
X261855616Y-53066709D01*
X261839781Y-53029976D01*
X261827790Y-53009009D01*
X261728490Y-52895306D01*
X261602588Y-52824035D01*
X261463291Y-52798462D01*
X261323805Y-52821850D01*
X261240743Y-52863881D01*
X261153545Y-52936589D01*
X261094117Y-53025388D01*
X261058261Y-53141680D01*
X261041781Y-53296865D01*
X261039447Y-53410713D01*
X261039761Y-53418894D01*
X261243724Y-53418894D01*
X261244970Y-53288343D01*
X261250678Y-53201920D01*
X261263804Y-53145382D01*
X261287306Y-53104486D01*
X261315386Y-53073638D01*
X261409688Y-53014095D01*
X261510940Y-53009008D01*
X261606636Y-53058721D01*
X261614084Y-53065457D01*
X261645874Y-53100498D01*
X261665808Y-53142189D01*
X261676600Y-53204238D01*
X261680965Y-53300356D01*
X261681655Y-53406621D01*
X261680159Y-53540120D01*
X261673964Y-53629178D01*
X261660514Y-53687707D01*
X261637251Y-53729618D01*
X261618175Y-53751877D01*
X261529563Y-53808015D01*
X261427508Y-53814765D01*
X261330095Y-53771886D01*
X261311296Y-53755968D01*
X261279293Y-53720618D01*
X261259318Y-53678498D01*
X261248593Y-53615749D01*
X261244339Y-53518513D01*
X261243724Y-53418894D01*
X261039761Y-53418894D01*
X261046504Y-53594053D01*
X261070472Y-53731805D01*
X261115548Y-53835368D01*
X261185928Y-53916144D01*
X261240743Y-53957545D01*
X261340376Y-54002272D01*
X261455855Y-54023033D01*
X261563199Y-54017475D01*
X261623264Y-53995057D01*
X261646835Y-53988677D01*
X261662477Y-54012465D01*
X261673395Y-54076212D01*
X261681655Y-54173313D01*
X261690699Y-54281459D01*
X261703261Y-54346525D01*
X261726119Y-54383732D01*
X261766051Y-54408301D01*
X261791138Y-54419181D01*
X261886023Y-54458928D01*
X261885914Y-53781545D01*
G37*
X261885914Y-53781545D02*
X261885543Y-53563339D01*
X261884108Y-53395481D01*
X261881002Y-53269930D01*
X261875622Y-53178645D01*
X261867362Y-53113585D01*
X261855616Y-53066709D01*
X261839781Y-53029976D01*
X261827790Y-53009009D01*
X261728490Y-52895306D01*
X261602588Y-52824035D01*
X261463291Y-52798462D01*
X261323805Y-52821850D01*
X261240743Y-52863881D01*
X261153545Y-52936589D01*
X261094117Y-53025388D01*
X261058261Y-53141680D01*
X261041781Y-53296865D01*
X261039447Y-53410713D01*
X261039761Y-53418894D01*
X261243724Y-53418894D01*
X261244970Y-53288343D01*
X261250678Y-53201920D01*
X261263804Y-53145382D01*
X261287306Y-53104486D01*
X261315386Y-53073638D01*
X261409688Y-53014095D01*
X261510940Y-53009008D01*
X261606636Y-53058721D01*
X261614084Y-53065457D01*
X261645874Y-53100498D01*
X261665808Y-53142189D01*
X261676600Y-53204238D01*
X261680965Y-53300356D01*
X261681655Y-53406621D01*
X261680159Y-53540120D01*
X261673964Y-53629178D01*
X261660514Y-53687707D01*
X261637251Y-53729618D01*
X261618175Y-53751877D01*
X261529563Y-53808015D01*
X261427508Y-53814765D01*
X261330095Y-53771886D01*
X261311296Y-53755968D01*
X261279293Y-53720618D01*
X261259318Y-53678498D01*
X261248593Y-53615749D01*
X261244339Y-53518513D01*
X261243724Y-53418894D01*
X261039761Y-53418894D01*
X261046504Y-53594053D01*
X261070472Y-53731805D01*
X261115548Y-53835368D01*
X261185928Y-53916144D01*
X261240743Y-53957545D01*
X261340376Y-54002272D01*
X261455855Y-54023033D01*
X261563199Y-54017475D01*
X261623264Y-53995057D01*
X261646835Y-53988677D01*
X261662477Y-54012465D01*
X261673395Y-54076212D01*
X261681655Y-54173313D01*
X261690699Y-54281459D01*
X261703261Y-54346525D01*
X261726119Y-54383732D01*
X261766051Y-54408301D01*
X261791138Y-54419181D01*
X261886023Y-54458928D01*
X261885914Y-53781545D01*
G36*
X263072124Y-53996160D02*
G01*
X263076579Y-53919347D01*
X263080071Y-53802609D01*
X263082315Y-53655179D01*
X263083035Y-53500545D01*
X263083035Y-52977273D01*
X262990645Y-52884883D01*
X262926978Y-52827953D01*
X262871089Y-52804893D01*
X262794702Y-52806353D01*
X262764380Y-52810066D01*
X262669610Y-52820874D01*
X262591222Y-52827067D01*
X262572115Y-52827639D01*
X262507699Y-52823898D01*
X262415571Y-52814506D01*
X262379850Y-52810066D01*
X262292114Y-52803199D01*
X262233153Y-52818115D01*
X262174690Y-52864165D01*
X262153585Y-52884883D01*
X262061195Y-52977273D01*
X262061195Y-53956053D01*
X262135558Y-53989934D01*
X262199590Y-54015030D01*
X262237052Y-54023816D01*
X262246657Y-53996050D01*
X262255635Y-53918470D01*
X262263386Y-53799652D01*
X262269314Y-53648172D01*
X262272173Y-53520195D01*
X262280161Y-53016575D01*
X262349848Y-53006722D01*
X262413229Y-53013611D01*
X262444286Y-53035917D01*
X262452967Y-53077621D01*
X262460378Y-53166456D01*
X262465931Y-53291166D01*
X262469036Y-53440493D01*
X262469484Y-53517339D01*
X262469931Y-53959713D01*
X262561874Y-53991765D01*
X262626949Y-54013557D01*
X262662347Y-54023719D01*
X262663368Y-54023816D01*
X262666920Y-53996191D01*
X262670823Y-53919589D01*
X262674751Y-53803421D01*
X262678376Y-53657096D01*
X262680908Y-53520195D01*
X262688897Y-53016575D01*
X262864069Y-53016575D01*
X262872107Y-53476035D01*
X262880146Y-53935495D01*
X262965543Y-53979656D01*
X263028593Y-54009981D01*
X263065910Y-54023742D01*
X263066987Y-54023816D01*
X263072124Y-53996160D01*
G37*
X263072124Y-53996160D02*
X263076579Y-53919347D01*
X263080071Y-53802609D01*
X263082315Y-53655179D01*
X263083035Y-53500545D01*
X263083035Y-52977273D01*
X262990645Y-52884883D01*
X262926978Y-52827953D01*
X262871089Y-52804893D01*
X262794702Y-52806353D01*
X262764380Y-52810066D01*
X262669610Y-52820874D01*
X262591222Y-52827067D01*
X262572115Y-52827639D01*
X262507699Y-52823898D01*
X262415571Y-52814506D01*
X262379850Y-52810066D01*
X262292114Y-52803199D01*
X262233153Y-52818115D01*
X262174690Y-52864165D01*
X262153585Y-52884883D01*
X262061195Y-52977273D01*
X262061195Y-53956053D01*
X262135558Y-53989934D01*
X262199590Y-54015030D01*
X262237052Y-54023816D01*
X262246657Y-53996050D01*
X262255635Y-53918470D01*
X262263386Y-53799652D01*
X262269314Y-53648172D01*
X262272173Y-53520195D01*
X262280161Y-53016575D01*
X262349848Y-53006722D01*
X262413229Y-53013611D01*
X262444286Y-53035917D01*
X262452967Y-53077621D01*
X262460378Y-53166456D01*
X262465931Y-53291166D01*
X262469036Y-53440493D01*
X262469484Y-53517339D01*
X262469931Y-53959713D01*
X262561874Y-53991765D01*
X262626949Y-54013557D01*
X262662347Y-54023719D01*
X262663368Y-54023816D01*
X262666920Y-53996191D01*
X262670823Y-53919589D01*
X262674751Y-53803421D01*
X262678376Y-53657096D01*
X262680908Y-53520195D01*
X262688897Y-53016575D01*
X262864069Y-53016575D01*
X262872107Y-53476035D01*
X262880146Y-53935495D01*
X262965543Y-53979656D01*
X263028593Y-54009981D01*
X263065910Y-54023742D01*
X263066987Y-54023816D01*
X263072124Y-53996160D01*
G36*
X263806406Y-54000844D02*
G01*
X263890469Y-53962607D01*
X263956450Y-53916274D01*
X264004794Y-53864468D01*
X264038172Y-53797637D01*
X264059253Y-53706231D01*
X264070707Y-53580699D01*
X264075203Y-53411492D01*
X264075678Y-53300067D01*
X264075678Y-52865373D01*
X264001316Y-52831491D01*
X263942746Y-52806728D01*
X263913730Y-52797609D01*
X263908179Y-52824743D01*
X263903775Y-52897906D01*
X263901078Y-53004737D01*
X263900506Y-53089563D01*
X263898046Y-53212113D01*
X263891412Y-53309332D01*
X263881726Y-53368866D01*
X263874032Y-53381517D01*
X263822311Y-53368598D01*
X263741117Y-53335461D01*
X263647102Y-53290539D01*
X263556917Y-53242265D01*
X263487215Y-53199072D01*
X263454648Y-53169392D01*
X263454519Y-53169071D01*
X263457320Y-53114143D01*
X263482439Y-53061708D01*
X263526541Y-53019119D01*
X263590909Y-53004874D01*
X263645921Y-53006534D01*
X263723835Y-53007755D01*
X263764732Y-52989502D01*
X263789295Y-52941274D01*
X263792392Y-52932180D01*
X263803040Y-52863402D01*
X263774565Y-52821640D01*
X263700344Y-52801737D01*
X263620168Y-52798056D01*
X263475890Y-52825342D01*
X263401203Y-52864310D01*
X263308963Y-52955852D01*
X263260043Y-53068218D01*
X263255654Y-53186949D01*
X263297001Y-53297589D01*
X263359197Y-53366920D01*
X263421294Y-53405735D01*
X263518895Y-53454875D01*
X263632632Y-53504708D01*
X263651590Y-53512323D01*
X263776521Y-53567455D01*
X263848539Y-53616046D01*
X263871700Y-53664353D01*
X263850064Y-53718630D01*
X263812920Y-53761057D01*
X263725127Y-53813298D01*
X263628530Y-53817216D01*
X263539944Y-53776959D01*
X263476186Y-53696674D01*
X263467817Y-53675960D01*
X263419096Y-53599775D01*
X263347965Y-53543215D01*
X263258207Y-53496799D01*
X263258207Y-53628416D01*
X263263490Y-53708832D01*
X263286142Y-53772214D01*
X263336367Y-53839837D01*
X263384582Y-53891924D01*
X263459554Y-53965678D01*
X263517806Y-54005298D01*
X263580372Y-54021190D01*
X263651193Y-54023816D01*
X263806406Y-54000844D01*
G37*
X263806406Y-54000844D02*
X263890469Y-53962607D01*
X263956450Y-53916274D01*
X264004794Y-53864468D01*
X264038172Y-53797637D01*
X264059253Y-53706231D01*
X264070707Y-53580699D01*
X264075203Y-53411492D01*
X264075678Y-53300067D01*
X264075678Y-52865373D01*
X264001316Y-52831491D01*
X263942746Y-52806728D01*
X263913730Y-52797609D01*
X263908179Y-52824743D01*
X263903775Y-52897906D01*
X263901078Y-53004737D01*
X263900506Y-53089563D01*
X263898046Y-53212113D01*
X263891412Y-53309332D01*
X263881726Y-53368866D01*
X263874032Y-53381517D01*
X263822311Y-53368598D01*
X263741117Y-53335461D01*
X263647102Y-53290539D01*
X263556917Y-53242265D01*
X263487215Y-53199072D01*
X263454648Y-53169392D01*
X263454519Y-53169071D01*
X263457320Y-53114143D01*
X263482439Y-53061708D01*
X263526541Y-53019119D01*
X263590909Y-53004874D01*
X263645921Y-53006534D01*
X263723835Y-53007755D01*
X263764732Y-52989502D01*
X263789295Y-52941274D01*
X263792392Y-52932180D01*
X263803040Y-52863402D01*
X263774565Y-52821640D01*
X263700344Y-52801737D01*
X263620168Y-52798056D01*
X263475890Y-52825342D01*
X263401203Y-52864310D01*
X263308963Y-52955852D01*
X263260043Y-53068218D01*
X263255654Y-53186949D01*
X263297001Y-53297589D01*
X263359197Y-53366920D01*
X263421294Y-53405735D01*
X263518895Y-53454875D01*
X263632632Y-53504708D01*
X263651590Y-53512323D01*
X263776521Y-53567455D01*
X263848539Y-53616046D01*
X263871700Y-53664353D01*
X263850064Y-53718630D01*
X263812920Y-53761057D01*
X263725127Y-53813298D01*
X263628530Y-53817216D01*
X263539944Y-53776959D01*
X263476186Y-53696674D01*
X263467817Y-53675960D01*
X263419096Y-53599775D01*
X263347965Y-53543215D01*
X263258207Y-53496799D01*
X263258207Y-53628416D01*
X263263490Y-53708832D01*
X263286142Y-53772214D01*
X263336367Y-53839837D01*
X263384582Y-53891924D01*
X263459554Y-53965678D01*
X263517806Y-54005298D01*
X263580372Y-54021190D01*
X263651193Y-54023816D01*
X263806406Y-54000844D01*
G36*
X264827690Y-53995982D02*
G01*
X264862585Y-53980731D01*
X264945877Y-53914765D01*
X265017103Y-53819382D01*
X265061153Y-53717594D01*
X265068322Y-53667413D01*
X265044285Y-53597353D01*
X264991561Y-53560283D01*
X264935031Y-53537836D01*
X264909146Y-53533700D01*
X264896542Y-53563717D01*
X264871654Y-53629039D01*
X264860735Y-53658555D01*
X264799508Y-53760652D01*
X264710861Y-53811577D01*
X264597193Y-53810011D01*
X264588774Y-53808006D01*
X264528088Y-53779233D01*
X264483474Y-53723141D01*
X264453002Y-53632837D01*
X264434744Y-53501429D01*
X264426771Y-53322026D01*
X264426023Y-53226567D01*
X264425652Y-53076087D01*
X264423223Y-52973505D01*
X264416760Y-52908328D01*
X264404288Y-52870062D01*
X264383833Y-52848215D01*
X264353419Y-52832293D01*
X264351661Y-52831491D01*
X264293091Y-52806728D01*
X264264075Y-52797609D01*
X264259616Y-52825178D01*
X264255799Y-52901380D01*
X264252899Y-53016459D01*
X264251191Y-53160659D01*
X264250851Y-53266186D01*
X264252588Y-53470387D01*
X264259382Y-53625303D01*
X264273607Y-53739976D01*
X264297638Y-53823449D01*
X264333848Y-53884764D01*
X264384612Y-53932966D01*
X264434739Y-53966607D01*
X264555275Y-54011381D01*
X264695557Y-54021479D01*
X264827690Y-53995982D01*
G37*
X264827690Y-53995982D02*
X264862585Y-53980731D01*
X264945877Y-53914765D01*
X265017103Y-53819382D01*
X265061153Y-53717594D01*
X265068322Y-53667413D01*
X265044285Y-53597353D01*
X264991561Y-53560283D01*
X264935031Y-53537836D01*
X264909146Y-53533700D01*
X264896542Y-53563717D01*
X264871654Y-53629039D01*
X264860735Y-53658555D01*
X264799508Y-53760652D01*
X264710861Y-53811577D01*
X264597193Y-53810011D01*
X264588774Y-53808006D01*
X264528088Y-53779233D01*
X264483474Y-53723141D01*
X264453002Y-53632837D01*
X264434744Y-53501429D01*
X264426771Y-53322026D01*
X264426023Y-53226567D01*
X264425652Y-53076087D01*
X264423223Y-52973505D01*
X264416760Y-52908328D01*
X264404288Y-52870062D01*
X264383833Y-52848215D01*
X264353419Y-52832293D01*
X264351661Y-52831491D01*
X264293091Y-52806728D01*
X264264075Y-52797609D01*
X264259616Y-52825178D01*
X264255799Y-52901380D01*
X264252899Y-53016459D01*
X264251191Y-53160659D01*
X264250851Y-53266186D01*
X264252588Y-53470387D01*
X264259382Y-53625303D01*
X264273607Y-53739976D01*
X264297638Y-53823449D01*
X264333848Y-53884764D01*
X264384612Y-53932966D01*
X264434739Y-53966607D01*
X264555275Y-54011381D01*
X264695557Y-54021479D01*
X264827690Y-53995982D01*
G36*
X265835439Y-53979460D02*
G01*
X265950950Y-53903966D01*
X266006664Y-53836383D01*
X266050804Y-53713745D01*
X266054309Y-53616702D01*
X266046368Y-53486944D01*
X265747115Y-53355961D01*
X265601611Y-53289042D01*
X265506537Y-53235210D01*
X265457101Y-53188584D01*
X265448511Y-53143280D01*
X265475972Y-53093418D01*
X265506253Y-53060368D01*
X265594363Y-53007367D01*
X265690196Y-53003653D01*
X265778212Y-53044959D01*
X265842869Y-53127017D01*
X265854433Y-53155992D01*
X265909825Y-53246491D01*
X265973553Y-53285060D01*
X266060966Y-53318054D01*
X266060966Y-53192966D01*
X266053238Y-53107844D01*
X266022966Y-53036062D01*
X265959518Y-52953644D01*
X265950088Y-52942934D01*
X265879513Y-52869609D01*
X265818847Y-52830258D01*
X265742950Y-52812155D01*
X265680030Y-52806226D01*
X265567487Y-52804749D01*
X265487370Y-52823465D01*
X265437390Y-52851253D01*
X265358838Y-52912359D01*
X265304463Y-52978446D01*
X265270052Y-53061559D01*
X265251388Y-53173746D01*
X265244256Y-53327054D01*
X265243687Y-53404864D01*
X265245622Y-53498147D01*
X265421899Y-53498147D01*
X265423944Y-53448104D01*
X265429039Y-53439908D01*
X265462666Y-53451042D01*
X265535030Y-53480507D01*
X265631747Y-53522399D01*
X265651973Y-53531403D01*
X265774203Y-53593558D01*
X265841547Y-53648185D01*
X265856348Y-53699351D01*
X265820947Y-53751124D01*
X265791711Y-53774000D01*
X265686216Y-53819750D01*
X265587476Y-53812192D01*
X265504812Y-53756349D01*
X265447548Y-53657247D01*
X265429188Y-53578586D01*
X265421899Y-53498147D01*
X265245622Y-53498147D01*
X265247459Y-53586649D01*
X265261359Y-53721147D01*
X265288894Y-53819084D01*
X265333572Y-53891189D01*
X265398901Y-53948187D01*
X265427383Y-53966607D01*
X265556763Y-54014578D01*
X265698412Y-54017597D01*
X265835439Y-53979460D01*
G37*
X265835439Y-53979460D02*
X265950950Y-53903966D01*
X266006664Y-53836383D01*
X266050804Y-53713745D01*
X266054309Y-53616702D01*
X266046368Y-53486944D01*
X265747115Y-53355961D01*
X265601611Y-53289042D01*
X265506537Y-53235210D01*
X265457101Y-53188584D01*
X265448511Y-53143280D01*
X265475972Y-53093418D01*
X265506253Y-53060368D01*
X265594363Y-53007367D01*
X265690196Y-53003653D01*
X265778212Y-53044959D01*
X265842869Y-53127017D01*
X265854433Y-53155992D01*
X265909825Y-53246491D01*
X265973553Y-53285060D01*
X266060966Y-53318054D01*
X266060966Y-53192966D01*
X266053238Y-53107844D01*
X266022966Y-53036062D01*
X265959518Y-52953644D01*
X265950088Y-52942934D01*
X265879513Y-52869609D01*
X265818847Y-52830258D01*
X265742950Y-52812155D01*
X265680030Y-52806226D01*
X265567487Y-52804749D01*
X265487370Y-52823465D01*
X265437390Y-52851253D01*
X265358838Y-52912359D01*
X265304463Y-52978446D01*
X265270052Y-53061559D01*
X265251388Y-53173746D01*
X265244256Y-53327054D01*
X265243687Y-53404864D01*
X265245622Y-53498147D01*
X265421899Y-53498147D01*
X265423944Y-53448104D01*
X265429039Y-53439908D01*
X265462666Y-53451042D01*
X265535030Y-53480507D01*
X265631747Y-53522399D01*
X265651973Y-53531403D01*
X265774203Y-53593558D01*
X265841547Y-53648185D01*
X265856348Y-53699351D01*
X265820947Y-53751124D01*
X265791711Y-53774000D01*
X265686216Y-53819750D01*
X265587476Y-53812192D01*
X265504812Y-53756349D01*
X265447548Y-53657247D01*
X265429188Y-53578586D01*
X265421899Y-53498147D01*
X265245622Y-53498147D01*
X265247459Y-53586649D01*
X265261359Y-53721147D01*
X265288894Y-53819084D01*
X265333572Y-53891189D01*
X265398901Y-53948187D01*
X265427383Y-53966607D01*
X265556763Y-54014578D01*
X265698412Y-54017597D01*
X265835439Y-53979460D01*
G36*
X259701014Y-63483002D02*
G01*
X259859006Y-63482137D01*
X259973347Y-63479795D01*
X260051407Y-63475238D01*
X260100554Y-63467730D01*
X260128159Y-63456534D01*
X260141592Y-63440912D01*
X260148221Y-63420127D01*
X260148865Y-63417437D01*
X260158935Y-63368887D01*
X260177575Y-63273095D01*
X260202845Y-63140257D01*
X260232807Y-62980569D01*
X260265522Y-62804226D01*
X260266664Y-62798033D01*
X260299433Y-62625218D01*
X260330093Y-62472531D01*
X260356664Y-62349129D01*
X260377167Y-62264169D01*
X260389626Y-62226810D01*
X260390220Y-62226148D01*
X260426919Y-62207905D01*
X260502586Y-62177503D01*
X260600878Y-62141507D01*
X260601425Y-62141315D01*
X260725233Y-62094778D01*
X260871196Y-62035496D01*
X261008781Y-61975891D01*
X261015293Y-61972944D01*
X261239390Y-61871235D01*
X261735619Y-62210103D01*
X261887846Y-62313408D01*
X262025741Y-62405763D01*
X262141315Y-62481916D01*
X262226579Y-62536615D01*
X262273544Y-62564607D01*
X262278004Y-62566683D01*
X262312134Y-62557440D01*
X262375881Y-62512844D01*
X262471731Y-62430791D01*
X262602169Y-62309179D01*
X262735328Y-62179795D01*
X262863694Y-62052298D01*
X262978581Y-61935954D01*
X263073073Y-61837948D01*
X263140253Y-61765464D01*
X263173206Y-61725687D01*
X263174432Y-61723639D01*
X263178074Y-61696344D01*
X263164350Y-61651766D01*
X263129869Y-61583888D01*
X263071239Y-61486689D01*
X262985070Y-61354149D01*
X262870200Y-61183524D01*
X262768254Y-61033345D01*
X262677123Y-60898650D01*
X262602073Y-60787260D01*
X262548369Y-60706995D01*
X262521280Y-60665675D01*
X262519574Y-60662870D01*
X262522882Y-60623279D01*
X262547953Y-60546331D01*
X262589798Y-60446568D01*
X262604712Y-60414709D01*
X262669786Y-60272774D01*
X262739212Y-60111727D01*
X262795609Y-59972379D01*
X262836247Y-59868956D01*
X262868526Y-59790358D01*
X262887178Y-59749280D01*
X262889497Y-59746115D01*
X262923803Y-59740872D01*
X263004669Y-59726506D01*
X263121343Y-59705063D01*
X263263075Y-59678587D01*
X263419110Y-59649123D01*
X263578698Y-59618717D01*
X263731085Y-59589412D01*
X263865521Y-59563255D01*
X263971252Y-59542290D01*
X264037526Y-59528561D01*
X264053782Y-59524680D01*
X264070573Y-59515100D01*
X264083249Y-59493464D01*
X264092378Y-59452469D01*
X264098531Y-59384811D01*
X264102280Y-59283188D01*
X264104192Y-59140297D01*
X264104840Y-58948835D01*
X264104874Y-58870355D01*
X264104874Y-58232094D01*
X263951598Y-58201840D01*
X263866322Y-58185436D01*
X263739070Y-58161491D01*
X263585315Y-58132893D01*
X263420534Y-58102533D01*
X263374989Y-58094194D01*
X263222932Y-58064630D01*
X263090468Y-58035558D01*
X262988714Y-58009671D01*
X262928788Y-57989663D01*
X262918805Y-57983699D01*
X262894293Y-57941466D01*
X262859148Y-57859630D01*
X262820173Y-57754317D01*
X262812442Y-57731632D01*
X262761360Y-57590982D01*
X262697954Y-57432286D01*
X262635904Y-57289775D01*
X262635598Y-57289114D01*
X262532267Y-57065560D01*
X263211961Y-56065768D01*
X262775621Y-55628700D01*
X262643649Y-55498619D01*
X262523279Y-55383952D01*
X262421273Y-55290819D01*
X262344391Y-55225342D01*
X262299393Y-55193643D01*
X262292938Y-55191632D01*
X262255040Y-55207471D01*
X262177708Y-55251504D01*
X262069389Y-55318510D01*
X261938532Y-55403266D01*
X261797052Y-55498184D01*
X261653461Y-55595002D01*
X261525435Y-55679249D01*
X261421105Y-55745742D01*
X261348600Y-55789298D01*
X261316158Y-55804736D01*
X261276576Y-55791672D01*
X261201519Y-55757250D01*
X261106468Y-55708620D01*
X261096392Y-55703215D01*
X260968391Y-55639020D01*
X260880618Y-55607537D01*
X260826028Y-55607202D01*
X260797575Y-55636452D01*
X260797410Y-55636862D01*
X260783188Y-55671502D01*
X260749269Y-55753731D01*
X260698284Y-55877186D01*
X260632862Y-56035502D01*
X260555634Y-56222314D01*
X260469229Y-56431258D01*
X260385551Y-56633554D01*
X260293588Y-56856800D01*
X260209150Y-57063608D01*
X260134769Y-57247638D01*
X260072974Y-57402549D01*
X260026297Y-57522004D01*
X259997268Y-57599661D01*
X259988322Y-57628644D01*
X260010756Y-57661890D01*
X260069439Y-57714877D01*
X260147689Y-57773296D01*
X260370534Y-57958048D01*
X260544718Y-58169818D01*
X260668154Y-58404144D01*
X260738754Y-58656566D01*
X260754431Y-58922623D01*
X260743036Y-59045425D01*
X260680950Y-59300207D01*
X260574023Y-59525199D01*
X260428889Y-59718183D01*
X260252178Y-59876939D01*
X260050522Y-59999250D01*
X259830554Y-60082895D01*
X259598906Y-60125656D01*
X259362209Y-60125313D01*
X259127095Y-60079648D01*
X258900196Y-59986441D01*
X258688144Y-59843473D01*
X258599636Y-59762617D01*
X258429889Y-59554993D01*
X258311699Y-59328105D01*
X258244278Y-59088567D01*
X258226840Y-58842993D01*
X258258598Y-58597997D01*
X258338765Y-58360192D01*
X258466555Y-58136193D01*
X258641180Y-57932613D01*
X258836312Y-57773296D01*
X258917591Y-57712398D01*
X258975009Y-57659985D01*
X258995678Y-57628594D01*
X258984856Y-57594361D01*
X258954077Y-57512581D01*
X258905874Y-57389593D01*
X258842778Y-57231737D01*
X258767322Y-57045351D01*
X258682038Y-56836774D01*
X258598219Y-56633504D01*
X258505745Y-56410067D01*
X258420089Y-56203016D01*
X258343882Y-56018714D01*
X258279753Y-55863525D01*
X258230332Y-55743812D01*
X258198248Y-55665939D01*
X258186359Y-55636862D01*
X258158274Y-55607323D01*
X258103949Y-55607409D01*
X258016395Y-55638674D01*
X257888619Y-55702671D01*
X257887608Y-55703215D01*
X257791402Y-55752879D01*
X257713631Y-55789055D01*
X257669777Y-55804592D01*
X257667842Y-55804736D01*
X257634829Y-55788976D01*
X257561946Y-55745150D01*
X257457322Y-55678443D01*
X257329090Y-55594036D01*
X257186948Y-55498184D01*
X257042233Y-55401133D01*
X256911804Y-55316730D01*
X256804110Y-55250199D01*
X256727598Y-55206762D01*
X256691062Y-55191632D01*
X256657418Y-55211518D01*
X256589776Y-55267097D01*
X256494893Y-55352246D01*
X256379530Y-55460847D01*
X256250445Y-55586779D01*
X256208229Y-55628851D01*
X255771739Y-56066069D01*
X256103977Y-56553660D01*
X256204946Y-56703395D01*
X256293562Y-56837780D01*
X256364854Y-56949031D01*
X256413850Y-57029361D01*
X256435578Y-57070986D01*
X256436215Y-57073947D01*
X256424760Y-57113182D01*
X256393949Y-57192105D01*
X256349116Y-57297491D01*
X256317647Y-57368046D01*
X256258808Y-57503124D01*
X256203396Y-57639591D01*
X256160436Y-57754897D01*
X256148766Y-57790023D01*
X256115611Y-57883826D01*
X256083201Y-57956306D01*
X256065399Y-57983699D01*
X256026114Y-58000464D01*
X255940374Y-58024230D01*
X255819303Y-58052303D01*
X255674027Y-58081991D01*
X255609012Y-58094194D01*
X255443913Y-58124532D01*
X255285552Y-58153907D01*
X255149404Y-58179431D01*
X255050943Y-58198215D01*
X255032402Y-58201840D01*
X254879127Y-58232094D01*
X254879127Y-58870355D01*
X254879471Y-59080230D01*
X254880884Y-59239020D01*
X254883936Y-59354027D01*
X254889197Y-59432554D01*
X254897237Y-59481904D01*
X254908627Y-59509381D01*
X254923937Y-59522287D01*
X254930218Y-59524680D01*
X254968104Y-59533167D01*
X255051805Y-59550100D01*
X255170567Y-59573434D01*
X255313639Y-59601125D01*
X255470268Y-59631127D01*
X255629703Y-59661396D01*
X255781191Y-59689885D01*
X255913981Y-59714551D01*
X256017319Y-59733349D01*
X256080455Y-59744233D01*
X256094503Y-59746115D01*
X256107230Y-59771296D01*
X256135400Y-59838378D01*
X256173748Y-59934667D01*
X256188391Y-59972379D01*
X256247452Y-60118079D01*
X256317000Y-60279049D01*
X256379288Y-60414709D01*
X256425121Y-60518439D01*
X256455613Y-60603674D01*
X256465792Y-60655874D01*
X256464169Y-60662870D01*
X256442657Y-60695898D01*
X256393535Y-60769357D01*
X256322077Y-60875423D01*
X256233555Y-61006274D01*
X256133241Y-61154088D01*
X256113406Y-61183266D01*
X255997012Y-61356137D01*
X255911452Y-61487774D01*
X255853316Y-61584239D01*
X255819192Y-61651592D01*
X255805669Y-61695894D01*
X255809336Y-61723206D01*
X255809430Y-61723380D01*
X255838293Y-61759254D01*
X255902133Y-61828609D01*
X255994031Y-61924255D01*
X256107067Y-62039001D01*
X256234321Y-62165659D01*
X256248672Y-62179795D01*
X256409043Y-62335097D01*
X256532805Y-62449130D01*
X256622445Y-62523998D01*
X256680448Y-62561804D01*
X256705996Y-62566683D01*
X256743282Y-62545397D01*
X256820657Y-62496227D01*
X256930133Y-62424425D01*
X257063720Y-62335245D01*
X257213430Y-62233937D01*
X257248382Y-62210103D01*
X257744610Y-61871235D01*
X257968707Y-61972944D01*
X258104989Y-62032217D01*
X258251276Y-62091830D01*
X258377035Y-62139360D01*
X258382575Y-62141315D01*
X258480943Y-62177323D01*
X258556771Y-62207771D01*
X258593718Y-62226095D01*
X258593780Y-62226148D01*
X258605504Y-62259271D01*
X258625432Y-62340733D01*
X258651587Y-62461375D01*
X258681990Y-62612041D01*
X258714663Y-62783572D01*
X258717336Y-62798033D01*
X258750110Y-62974765D01*
X258780198Y-63135190D01*
X258805661Y-63269112D01*
X258824559Y-63366337D01*
X258834953Y-63416668D01*
X258835135Y-63417437D01*
X258841461Y-63438847D01*
X258853761Y-63455012D01*
X258879406Y-63466669D01*
X258925765Y-63474555D01*
X259000208Y-63479407D01*
X259110105Y-63481961D01*
X259262825Y-63482955D01*
X259465738Y-63483126D01*
X259492000Y-63483126D01*
X259701014Y-63483002D01*
G37*
X259701014Y-63483002D02*
X259859006Y-63482137D01*
X259973347Y-63479795D01*
X260051407Y-63475238D01*
X260100554Y-63467730D01*
X260128159Y-63456534D01*
X260141592Y-63440912D01*
X260148221Y-63420127D01*
X260148865Y-63417437D01*
X260158935Y-63368887D01*
X260177575Y-63273095D01*
X260202845Y-63140257D01*
X260232807Y-62980569D01*
X260265522Y-62804226D01*
X260266664Y-62798033D01*
X260299433Y-62625218D01*
X260330093Y-62472531D01*
X260356664Y-62349129D01*
X260377167Y-62264169D01*
X260389626Y-62226810D01*
X260390220Y-62226148D01*
X260426919Y-62207905D01*
X260502586Y-62177503D01*
X260600878Y-62141507D01*
X260601425Y-62141315D01*
X260725233Y-62094778D01*
X260871196Y-62035496D01*
X261008781Y-61975891D01*
X261015293Y-61972944D01*
X261239390Y-61871235D01*
X261735619Y-62210103D01*
X261887846Y-62313408D01*
X262025741Y-62405763D01*
X262141315Y-62481916D01*
X262226579Y-62536615D01*
X262273544Y-62564607D01*
X262278004Y-62566683D01*
X262312134Y-62557440D01*
X262375881Y-62512844D01*
X262471731Y-62430791D01*
X262602169Y-62309179D01*
X262735328Y-62179795D01*
X262863694Y-62052298D01*
X262978581Y-61935954D01*
X263073073Y-61837948D01*
X263140253Y-61765464D01*
X263173206Y-61725687D01*
X263174432Y-61723639D01*
X263178074Y-61696344D01*
X263164350Y-61651766D01*
X263129869Y-61583888D01*
X263071239Y-61486689D01*
X262985070Y-61354149D01*
X262870200Y-61183524D01*
X262768254Y-61033345D01*
X262677123Y-60898650D01*
X262602073Y-60787260D01*
X262548369Y-60706995D01*
X262521280Y-60665675D01*
X262519574Y-60662870D01*
X262522882Y-60623279D01*
X262547953Y-60546331D01*
X262589798Y-60446568D01*
X262604712Y-60414709D01*
X262669786Y-60272774D01*
X262739212Y-60111727D01*
X262795609Y-59972379D01*
X262836247Y-59868956D01*
X262868526Y-59790358D01*
X262887178Y-59749280D01*
X262889497Y-59746115D01*
X262923803Y-59740872D01*
X263004669Y-59726506D01*
X263121343Y-59705063D01*
X263263075Y-59678587D01*
X263419110Y-59649123D01*
X263578698Y-59618717D01*
X263731085Y-59589412D01*
X263865521Y-59563255D01*
X263971252Y-59542290D01*
X264037526Y-59528561D01*
X264053782Y-59524680D01*
X264070573Y-59515100D01*
X264083249Y-59493464D01*
X264092378Y-59452469D01*
X264098531Y-59384811D01*
X264102280Y-59283188D01*
X264104192Y-59140297D01*
X264104840Y-58948835D01*
X264104874Y-58870355D01*
X264104874Y-58232094D01*
X263951598Y-58201840D01*
X263866322Y-58185436D01*
X263739070Y-58161491D01*
X263585315Y-58132893D01*
X263420534Y-58102533D01*
X263374989Y-58094194D01*
X263222932Y-58064630D01*
X263090468Y-58035558D01*
X262988714Y-58009671D01*
X262928788Y-57989663D01*
X262918805Y-57983699D01*
X262894293Y-57941466D01*
X262859148Y-57859630D01*
X262820173Y-57754317D01*
X262812442Y-57731632D01*
X262761360Y-57590982D01*
X262697954Y-57432286D01*
X262635904Y-57289775D01*
X262635598Y-57289114D01*
X262532267Y-57065560D01*
X263211961Y-56065768D01*
X262775621Y-55628700D01*
X262643649Y-55498619D01*
X262523279Y-55383952D01*
X262421273Y-55290819D01*
X262344391Y-55225342D01*
X262299393Y-55193643D01*
X262292938Y-55191632D01*
X262255040Y-55207471D01*
X262177708Y-55251504D01*
X262069389Y-55318510D01*
X261938532Y-55403266D01*
X261797052Y-55498184D01*
X261653461Y-55595002D01*
X261525435Y-55679249D01*
X261421105Y-55745742D01*
X261348600Y-55789298D01*
X261316158Y-55804736D01*
X261276576Y-55791672D01*
X261201519Y-55757250D01*
X261106468Y-55708620D01*
X261096392Y-55703215D01*
X260968391Y-55639020D01*
X260880618Y-55607537D01*
X260826028Y-55607202D01*
X260797575Y-55636452D01*
X260797410Y-55636862D01*
X260783188Y-55671502D01*
X260749269Y-55753731D01*
X260698284Y-55877186D01*
X260632862Y-56035502D01*
X260555634Y-56222314D01*
X260469229Y-56431258D01*
X260385551Y-56633554D01*
X260293588Y-56856800D01*
X260209150Y-57063608D01*
X260134769Y-57247638D01*
X260072974Y-57402549D01*
X260026297Y-57522004D01*
X259997268Y-57599661D01*
X259988322Y-57628644D01*
X260010756Y-57661890D01*
X260069439Y-57714877D01*
X260147689Y-57773296D01*
X260370534Y-57958048D01*
X260544718Y-58169818D01*
X260668154Y-58404144D01*
X260738754Y-58656566D01*
X260754431Y-58922623D01*
X260743036Y-59045425D01*
X260680950Y-59300207D01*
X260574023Y-59525199D01*
X260428889Y-59718183D01*
X260252178Y-59876939D01*
X260050522Y-59999250D01*
X259830554Y-60082895D01*
X259598906Y-60125656D01*
X259362209Y-60125313D01*
X259127095Y-60079648D01*
X258900196Y-59986441D01*
X258688144Y-59843473D01*
X258599636Y-59762617D01*
X258429889Y-59554993D01*
X258311699Y-59328105D01*
X258244278Y-59088567D01*
X258226840Y-58842993D01*
X258258598Y-58597997D01*
X258338765Y-58360192D01*
X258466555Y-58136193D01*
X258641180Y-57932613D01*
X258836312Y-57773296D01*
X258917591Y-57712398D01*
X258975009Y-57659985D01*
X258995678Y-57628594D01*
X258984856Y-57594361D01*
X258954077Y-57512581D01*
X258905874Y-57389593D01*
X258842778Y-57231737D01*
X258767322Y-57045351D01*
X258682038Y-56836774D01*
X258598219Y-56633504D01*
X258505745Y-56410067D01*
X258420089Y-56203016D01*
X258343882Y-56018714D01*
X258279753Y-55863525D01*
X258230332Y-55743812D01*
X258198248Y-55665939D01*
X258186359Y-55636862D01*
X258158274Y-55607323D01*
X258103949Y-55607409D01*
X258016395Y-55638674D01*
X257888619Y-55702671D01*
X257887608Y-55703215D01*
X257791402Y-55752879D01*
X257713631Y-55789055D01*
X257669777Y-55804592D01*
X257667842Y-55804736D01*
X257634829Y-55788976D01*
X257561946Y-55745150D01*
X257457322Y-55678443D01*
X257329090Y-55594036D01*
X257186948Y-55498184D01*
X257042233Y-55401133D01*
X256911804Y-55316730D01*
X256804110Y-55250199D01*
X256727598Y-55206762D01*
X256691062Y-55191632D01*
X256657418Y-55211518D01*
X256589776Y-55267097D01*
X256494893Y-55352246D01*
X256379530Y-55460847D01*
X256250445Y-55586779D01*
X256208229Y-55628851D01*
X255771739Y-56066069D01*
X256103977Y-56553660D01*
X256204946Y-56703395D01*
X256293562Y-56837780D01*
X256364854Y-56949031D01*
X256413850Y-57029361D01*
X256435578Y-57070986D01*
X256436215Y-57073947D01*
X256424760Y-57113182D01*
X256393949Y-57192105D01*
X256349116Y-57297491D01*
X256317647Y-57368046D01*
X256258808Y-57503124D01*
X256203396Y-57639591D01*
X256160436Y-57754897D01*
X256148766Y-57790023D01*
X256115611Y-57883826D01*
X256083201Y-57956306D01*
X256065399Y-57983699D01*
X256026114Y-58000464D01*
X255940374Y-58024230D01*
X255819303Y-58052303D01*
X255674027Y-58081991D01*
X255609012Y-58094194D01*
X255443913Y-58124532D01*
X255285552Y-58153907D01*
X255149404Y-58179431D01*
X255050943Y-58198215D01*
X255032402Y-58201840D01*
X254879127Y-58232094D01*
X254879127Y-58870355D01*
X254879471Y-59080230D01*
X254880884Y-59239020D01*
X254883936Y-59354027D01*
X254889197Y-59432554D01*
X254897237Y-59481904D01*
X254908627Y-59509381D01*
X254923937Y-59522287D01*
X254930218Y-59524680D01*
X254968104Y-59533167D01*
X255051805Y-59550100D01*
X255170567Y-59573434D01*
X255313639Y-59601125D01*
X255470268Y-59631127D01*
X255629703Y-59661396D01*
X255781191Y-59689885D01*
X255913981Y-59714551D01*
X256017319Y-59733349D01*
X256080455Y-59744233D01*
X256094503Y-59746115D01*
X256107230Y-59771296D01*
X256135400Y-59838378D01*
X256173748Y-59934667D01*
X256188391Y-59972379D01*
X256247452Y-60118079D01*
X256317000Y-60279049D01*
X256379288Y-60414709D01*
X256425121Y-60518439D01*
X256455613Y-60603674D01*
X256465792Y-60655874D01*
X256464169Y-60662870D01*
X256442657Y-60695898D01*
X256393535Y-60769357D01*
X256322077Y-60875423D01*
X256233555Y-61006274D01*
X256133241Y-61154088D01*
X256113406Y-61183266D01*
X255997012Y-61356137D01*
X255911452Y-61487774D01*
X255853316Y-61584239D01*
X255819192Y-61651592D01*
X255805669Y-61695894D01*
X255809336Y-61723206D01*
X255809430Y-61723380D01*
X255838293Y-61759254D01*
X255902133Y-61828609D01*
X255994031Y-61924255D01*
X256107067Y-62039001D01*
X256234321Y-62165659D01*
X256248672Y-62179795D01*
X256409043Y-62335097D01*
X256532805Y-62449130D01*
X256622445Y-62523998D01*
X256680448Y-62561804D01*
X256705996Y-62566683D01*
X256743282Y-62545397D01*
X256820657Y-62496227D01*
X256930133Y-62424425D01*
X257063720Y-62335245D01*
X257213430Y-62233937D01*
X257248382Y-62210103D01*
X257744610Y-61871235D01*
X257968707Y-61972944D01*
X258104989Y-62032217D01*
X258251276Y-62091830D01*
X258377035Y-62139360D01*
X258382575Y-62141315D01*
X258480943Y-62177323D01*
X258556771Y-62207771D01*
X258593718Y-62226095D01*
X258593780Y-62226148D01*
X258605504Y-62259271D01*
X258625432Y-62340733D01*
X258651587Y-62461375D01*
X258681990Y-62612041D01*
X258714663Y-62783572D01*
X258717336Y-62798033D01*
X258750110Y-62974765D01*
X258780198Y-63135190D01*
X258805661Y-63269112D01*
X258824559Y-63366337D01*
X258834953Y-63416668D01*
X258835135Y-63417437D01*
X258841461Y-63438847D01*
X258853761Y-63455012D01*
X258879406Y-63466669D01*
X258925765Y-63474555D01*
X259000208Y-63479407D01*
X259110105Y-63481961D01*
X259262825Y-63482955D01*
X259465738Y-63483126D01*
X259492000Y-63483126D01*
X259701014Y-63483002D01*
%TD*%
%TO.P,J130,1*%
%TO.N,Net-(J130-Pad1)*%
%TA.AperFunction,ConnectorPad*%
G36*
G01*
X75399900Y-35159950D02*
X75399900Y-28340050D01*
G75*
G02*
X75799950Y-27940000I400050J0D01*
G01*
X76600050Y-27940000D01*
G75*
G02*
X77000100Y-28340050I0J-400050D01*
G01*
X77000100Y-35159950D01*
G75*
G02*
X76600050Y-35560000I-400050J0D01*
G01*
X75799950Y-35560000D01*
G75*
G02*
X75399900Y-35159950I0J400050D01*
G01*
G37*
%TD.AperFunction*%
%TD*%
%TO.P,J131,1*%
%TO.N,Net-(J131-Pad1)*%
%TA.AperFunction,ConnectorPad*%
G36*
G01*
X79362300Y-35159950D02*
X79362300Y-28340050D01*
G75*
G02*
X79762350Y-27940000I400050J0D01*
G01*
X80562450Y-27940000D01*
G75*
G02*
X80962500Y-28340050I0J-400050D01*
G01*
X80962500Y-35159950D01*
G75*
G02*
X80562450Y-35560000I-400050J0D01*
G01*
X79762350Y-35560000D01*
G75*
G02*
X79362300Y-35159950I0J400050D01*
G01*
G37*
%TD.AperFunction*%
%TD*%
%TO.P,J132,1*%
%TO.N,Net-(J132-Pad1)*%
%TA.AperFunction,ConnectorPad*%
G36*
G01*
X83324700Y-35159950D02*
X83324700Y-28340050D01*
G75*
G02*
X83724750Y-27940000I400050J0D01*
G01*
X84524850Y-27940000D01*
G75*
G02*
X84924900Y-28340050I0J-400050D01*
G01*
X84924900Y-35159950D01*
G75*
G02*
X84524850Y-35560000I-400050J0D01*
G01*
X83724750Y-35560000D01*
G75*
G02*
X83324700Y-35159950I0J400050D01*
G01*
G37*
%TD.AperFunction*%
%TD*%
%TO.P,J133,1*%
%TO.N,Net-(J133-Pad1)*%
%TA.AperFunction,ConnectorPad*%
G36*
G01*
X87287100Y-35159950D02*
X87287100Y-28340050D01*
G75*
G02*
X87687150Y-27940000I400050J0D01*
G01*
X88487250Y-27940000D01*
G75*
G02*
X88887300Y-28340050I0J-400050D01*
G01*
X88887300Y-35159950D01*
G75*
G02*
X88487250Y-35560000I-400050J0D01*
G01*
X87687150Y-35560000D01*
G75*
G02*
X87287100Y-35159950I0J400050D01*
G01*
G37*
%TD.AperFunction*%
%TD*%
%TO.P,J134,1*%
%TO.N,Net-(J134-Pad1)*%
%TA.AperFunction,ConnectorPad*%
G36*
G01*
X91249500Y-35159950D02*
X91249500Y-28340050D01*
G75*
G02*
X91649550Y-27940000I400050J0D01*
G01*
X92449650Y-27940000D01*
G75*
G02*
X92849700Y-28340050I0J-400050D01*
G01*
X92849700Y-35159950D01*
G75*
G02*
X92449650Y-35560000I-400050J0D01*
G01*
X91649550Y-35560000D01*
G75*
G02*
X91249500Y-35159950I0J400050D01*
G01*
G37*
%TD.AperFunction*%
%TD*%
%TO.P,J135,1*%
%TO.N,Net-(J135-Pad1)*%
%TA.AperFunction,ConnectorPad*%
G36*
G01*
X95211900Y-35159950D02*
X95211900Y-28340050D01*
G75*
G02*
X95611950Y-27940000I400050J0D01*
G01*
X96412050Y-27940000D01*
G75*
G02*
X96812100Y-28340050I0J-400050D01*
G01*
X96812100Y-35159950D01*
G75*
G02*
X96412050Y-35560000I-400050J0D01*
G01*
X95611950Y-35560000D01*
G75*
G02*
X95211900Y-35159950I0J400050D01*
G01*
G37*
%TD.AperFunction*%
%TD*%
%TO.P,J136,1*%
%TO.N,Net-(J136-Pad1)*%
%TA.AperFunction,ConnectorPad*%
G36*
G01*
X99174300Y-35159950D02*
X99174300Y-28340050D01*
G75*
G02*
X99574350Y-27940000I400050J0D01*
G01*
X100374450Y-27940000D01*
G75*
G02*
X100774500Y-28340050I0J-400050D01*
G01*
X100774500Y-35159950D01*
G75*
G02*
X100374450Y-35560000I-400050J0D01*
G01*
X99574350Y-35560000D01*
G75*
G02*
X99174300Y-35159950I0J400050D01*
G01*
G37*
%TD.AperFunction*%
%TD*%
%TO.P,J137,1*%
%TO.N,Net-(J137-Pad1)*%
%TA.AperFunction,ConnectorPad*%
G36*
G01*
X103136700Y-35159950D02*
X103136700Y-28340050D01*
G75*
G02*
X103536750Y-27940000I400050J0D01*
G01*
X104336850Y-27940000D01*
G75*
G02*
X104736900Y-28340050I0J-400050D01*
G01*
X104736900Y-35159950D01*
G75*
G02*
X104336850Y-35560000I-400050J0D01*
G01*
X103536750Y-35560000D01*
G75*
G02*
X103136700Y-35159950I0J400050D01*
G01*
G37*
%TD.AperFunction*%
%TD*%
%TO.P,J138,1*%
%TO.N,Net-(J138-Pad1)*%
%TA.AperFunction,ConnectorPad*%
G36*
G01*
X107099100Y-35159950D02*
X107099100Y-28340050D01*
G75*
G02*
X107499150Y-27940000I400050J0D01*
G01*
X108299250Y-27940000D01*
G75*
G02*
X108699300Y-28340050I0J-400050D01*
G01*
X108699300Y-35159950D01*
G75*
G02*
X108299250Y-35560000I-400050J0D01*
G01*
X107499150Y-35560000D01*
G75*
G02*
X107099100Y-35159950I0J400050D01*
G01*
G37*
%TD.AperFunction*%
%TD*%
%TO.P,J139,1*%
%TO.N,Net-(J139-Pad1)*%
%TA.AperFunction,ConnectorPad*%
G36*
G01*
X111061500Y-35159950D02*
X111061500Y-28340050D01*
G75*
G02*
X111461550Y-27940000I400050J0D01*
G01*
X112261650Y-27940000D01*
G75*
G02*
X112661700Y-28340050I0J-400050D01*
G01*
X112661700Y-35159950D01*
G75*
G02*
X112261650Y-35560000I-400050J0D01*
G01*
X111461550Y-35560000D01*
G75*
G02*
X111061500Y-35159950I0J400050D01*
G01*
G37*
%TD.AperFunction*%
%TD*%
%TO.P,J140,1*%
%TO.N,Net-(J140-Pad1)*%
%TA.AperFunction,ConnectorPad*%
G36*
G01*
X115023900Y-35159950D02*
X115023900Y-28340050D01*
G75*
G02*
X115423950Y-27940000I400050J0D01*
G01*
X116224050Y-27940000D01*
G75*
G02*
X116624100Y-28340050I0J-400050D01*
G01*
X116624100Y-35159950D01*
G75*
G02*
X116224050Y-35560000I-400050J0D01*
G01*
X115423950Y-35560000D01*
G75*
G02*
X115023900Y-35159950I0J400050D01*
G01*
G37*
%TD.AperFunction*%
%TD*%
%TO.P,J141,1*%
%TO.N,Net-(J141-Pad1)*%
%TA.AperFunction,ConnectorPad*%
G36*
G01*
X118986300Y-35159950D02*
X118986300Y-28340050D01*
G75*
G02*
X119386350Y-27940000I400050J0D01*
G01*
X120186450Y-27940000D01*
G75*
G02*
X120586500Y-28340050I0J-400050D01*
G01*
X120586500Y-35159950D01*
G75*
G02*
X120186450Y-35560000I-400050J0D01*
G01*
X119386350Y-35560000D01*
G75*
G02*
X118986300Y-35159950I0J400050D01*
G01*
G37*
%TD.AperFunction*%
%TD*%
%TO.P,J142,1*%
%TO.N,Net-(J142-Pad1)*%
%TA.AperFunction,ConnectorPad*%
G36*
G01*
X122948700Y-35159950D02*
X122948700Y-28340050D01*
G75*
G02*
X123348750Y-27940000I400050J0D01*
G01*
X124148850Y-27940000D01*
G75*
G02*
X124548900Y-28340050I0J-400050D01*
G01*
X124548900Y-35159950D01*
G75*
G02*
X124148850Y-35560000I-400050J0D01*
G01*
X123348750Y-35560000D01*
G75*
G02*
X122948700Y-35159950I0J400050D01*
G01*
G37*
%TD.AperFunction*%
%TD*%
%TO.P,J143,1*%
%TO.N,Net-(J143-Pad1)*%
%TA.AperFunction,ConnectorPad*%
G36*
G01*
X126911100Y-35159950D02*
X126911100Y-28340050D01*
G75*
G02*
X127311150Y-27940000I400050J0D01*
G01*
X128111250Y-27940000D01*
G75*
G02*
X128511300Y-28340050I0J-400050D01*
G01*
X128511300Y-35159950D01*
G75*
G02*
X128111250Y-35560000I-400050J0D01*
G01*
X127311150Y-35560000D01*
G75*
G02*
X126911100Y-35159950I0J400050D01*
G01*
G37*
%TD.AperFunction*%
%TD*%
%TO.P,J144,1*%
%TO.N,Net-(J144-Pad1)*%
%TA.AperFunction,ConnectorPad*%
G36*
G01*
X130873500Y-35159950D02*
X130873500Y-28340050D01*
G75*
G02*
X131273550Y-27940000I400050J0D01*
G01*
X132073650Y-27940000D01*
G75*
G02*
X132473700Y-28340050I0J-400050D01*
G01*
X132473700Y-35159950D01*
G75*
G02*
X132073650Y-35560000I-400050J0D01*
G01*
X131273550Y-35560000D01*
G75*
G02*
X130873500Y-35159950I0J400050D01*
G01*
G37*
%TD.AperFunction*%
%TD*%
%TO.P,J145,1*%
%TO.N,Net-(J145-Pad1)*%
%TA.AperFunction,ConnectorPad*%
G36*
G01*
X134835900Y-35159950D02*
X134835900Y-28340050D01*
G75*
G02*
X135235950Y-27940000I400050J0D01*
G01*
X136036050Y-27940000D01*
G75*
G02*
X136436100Y-28340050I0J-400050D01*
G01*
X136436100Y-35159950D01*
G75*
G02*
X136036050Y-35560000I-400050J0D01*
G01*
X135235950Y-35560000D01*
G75*
G02*
X134835900Y-35159950I0J400050D01*
G01*
G37*
%TD.AperFunction*%
%TD*%
%TO.P,J146,1*%
%TO.N,Net-(J146-Pad1)*%
%TA.AperFunction,ConnectorPad*%
G36*
G01*
X138798300Y-35159950D02*
X138798300Y-28340050D01*
G75*
G02*
X139198350Y-27940000I400050J0D01*
G01*
X139998450Y-27940000D01*
G75*
G02*
X140398500Y-28340050I0J-400050D01*
G01*
X140398500Y-35159950D01*
G75*
G02*
X139998450Y-35560000I-400050J0D01*
G01*
X139198350Y-35560000D01*
G75*
G02*
X138798300Y-35159950I0J400050D01*
G01*
G37*
%TD.AperFunction*%
%TD*%
%TO.P,J147,1*%
%TO.N,Net-(J147-Pad1)*%
%TA.AperFunction,ConnectorPad*%
G36*
G01*
X142760700Y-35159950D02*
X142760700Y-28340050D01*
G75*
G02*
X143160750Y-27940000I400050J0D01*
G01*
X143960850Y-27940000D01*
G75*
G02*
X144360900Y-28340050I0J-400050D01*
G01*
X144360900Y-35159950D01*
G75*
G02*
X143960850Y-35560000I-400050J0D01*
G01*
X143160750Y-35560000D01*
G75*
G02*
X142760700Y-35159950I0J400050D01*
G01*
G37*
%TD.AperFunction*%
%TD*%
%TO.P,J148,1*%
%TO.N,Net-(J148-Pad1)*%
%TA.AperFunction,ConnectorPad*%
G36*
G01*
X146723100Y-35159950D02*
X146723100Y-28340050D01*
G75*
G02*
X147123150Y-27940000I400050J0D01*
G01*
X147923250Y-27940000D01*
G75*
G02*
X148323300Y-28340050I0J-400050D01*
G01*
X148323300Y-35159950D01*
G75*
G02*
X147923250Y-35560000I-400050J0D01*
G01*
X147123150Y-35560000D01*
G75*
G02*
X146723100Y-35159950I0J400050D01*
G01*
G37*
%TD.AperFunction*%
%TD*%
%TO.P,J149,1*%
%TO.N,Net-(J149-Pad1)*%
%TA.AperFunction,ConnectorPad*%
G36*
G01*
X150685500Y-35159950D02*
X150685500Y-28340050D01*
G75*
G02*
X151085550Y-27940000I400050J0D01*
G01*
X151885650Y-27940000D01*
G75*
G02*
X152285700Y-28340050I0J-400050D01*
G01*
X152285700Y-35159950D01*
G75*
G02*
X151885650Y-35560000I-400050J0D01*
G01*
X151085550Y-35560000D01*
G75*
G02*
X150685500Y-35159950I0J400050D01*
G01*
G37*
%TD.AperFunction*%
%TD*%
%TO.P,J150,1*%
%TO.N,Net-(J150-Pad1)*%
%TA.AperFunction,ConnectorPad*%
G36*
G01*
X154647900Y-35159950D02*
X154647900Y-28340050D01*
G75*
G02*
X155047950Y-27940000I400050J0D01*
G01*
X155848050Y-27940000D01*
G75*
G02*
X156248100Y-28340050I0J-400050D01*
G01*
X156248100Y-35159950D01*
G75*
G02*
X155848050Y-35560000I-400050J0D01*
G01*
X155047950Y-35560000D01*
G75*
G02*
X154647900Y-35159950I0J400050D01*
G01*
G37*
%TD.AperFunction*%
%TD*%
%TO.P,J151,1*%
%TO.N,Net-(J151-Pad1)*%
%TA.AperFunction,ConnectorPad*%
G36*
G01*
X158610300Y-35159950D02*
X158610300Y-28340050D01*
G75*
G02*
X159010350Y-27940000I400050J0D01*
G01*
X159810450Y-27940000D01*
G75*
G02*
X160210500Y-28340050I0J-400050D01*
G01*
X160210500Y-35159950D01*
G75*
G02*
X159810450Y-35560000I-400050J0D01*
G01*
X159010350Y-35560000D01*
G75*
G02*
X158610300Y-35159950I0J400050D01*
G01*
G37*
%TD.AperFunction*%
%TD*%
%TO.P,J152,1*%
%TO.N,Net-(J152-Pad1)*%
%TA.AperFunction,ConnectorPad*%
G36*
G01*
X162572700Y-35159950D02*
X162572700Y-28340050D01*
G75*
G02*
X162972750Y-27940000I400050J0D01*
G01*
X163772850Y-27940000D01*
G75*
G02*
X164172900Y-28340050I0J-400050D01*
G01*
X164172900Y-35159950D01*
G75*
G02*
X163772850Y-35560000I-400050J0D01*
G01*
X162972750Y-35560000D01*
G75*
G02*
X162572700Y-35159950I0J400050D01*
G01*
G37*
%TD.AperFunction*%
%TD*%
%TO.P,J153,1*%
%TO.N,Net-(J153-Pad1)*%
%TA.AperFunction,ConnectorPad*%
G36*
G01*
X166535100Y-35159950D02*
X166535100Y-28340050D01*
G75*
G02*
X166935150Y-27940000I400050J0D01*
G01*
X167735250Y-27940000D01*
G75*
G02*
X168135300Y-28340050I0J-400050D01*
G01*
X168135300Y-35159950D01*
G75*
G02*
X167735250Y-35560000I-400050J0D01*
G01*
X166935150Y-35560000D01*
G75*
G02*
X166535100Y-35159950I0J400050D01*
G01*
G37*
%TD.AperFunction*%
%TD*%
%TO.P,J154,1*%
%TO.N,Net-(J154-Pad1)*%
%TA.AperFunction,ConnectorPad*%
G36*
G01*
X170497500Y-35159950D02*
X170497500Y-28340050D01*
G75*
G02*
X170897550Y-27940000I400050J0D01*
G01*
X171697650Y-27940000D01*
G75*
G02*
X172097700Y-28340050I0J-400050D01*
G01*
X172097700Y-35159950D01*
G75*
G02*
X171697650Y-35560000I-400050J0D01*
G01*
X170897550Y-35560000D01*
G75*
G02*
X170497500Y-35159950I0J400050D01*
G01*
G37*
%TD.AperFunction*%
%TD*%
%TO.P,J155,1*%
%TO.N,Net-(J155-Pad1)*%
%TA.AperFunction,ConnectorPad*%
G36*
G01*
X174459900Y-35159950D02*
X174459900Y-28340050D01*
G75*
G02*
X174859950Y-27940000I400050J0D01*
G01*
X175660050Y-27940000D01*
G75*
G02*
X176060100Y-28340050I0J-400050D01*
G01*
X176060100Y-35159950D01*
G75*
G02*
X175660050Y-35560000I-400050J0D01*
G01*
X174859950Y-35560000D01*
G75*
G02*
X174459900Y-35159950I0J400050D01*
G01*
G37*
%TD.AperFunction*%
%TD*%
%TO.P,J156,1*%
%TO.N,Net-(J156-Pad1)*%
%TA.AperFunction,ConnectorPad*%
G36*
G01*
X178422300Y-35159950D02*
X178422300Y-28340050D01*
G75*
G02*
X178822350Y-27940000I400050J0D01*
G01*
X179622450Y-27940000D01*
G75*
G02*
X180022500Y-28340050I0J-400050D01*
G01*
X180022500Y-35159950D01*
G75*
G02*
X179622450Y-35560000I-400050J0D01*
G01*
X178822350Y-35560000D01*
G75*
G02*
X178422300Y-35159950I0J400050D01*
G01*
G37*
%TD.AperFunction*%
%TD*%
%TO.P,J157,1*%
%TO.N,Net-(J157-Pad1)*%
%TA.AperFunction,ConnectorPad*%
G36*
G01*
X182384700Y-35159950D02*
X182384700Y-28340050D01*
G75*
G02*
X182784750Y-27940000I400050J0D01*
G01*
X183584850Y-27940000D01*
G75*
G02*
X183984900Y-28340050I0J-400050D01*
G01*
X183984900Y-35159950D01*
G75*
G02*
X183584850Y-35560000I-400050J0D01*
G01*
X182784750Y-35560000D01*
G75*
G02*
X182384700Y-35159950I0J400050D01*
G01*
G37*
%TD.AperFunction*%
%TD*%
%TO.P,J158,1*%
%TO.N,Net-(J158-Pad1)*%
%TA.AperFunction,ConnectorPad*%
G36*
G01*
X186347100Y-35159950D02*
X186347100Y-28340050D01*
G75*
G02*
X186747150Y-27940000I400050J0D01*
G01*
X187547250Y-27940000D01*
G75*
G02*
X187947300Y-28340050I0J-400050D01*
G01*
X187947300Y-35159950D01*
G75*
G02*
X187547250Y-35560000I-400050J0D01*
G01*
X186747150Y-35560000D01*
G75*
G02*
X186347100Y-35159950I0J400050D01*
G01*
G37*
%TD.AperFunction*%
%TD*%
%TO.P,J159,1*%
%TO.N,Net-(J159-Pad1)*%
%TA.AperFunction,ConnectorPad*%
G36*
G01*
X190309500Y-35159950D02*
X190309500Y-28340050D01*
G75*
G02*
X190709550Y-27940000I400050J0D01*
G01*
X191509650Y-27940000D01*
G75*
G02*
X191909700Y-28340050I0J-400050D01*
G01*
X191909700Y-35159950D01*
G75*
G02*
X191509650Y-35560000I-400050J0D01*
G01*
X190709550Y-35560000D01*
G75*
G02*
X190309500Y-35159950I0J400050D01*
G01*
G37*
%TD.AperFunction*%
%TD*%
%TO.P,J160,1*%
%TO.N,Net-(J160-Pad1)*%
%TA.AperFunction,ConnectorPad*%
G36*
G01*
X194271900Y-35159950D02*
X194271900Y-28340050D01*
G75*
G02*
X194671950Y-27940000I400050J0D01*
G01*
X195472050Y-27940000D01*
G75*
G02*
X195872100Y-28340050I0J-400050D01*
G01*
X195872100Y-35159950D01*
G75*
G02*
X195472050Y-35560000I-400050J0D01*
G01*
X194671950Y-35560000D01*
G75*
G02*
X194271900Y-35159950I0J400050D01*
G01*
G37*
%TD.AperFunction*%
%TD*%
%TO.P,J161,1*%
%TO.N,Net-(J161-Pad1)*%
%TA.AperFunction,ConnectorPad*%
G36*
G01*
X198234300Y-35159950D02*
X198234300Y-28340050D01*
G75*
G02*
X198634350Y-27940000I400050J0D01*
G01*
X199434450Y-27940000D01*
G75*
G02*
X199834500Y-28340050I0J-400050D01*
G01*
X199834500Y-35159950D01*
G75*
G02*
X199434450Y-35560000I-400050J0D01*
G01*
X198634350Y-35560000D01*
G75*
G02*
X198234300Y-35159950I0J400050D01*
G01*
G37*
%TD.AperFunction*%
%TD*%
%TO.P,J162,1*%
%TO.N,Net-(J162-Pad1)*%
%TA.AperFunction,ConnectorPad*%
G36*
G01*
X202196700Y-35159950D02*
X202196700Y-28340050D01*
G75*
G02*
X202596750Y-27940000I400050J0D01*
G01*
X203396850Y-27940000D01*
G75*
G02*
X203796900Y-28340050I0J-400050D01*
G01*
X203796900Y-35159950D01*
G75*
G02*
X203396850Y-35560000I-400050J0D01*
G01*
X202596750Y-35560000D01*
G75*
G02*
X202196700Y-35159950I0J400050D01*
G01*
G37*
%TD.AperFunction*%
%TD*%
%TO.P,J163,1*%
%TO.N,Net-(J163-Pad1)*%
%TA.AperFunction,ConnectorPad*%
G36*
G01*
X206159100Y-35159950D02*
X206159100Y-28340050D01*
G75*
G02*
X206559150Y-27940000I400050J0D01*
G01*
X207359250Y-27940000D01*
G75*
G02*
X207759300Y-28340050I0J-400050D01*
G01*
X207759300Y-35159950D01*
G75*
G02*
X207359250Y-35560000I-400050J0D01*
G01*
X206559150Y-35560000D01*
G75*
G02*
X206159100Y-35159950I0J400050D01*
G01*
G37*
%TD.AperFunction*%
%TD*%
%TO.P,J164,1*%
%TO.N,Net-(J164-Pad1)*%
%TA.AperFunction,ConnectorPad*%
G36*
G01*
X210121500Y-35159950D02*
X210121500Y-28340050D01*
G75*
G02*
X210521550Y-27940000I400050J0D01*
G01*
X211321650Y-27940000D01*
G75*
G02*
X211721700Y-28340050I0J-400050D01*
G01*
X211721700Y-35159950D01*
G75*
G02*
X211321650Y-35560000I-400050J0D01*
G01*
X210521550Y-35560000D01*
G75*
G02*
X210121500Y-35159950I0J400050D01*
G01*
G37*
%TD.AperFunction*%
%TD*%
%TO.P,J165,1*%
%TO.N,Net-(J165-Pad1)*%
%TA.AperFunction,ConnectorPad*%
G36*
G01*
X214083900Y-35159950D02*
X214083900Y-28340050D01*
G75*
G02*
X214483950Y-27940000I400050J0D01*
G01*
X215284050Y-27940000D01*
G75*
G02*
X215684100Y-28340050I0J-400050D01*
G01*
X215684100Y-35159950D01*
G75*
G02*
X215284050Y-35560000I-400050J0D01*
G01*
X214483950Y-35560000D01*
G75*
G02*
X214083900Y-35159950I0J400050D01*
G01*
G37*
%TD.AperFunction*%
%TD*%
%TO.P,J166,1*%
%TO.N,Net-(J166-Pad1)*%
%TA.AperFunction,ConnectorPad*%
G36*
G01*
X218046300Y-35159950D02*
X218046300Y-28340050D01*
G75*
G02*
X218446350Y-27940000I400050J0D01*
G01*
X219246450Y-27940000D01*
G75*
G02*
X219646500Y-28340050I0J-400050D01*
G01*
X219646500Y-35159950D01*
G75*
G02*
X219246450Y-35560000I-400050J0D01*
G01*
X218446350Y-35560000D01*
G75*
G02*
X218046300Y-35159950I0J400050D01*
G01*
G37*
%TD.AperFunction*%
%TD*%
%TO.P,J167,1*%
%TO.N,Net-(J167-Pad1)*%
%TA.AperFunction,ConnectorPad*%
G36*
G01*
X222008700Y-35159950D02*
X222008700Y-28340050D01*
G75*
G02*
X222408750Y-27940000I400050J0D01*
G01*
X223208850Y-27940000D01*
G75*
G02*
X223608900Y-28340050I0J-400050D01*
G01*
X223608900Y-35159950D01*
G75*
G02*
X223208850Y-35560000I-400050J0D01*
G01*
X222408750Y-35560000D01*
G75*
G02*
X222008700Y-35159950I0J400050D01*
G01*
G37*
%TD.AperFunction*%
%TD*%
%TO.P,J168,1*%
%TO.N,Net-(J168-Pad1)*%
%TA.AperFunction,ConnectorPad*%
G36*
G01*
X225971100Y-35159950D02*
X225971100Y-28340050D01*
G75*
G02*
X226371150Y-27940000I400050J0D01*
G01*
X227171250Y-27940000D01*
G75*
G02*
X227571300Y-28340050I0J-400050D01*
G01*
X227571300Y-35159950D01*
G75*
G02*
X227171250Y-35560000I-400050J0D01*
G01*
X226371150Y-35560000D01*
G75*
G02*
X225971100Y-35159950I0J400050D01*
G01*
G37*
%TD.AperFunction*%
%TD*%
%TO.P,J169,1*%
%TO.N,Net-(J169-Pad1)*%
%TA.AperFunction,ConnectorPad*%
G36*
G01*
X229933500Y-35159950D02*
X229933500Y-28340050D01*
G75*
G02*
X230333550Y-27940000I400050J0D01*
G01*
X231133650Y-27940000D01*
G75*
G02*
X231533700Y-28340050I0J-400050D01*
G01*
X231533700Y-35159950D01*
G75*
G02*
X231133650Y-35560000I-400050J0D01*
G01*
X230333550Y-35560000D01*
G75*
G02*
X229933500Y-35159950I0J400050D01*
G01*
G37*
%TD.AperFunction*%
%TD*%
%TO.P,J170,1*%
%TO.N,Net-(J170-Pad1)*%
%TA.AperFunction,ConnectorPad*%
G36*
G01*
X233895900Y-35159950D02*
X233895900Y-28340050D01*
G75*
G02*
X234295950Y-27940000I400050J0D01*
G01*
X235096050Y-27940000D01*
G75*
G02*
X235496100Y-28340050I0J-400050D01*
G01*
X235496100Y-35159950D01*
G75*
G02*
X235096050Y-35560000I-400050J0D01*
G01*
X234295950Y-35560000D01*
G75*
G02*
X233895900Y-35159950I0J400050D01*
G01*
G37*
%TD.AperFunction*%
%TD*%
%TO.P,J171,1*%
%TO.N,Net-(J171-Pad1)*%
%TA.AperFunction,ConnectorPad*%
G36*
G01*
X237858300Y-35159950D02*
X237858300Y-28340050D01*
G75*
G02*
X238258350Y-27940000I400050J0D01*
G01*
X239058450Y-27940000D01*
G75*
G02*
X239458500Y-28340050I0J-400050D01*
G01*
X239458500Y-35159950D01*
G75*
G02*
X239058450Y-35560000I-400050J0D01*
G01*
X238258350Y-35560000D01*
G75*
G02*
X237858300Y-35159950I0J400050D01*
G01*
G37*
%TD.AperFunction*%
%TD*%
%TO.P,J172,1*%
%TO.N,Net-(J172-Pad1)*%
%TA.AperFunction,ConnectorPad*%
G36*
G01*
X241820700Y-35159950D02*
X241820700Y-28340050D01*
G75*
G02*
X242220750Y-27940000I400050J0D01*
G01*
X243020850Y-27940000D01*
G75*
G02*
X243420900Y-28340050I0J-400050D01*
G01*
X243420900Y-35159950D01*
G75*
G02*
X243020850Y-35560000I-400050J0D01*
G01*
X242220750Y-35560000D01*
G75*
G02*
X241820700Y-35159950I0J400050D01*
G01*
G37*
%TD.AperFunction*%
%TD*%
%TO.P,J265,1*%
%TO.N,Net-(J203-Pad1)*%
%TA.AperFunction,ConnectorPad*%
G36*
G01*
X275018500Y-35274250D02*
X275018500Y-28225750D01*
G75*
G02*
X275304250Y-27940000I285750J0D01*
G01*
X275875750Y-27940000D01*
G75*
G02*
X276161500Y-28225750I0J-285750D01*
G01*
X276161500Y-35274250D01*
G75*
G02*
X275875750Y-35560000I-285750J0D01*
G01*
X275304250Y-35560000D01*
G75*
G02*
X275018500Y-35274250I0J285750D01*
G01*
G37*
%TD.AperFunction*%
%TD*%
%TO.P,J266,1*%
%TO.N,Net-(J204-Pad1)*%
%TA.AperFunction,ConnectorPad*%
G36*
G01*
X277558500Y-35274250D02*
X277558500Y-28225750D01*
G75*
G02*
X277844250Y-27940000I285750J0D01*
G01*
X278415750Y-27940000D01*
G75*
G02*
X278701500Y-28225750I0J-285750D01*
G01*
X278701500Y-35274250D01*
G75*
G02*
X278415750Y-35560000I-285750J0D01*
G01*
X277844250Y-35560000D01*
G75*
G02*
X277558500Y-35274250I0J285750D01*
G01*
G37*
%TD.AperFunction*%
%TD*%
%TO.P,J267,1*%
%TO.N,Net-(J205-Pad1)*%
%TA.AperFunction,ConnectorPad*%
G36*
G01*
X280098500Y-35274250D02*
X280098500Y-28225750D01*
G75*
G02*
X280384250Y-27940000I285750J0D01*
G01*
X280955750Y-27940000D01*
G75*
G02*
X281241500Y-28225750I0J-285750D01*
G01*
X281241500Y-35274250D01*
G75*
G02*
X280955750Y-35560000I-285750J0D01*
G01*
X280384250Y-35560000D01*
G75*
G02*
X280098500Y-35274250I0J285750D01*
G01*
G37*
%TD.AperFunction*%
%TD*%
%TO.P,J268,1*%
%TO.N,Net-(J206-Pad1)*%
%TA.AperFunction,ConnectorPad*%
G36*
G01*
X282638500Y-35274250D02*
X282638500Y-28225750D01*
G75*
G02*
X282924250Y-27940000I285750J0D01*
G01*
X283495750Y-27940000D01*
G75*
G02*
X283781500Y-28225750I0J-285750D01*
G01*
X283781500Y-35274250D01*
G75*
G02*
X283495750Y-35560000I-285750J0D01*
G01*
X282924250Y-35560000D01*
G75*
G02*
X282638500Y-35274250I0J285750D01*
G01*
G37*
%TD.AperFunction*%
%TD*%
%TO.P,J269,1*%
%TO.N,Net-(J207-Pad1)*%
%TA.AperFunction,ConnectorPad*%
G36*
G01*
X285178500Y-35274250D02*
X285178500Y-28225750D01*
G75*
G02*
X285464250Y-27940000I285750J0D01*
G01*
X286035750Y-27940000D01*
G75*
G02*
X286321500Y-28225750I0J-285750D01*
G01*
X286321500Y-35274250D01*
G75*
G02*
X286035750Y-35560000I-285750J0D01*
G01*
X285464250Y-35560000D01*
G75*
G02*
X285178500Y-35274250I0J285750D01*
G01*
G37*
%TD.AperFunction*%
%TD*%
%TO.P,J270,1*%
%TO.N,Net-(J208-Pad1)*%
%TA.AperFunction,ConnectorPad*%
G36*
G01*
X287718500Y-35274250D02*
X287718500Y-28225750D01*
G75*
G02*
X288004250Y-27940000I285750J0D01*
G01*
X288575750Y-27940000D01*
G75*
G02*
X288861500Y-28225750I0J-285750D01*
G01*
X288861500Y-35274250D01*
G75*
G02*
X288575750Y-35560000I-285750J0D01*
G01*
X288004250Y-35560000D01*
G75*
G02*
X287718500Y-35274250I0J285750D01*
G01*
G37*
%TD.AperFunction*%
%TD*%
%TO.P,J271,1*%
%TO.N,Net-(J209-Pad1)*%
%TA.AperFunction,ConnectorPad*%
G36*
G01*
X290258500Y-35274250D02*
X290258500Y-28225750D01*
G75*
G02*
X290544250Y-27940000I285750J0D01*
G01*
X291115750Y-27940000D01*
G75*
G02*
X291401500Y-28225750I0J-285750D01*
G01*
X291401500Y-35274250D01*
G75*
G02*
X291115750Y-35560000I-285750J0D01*
G01*
X290544250Y-35560000D01*
G75*
G02*
X290258500Y-35274250I0J285750D01*
G01*
G37*
%TD.AperFunction*%
%TD*%
%TO.P,J272,1*%
%TO.N,Net-(J210-Pad1)*%
%TA.AperFunction,ConnectorPad*%
G36*
G01*
X292798500Y-35274250D02*
X292798500Y-28225750D01*
G75*
G02*
X293084250Y-27940000I285750J0D01*
G01*
X293655750Y-27940000D01*
G75*
G02*
X293941500Y-28225750I0J-285750D01*
G01*
X293941500Y-35274250D01*
G75*
G02*
X293655750Y-35560000I-285750J0D01*
G01*
X293084250Y-35560000D01*
G75*
G02*
X292798500Y-35274250I0J285750D01*
G01*
G37*
%TD.AperFunction*%
%TD*%
%TO.P,J273,1*%
%TO.N,Net-(J211-Pad1)*%
%TA.AperFunction,ConnectorPad*%
G36*
G01*
X295338500Y-35274250D02*
X295338500Y-28225750D01*
G75*
G02*
X295624250Y-27940000I285750J0D01*
G01*
X296195750Y-27940000D01*
G75*
G02*
X296481500Y-28225750I0J-285750D01*
G01*
X296481500Y-35274250D01*
G75*
G02*
X296195750Y-35560000I-285750J0D01*
G01*
X295624250Y-35560000D01*
G75*
G02*
X295338500Y-35274250I0J285750D01*
G01*
G37*
%TD.AperFunction*%
%TD*%
%TO.P,J274,1*%
%TO.N,Net-(J212-Pad1)*%
%TA.AperFunction,ConnectorPad*%
G36*
G01*
X297878500Y-35274250D02*
X297878500Y-28225750D01*
G75*
G02*
X298164250Y-27940000I285750J0D01*
G01*
X298735750Y-27940000D01*
G75*
G02*
X299021500Y-28225750I0J-285750D01*
G01*
X299021500Y-35274250D01*
G75*
G02*
X298735750Y-35560000I-285750J0D01*
G01*
X298164250Y-35560000D01*
G75*
G02*
X297878500Y-35274250I0J285750D01*
G01*
G37*
%TD.AperFunction*%
%TD*%
%TO.P,J275,1*%
%TO.N,Net-(J213-Pad1)*%
%TA.AperFunction,ConnectorPad*%
G36*
G01*
X300418500Y-35274250D02*
X300418500Y-28225750D01*
G75*
G02*
X300704250Y-27940000I285750J0D01*
G01*
X301275750Y-27940000D01*
G75*
G02*
X301561500Y-28225750I0J-285750D01*
G01*
X301561500Y-35274250D01*
G75*
G02*
X301275750Y-35560000I-285750J0D01*
G01*
X300704250Y-35560000D01*
G75*
G02*
X300418500Y-35274250I0J285750D01*
G01*
G37*
%TD.AperFunction*%
%TD*%
%TO.P,J276,1*%
%TO.N,Net-(J214-Pad1)*%
%TA.AperFunction,ConnectorPad*%
G36*
G01*
X302958500Y-35274250D02*
X302958500Y-28225750D01*
G75*
G02*
X303244250Y-27940000I285750J0D01*
G01*
X303815750Y-27940000D01*
G75*
G02*
X304101500Y-28225750I0J-285750D01*
G01*
X304101500Y-35274250D01*
G75*
G02*
X303815750Y-35560000I-285750J0D01*
G01*
X303244250Y-35560000D01*
G75*
G02*
X302958500Y-35274250I0J285750D01*
G01*
G37*
%TD.AperFunction*%
%TD*%
%TO.P,J277,1*%
%TO.N,Net-(J215-Pad1)*%
%TA.AperFunction,ConnectorPad*%
G36*
G01*
X305498500Y-35274250D02*
X305498500Y-28225750D01*
G75*
G02*
X305784250Y-27940000I285750J0D01*
G01*
X306355750Y-27940000D01*
G75*
G02*
X306641500Y-28225750I0J-285750D01*
G01*
X306641500Y-35274250D01*
G75*
G02*
X306355750Y-35560000I-285750J0D01*
G01*
X305784250Y-35560000D01*
G75*
G02*
X305498500Y-35274250I0J285750D01*
G01*
G37*
%TD.AperFunction*%
%TD*%
%TO.P,J278,1*%
%TO.N,Net-(J216-Pad1)*%
%TA.AperFunction,ConnectorPad*%
G36*
G01*
X308038500Y-35274250D02*
X308038500Y-28225750D01*
G75*
G02*
X308324250Y-27940000I285750J0D01*
G01*
X308895750Y-27940000D01*
G75*
G02*
X309181500Y-28225750I0J-285750D01*
G01*
X309181500Y-35274250D01*
G75*
G02*
X308895750Y-35560000I-285750J0D01*
G01*
X308324250Y-35560000D01*
G75*
G02*
X308038500Y-35274250I0J285750D01*
G01*
G37*
%TD.AperFunction*%
%TD*%
%TO.P,J279,1*%
%TO.N,Net-(J217-Pad1)*%
%TA.AperFunction,ConnectorPad*%
G36*
G01*
X310578500Y-35274250D02*
X310578500Y-28225750D01*
G75*
G02*
X310864250Y-27940000I285750J0D01*
G01*
X311435750Y-27940000D01*
G75*
G02*
X311721500Y-28225750I0J-285750D01*
G01*
X311721500Y-35274250D01*
G75*
G02*
X311435750Y-35560000I-285750J0D01*
G01*
X310864250Y-35560000D01*
G75*
G02*
X310578500Y-35274250I0J285750D01*
G01*
G37*
%TD.AperFunction*%
%TD*%
%TO.P,J280,1*%
%TO.N,Net-(J218-Pad1)*%
%TA.AperFunction,ConnectorPad*%
G36*
G01*
X313118500Y-35274250D02*
X313118500Y-28225750D01*
G75*
G02*
X313404250Y-27940000I285750J0D01*
G01*
X313975750Y-27940000D01*
G75*
G02*
X314261500Y-28225750I0J-285750D01*
G01*
X314261500Y-35274250D01*
G75*
G02*
X313975750Y-35560000I-285750J0D01*
G01*
X313404250Y-35560000D01*
G75*
G02*
X313118500Y-35274250I0J285750D01*
G01*
G37*
%TD.AperFunction*%
%TD*%
%TO.P,J281,1*%
%TO.N,Net-(J219-Pad1)*%
%TA.AperFunction,ConnectorPad*%
G36*
G01*
X315658500Y-35274250D02*
X315658500Y-28225750D01*
G75*
G02*
X315944250Y-27940000I285750J0D01*
G01*
X316515750Y-27940000D01*
G75*
G02*
X316801500Y-28225750I0J-285750D01*
G01*
X316801500Y-35274250D01*
G75*
G02*
X316515750Y-35560000I-285750J0D01*
G01*
X315944250Y-35560000D01*
G75*
G02*
X315658500Y-35274250I0J285750D01*
G01*
G37*
%TD.AperFunction*%
%TD*%
%TO.P,J282,1*%
%TO.N,Net-(J220-Pad1)*%
%TA.AperFunction,ConnectorPad*%
G36*
G01*
X318198500Y-35274250D02*
X318198500Y-28225750D01*
G75*
G02*
X318484250Y-27940000I285750J0D01*
G01*
X319055750Y-27940000D01*
G75*
G02*
X319341500Y-28225750I0J-285750D01*
G01*
X319341500Y-35274250D01*
G75*
G02*
X319055750Y-35560000I-285750J0D01*
G01*
X318484250Y-35560000D01*
G75*
G02*
X318198500Y-35274250I0J285750D01*
G01*
G37*
%TD.AperFunction*%
%TD*%
%TO.P,J283,1*%
%TO.N,Net-(J221-Pad1)*%
%TA.AperFunction,ConnectorPad*%
G36*
G01*
X320738500Y-35274250D02*
X320738500Y-28225750D01*
G75*
G02*
X321024250Y-27940000I285750J0D01*
G01*
X321595750Y-27940000D01*
G75*
G02*
X321881500Y-28225750I0J-285750D01*
G01*
X321881500Y-35274250D01*
G75*
G02*
X321595750Y-35560000I-285750J0D01*
G01*
X321024250Y-35560000D01*
G75*
G02*
X320738500Y-35274250I0J285750D01*
G01*
G37*
%TD.AperFunction*%
%TD*%
%TO.P,J284,1*%
%TO.N,Net-(J222-Pad1)*%
%TA.AperFunction,ConnectorPad*%
G36*
G01*
X323278500Y-35274250D02*
X323278500Y-28225750D01*
G75*
G02*
X323564250Y-27940000I285750J0D01*
G01*
X324135750Y-27940000D01*
G75*
G02*
X324421500Y-28225750I0J-285750D01*
G01*
X324421500Y-35274250D01*
G75*
G02*
X324135750Y-35560000I-285750J0D01*
G01*
X323564250Y-35560000D01*
G75*
G02*
X323278500Y-35274250I0J285750D01*
G01*
G37*
%TD.AperFunction*%
%TD*%
%TO.P,J285,1*%
%TO.N,Net-(J223-Pad1)*%
%TA.AperFunction,ConnectorPad*%
G36*
G01*
X325818500Y-35274250D02*
X325818500Y-28225750D01*
G75*
G02*
X326104250Y-27940000I285750J0D01*
G01*
X326675750Y-27940000D01*
G75*
G02*
X326961500Y-28225750I0J-285750D01*
G01*
X326961500Y-35274250D01*
G75*
G02*
X326675750Y-35560000I-285750J0D01*
G01*
X326104250Y-35560000D01*
G75*
G02*
X325818500Y-35274250I0J285750D01*
G01*
G37*
%TD.AperFunction*%
%TD*%
%TO.P,J286,1*%
%TO.N,Net-(J224-Pad1)*%
%TA.AperFunction,ConnectorPad*%
G36*
G01*
X328358500Y-35274250D02*
X328358500Y-28225750D01*
G75*
G02*
X328644250Y-27940000I285750J0D01*
G01*
X329215750Y-27940000D01*
G75*
G02*
X329501500Y-28225750I0J-285750D01*
G01*
X329501500Y-35274250D01*
G75*
G02*
X329215750Y-35560000I-285750J0D01*
G01*
X328644250Y-35560000D01*
G75*
G02*
X328358500Y-35274250I0J285750D01*
G01*
G37*
%TD.AperFunction*%
%TD*%
%TO.P,J287,1*%
%TO.N,Net-(J225-Pad1)*%
%TA.AperFunction,ConnectorPad*%
G36*
G01*
X330898500Y-35274250D02*
X330898500Y-28225750D01*
G75*
G02*
X331184250Y-27940000I285750J0D01*
G01*
X331755750Y-27940000D01*
G75*
G02*
X332041500Y-28225750I0J-285750D01*
G01*
X332041500Y-35274250D01*
G75*
G02*
X331755750Y-35560000I-285750J0D01*
G01*
X331184250Y-35560000D01*
G75*
G02*
X330898500Y-35274250I0J285750D01*
G01*
G37*
%TD.AperFunction*%
%TD*%
%TO.P,J288,1*%
%TO.N,Net-(J226-Pad1)*%
%TA.AperFunction,ConnectorPad*%
G36*
G01*
X333438500Y-35274250D02*
X333438500Y-28225750D01*
G75*
G02*
X333724250Y-27940000I285750J0D01*
G01*
X334295750Y-27940000D01*
G75*
G02*
X334581500Y-28225750I0J-285750D01*
G01*
X334581500Y-35274250D01*
G75*
G02*
X334295750Y-35560000I-285750J0D01*
G01*
X333724250Y-35560000D01*
G75*
G02*
X333438500Y-35274250I0J285750D01*
G01*
G37*
%TD.AperFunction*%
%TD*%
%TO.P,J289,1*%
%TO.N,Net-(J227-Pad1)*%
%TA.AperFunction,ConnectorPad*%
G36*
G01*
X335978500Y-35274250D02*
X335978500Y-28225750D01*
G75*
G02*
X336264250Y-27940000I285750J0D01*
G01*
X336835750Y-27940000D01*
G75*
G02*
X337121500Y-28225750I0J-285750D01*
G01*
X337121500Y-35274250D01*
G75*
G02*
X336835750Y-35560000I-285750J0D01*
G01*
X336264250Y-35560000D01*
G75*
G02*
X335978500Y-35274250I0J285750D01*
G01*
G37*
%TD.AperFunction*%
%TD*%
%TO.P,J290,1*%
%TO.N,Net-(J228-Pad1)*%
%TA.AperFunction,ConnectorPad*%
G36*
G01*
X338518500Y-35274250D02*
X338518500Y-28225750D01*
G75*
G02*
X338804250Y-27940000I285750J0D01*
G01*
X339375750Y-27940000D01*
G75*
G02*
X339661500Y-28225750I0J-285750D01*
G01*
X339661500Y-35274250D01*
G75*
G02*
X339375750Y-35560000I-285750J0D01*
G01*
X338804250Y-35560000D01*
G75*
G02*
X338518500Y-35274250I0J285750D01*
G01*
G37*
%TD.AperFunction*%
%TD*%
%TO.P,J291,1*%
%TO.N,Net-(J229-Pad1)*%
%TA.AperFunction,ConnectorPad*%
G36*
G01*
X341058500Y-35274250D02*
X341058500Y-28225750D01*
G75*
G02*
X341344250Y-27940000I285750J0D01*
G01*
X341915750Y-27940000D01*
G75*
G02*
X342201500Y-28225750I0J-285750D01*
G01*
X342201500Y-35274250D01*
G75*
G02*
X341915750Y-35560000I-285750J0D01*
G01*
X341344250Y-35560000D01*
G75*
G02*
X341058500Y-35274250I0J285750D01*
G01*
G37*
%TD.AperFunction*%
%TD*%
%TO.P,J292,1*%
%TO.N,Net-(J230-Pad1)*%
%TA.AperFunction,ConnectorPad*%
G36*
G01*
X343598500Y-35274250D02*
X343598500Y-28225750D01*
G75*
G02*
X343884250Y-27940000I285750J0D01*
G01*
X344455750Y-27940000D01*
G75*
G02*
X344741500Y-28225750I0J-285750D01*
G01*
X344741500Y-35274250D01*
G75*
G02*
X344455750Y-35560000I-285750J0D01*
G01*
X343884250Y-35560000D01*
G75*
G02*
X343598500Y-35274250I0J285750D01*
G01*
G37*
%TD.AperFunction*%
%TD*%
%TO.P,J293,1*%
%TO.N,Net-(J231-Pad1)*%
%TA.AperFunction,ConnectorPad*%
G36*
G01*
X346138500Y-35274250D02*
X346138500Y-28225750D01*
G75*
G02*
X346424250Y-27940000I285750J0D01*
G01*
X346995750Y-27940000D01*
G75*
G02*
X347281500Y-28225750I0J-285750D01*
G01*
X347281500Y-35274250D01*
G75*
G02*
X346995750Y-35560000I-285750J0D01*
G01*
X346424250Y-35560000D01*
G75*
G02*
X346138500Y-35274250I0J285750D01*
G01*
G37*
%TD.AperFunction*%
%TD*%
%TO.P,J294,1*%
%TO.N,Net-(J232-Pad1)*%
%TA.AperFunction,ConnectorPad*%
G36*
G01*
X348678500Y-35274250D02*
X348678500Y-28225750D01*
G75*
G02*
X348964250Y-27940000I285750J0D01*
G01*
X349535750Y-27940000D01*
G75*
G02*
X349821500Y-28225750I0J-285750D01*
G01*
X349821500Y-35274250D01*
G75*
G02*
X349535750Y-35560000I-285750J0D01*
G01*
X348964250Y-35560000D01*
G75*
G02*
X348678500Y-35274250I0J285750D01*
G01*
G37*
%TD.AperFunction*%
%TD*%
%TO.P,P1_2,1*%
%TO.N,Net-(J130-Pad1)*%
%TA.AperFunction,ConnectorPad*%
G36*
G01*
X75399900Y-240899950D02*
X75399900Y-234080050D01*
G75*
G02*
X75799950Y-233680000I400050J0D01*
G01*
X76600050Y-233680000D01*
G75*
G02*
X77000100Y-234080050I0J-400050D01*
G01*
X77000100Y-240899950D01*
G75*
G02*
X76600050Y-241300000I-400050J0D01*
G01*
X75799950Y-241300000D01*
G75*
G02*
X75399900Y-240899950I0J400050D01*
G01*
G37*
%TD.AperFunction*%
%TD*%
%TO.P,P1_4,1*%
%TO.N,Net-(J131-Pad1)*%
%TA.AperFunction,ConnectorPad*%
G36*
G01*
X79362300Y-240899950D02*
X79362300Y-234080050D01*
G75*
G02*
X79762350Y-233680000I400050J0D01*
G01*
X80562450Y-233680000D01*
G75*
G02*
X80962500Y-234080050I0J-400050D01*
G01*
X80962500Y-240899950D01*
G75*
G02*
X80562450Y-241300000I-400050J0D01*
G01*
X79762350Y-241300000D01*
G75*
G02*
X79362300Y-240899950I0J400050D01*
G01*
G37*
%TD.AperFunction*%
%TD*%
%TO.P,P1_6,1*%
%TO.N,Net-(J132-Pad1)*%
%TA.AperFunction,ConnectorPad*%
G36*
G01*
X83324700Y-240899950D02*
X83324700Y-234080050D01*
G75*
G02*
X83724750Y-233680000I400050J0D01*
G01*
X84524850Y-233680000D01*
G75*
G02*
X84924900Y-234080050I0J-400050D01*
G01*
X84924900Y-240899950D01*
G75*
G02*
X84524850Y-241300000I-400050J0D01*
G01*
X83724750Y-241300000D01*
G75*
G02*
X83324700Y-240899950I0J400050D01*
G01*
G37*
%TD.AperFunction*%
%TD*%
%TO.P,P1_8,1*%
%TO.N,Net-(J133-Pad1)*%
%TA.AperFunction,ConnectorPad*%
G36*
G01*
X87287100Y-240899950D02*
X87287100Y-234080050D01*
G75*
G02*
X87687150Y-233680000I400050J0D01*
G01*
X88487250Y-233680000D01*
G75*
G02*
X88887300Y-234080050I0J-400050D01*
G01*
X88887300Y-240899950D01*
G75*
G02*
X88487250Y-241300000I-400050J0D01*
G01*
X87687150Y-241300000D01*
G75*
G02*
X87287100Y-240899950I0J400050D01*
G01*
G37*
%TD.AperFunction*%
%TD*%
%TO.P,P1_10,1*%
%TO.N,Net-(J134-Pad1)*%
%TA.AperFunction,ConnectorPad*%
G36*
G01*
X91249500Y-240899950D02*
X91249500Y-234080050D01*
G75*
G02*
X91649550Y-233680000I400050J0D01*
G01*
X92449650Y-233680000D01*
G75*
G02*
X92849700Y-234080050I0J-400050D01*
G01*
X92849700Y-240899950D01*
G75*
G02*
X92449650Y-241300000I-400050J0D01*
G01*
X91649550Y-241300000D01*
G75*
G02*
X91249500Y-240899950I0J400050D01*
G01*
G37*
%TD.AperFunction*%
%TD*%
%TO.P,P1_12,1*%
%TO.N,Net-(J135-Pad1)*%
%TA.AperFunction,ConnectorPad*%
G36*
G01*
X95211900Y-240899950D02*
X95211900Y-234080050D01*
G75*
G02*
X95611950Y-233680000I400050J0D01*
G01*
X96412050Y-233680000D01*
G75*
G02*
X96812100Y-234080050I0J-400050D01*
G01*
X96812100Y-240899950D01*
G75*
G02*
X96412050Y-241300000I-400050J0D01*
G01*
X95611950Y-241300000D01*
G75*
G02*
X95211900Y-240899950I0J400050D01*
G01*
G37*
%TD.AperFunction*%
%TD*%
%TO.P,P1_14,1*%
%TO.N,Net-(J136-Pad1)*%
%TA.AperFunction,ConnectorPad*%
G36*
G01*
X99174300Y-240899950D02*
X99174300Y-234080050D01*
G75*
G02*
X99574350Y-233680000I400050J0D01*
G01*
X100374450Y-233680000D01*
G75*
G02*
X100774500Y-234080050I0J-400050D01*
G01*
X100774500Y-240899950D01*
G75*
G02*
X100374450Y-241300000I-400050J0D01*
G01*
X99574350Y-241300000D01*
G75*
G02*
X99174300Y-240899950I0J400050D01*
G01*
G37*
%TD.AperFunction*%
%TD*%
%TO.P,P1_16,1*%
%TO.N,Net-(J137-Pad1)*%
%TA.AperFunction,ConnectorPad*%
G36*
G01*
X103136700Y-240899950D02*
X103136700Y-234080050D01*
G75*
G02*
X103536750Y-233680000I400050J0D01*
G01*
X104336850Y-233680000D01*
G75*
G02*
X104736900Y-234080050I0J-400050D01*
G01*
X104736900Y-240899950D01*
G75*
G02*
X104336850Y-241300000I-400050J0D01*
G01*
X103536750Y-241300000D01*
G75*
G02*
X103136700Y-240899950I0J400050D01*
G01*
G37*
%TD.AperFunction*%
%TD*%
%TO.P,P1_18,1*%
%TO.N,Net-(J138-Pad1)*%
%TA.AperFunction,ConnectorPad*%
G36*
G01*
X107099100Y-240899950D02*
X107099100Y-234080050D01*
G75*
G02*
X107499150Y-233680000I400050J0D01*
G01*
X108299250Y-233680000D01*
G75*
G02*
X108699300Y-234080050I0J-400050D01*
G01*
X108699300Y-240899950D01*
G75*
G02*
X108299250Y-241300000I-400050J0D01*
G01*
X107499150Y-241300000D01*
G75*
G02*
X107099100Y-240899950I0J400050D01*
G01*
G37*
%TD.AperFunction*%
%TD*%
%TO.P,P1_20,1*%
%TO.N,Net-(J139-Pad1)*%
%TA.AperFunction,ConnectorPad*%
G36*
G01*
X111061500Y-240899950D02*
X111061500Y-234080050D01*
G75*
G02*
X111461550Y-233680000I400050J0D01*
G01*
X112261650Y-233680000D01*
G75*
G02*
X112661700Y-234080050I0J-400050D01*
G01*
X112661700Y-240899950D01*
G75*
G02*
X112261650Y-241300000I-400050J0D01*
G01*
X111461550Y-241300000D01*
G75*
G02*
X111061500Y-240899950I0J400050D01*
G01*
G37*
%TD.AperFunction*%
%TD*%
%TO.P,P1_22,1*%
%TO.N,Net-(J140-Pad1)*%
%TA.AperFunction,ConnectorPad*%
G36*
G01*
X115023900Y-240899950D02*
X115023900Y-234080050D01*
G75*
G02*
X115423950Y-233680000I400050J0D01*
G01*
X116224050Y-233680000D01*
G75*
G02*
X116624100Y-234080050I0J-400050D01*
G01*
X116624100Y-240899950D01*
G75*
G02*
X116224050Y-241300000I-400050J0D01*
G01*
X115423950Y-241300000D01*
G75*
G02*
X115023900Y-240899950I0J400050D01*
G01*
G37*
%TD.AperFunction*%
%TD*%
%TO.P,P1_24,1*%
%TO.N,Net-(J141-Pad1)*%
%TA.AperFunction,ConnectorPad*%
G36*
G01*
X118986300Y-240899950D02*
X118986300Y-234080050D01*
G75*
G02*
X119386350Y-233680000I400050J0D01*
G01*
X120186450Y-233680000D01*
G75*
G02*
X120586500Y-234080050I0J-400050D01*
G01*
X120586500Y-240899950D01*
G75*
G02*
X120186450Y-241300000I-400050J0D01*
G01*
X119386350Y-241300000D01*
G75*
G02*
X118986300Y-240899950I0J400050D01*
G01*
G37*
%TD.AperFunction*%
%TD*%
%TO.P,P1_26,1*%
%TO.N,Net-(J142-Pad1)*%
%TA.AperFunction,ConnectorPad*%
G36*
G01*
X122948700Y-240899950D02*
X122948700Y-234080050D01*
G75*
G02*
X123348750Y-233680000I400050J0D01*
G01*
X124148850Y-233680000D01*
G75*
G02*
X124548900Y-234080050I0J-400050D01*
G01*
X124548900Y-240899950D01*
G75*
G02*
X124148850Y-241300000I-400050J0D01*
G01*
X123348750Y-241300000D01*
G75*
G02*
X122948700Y-240899950I0J400050D01*
G01*
G37*
%TD.AperFunction*%
%TD*%
%TO.P,P1_28,1*%
%TO.N,Net-(J143-Pad1)*%
%TA.AperFunction,ConnectorPad*%
G36*
G01*
X126911100Y-240899950D02*
X126911100Y-234080050D01*
G75*
G02*
X127311150Y-233680000I400050J0D01*
G01*
X128111250Y-233680000D01*
G75*
G02*
X128511300Y-234080050I0J-400050D01*
G01*
X128511300Y-240899950D01*
G75*
G02*
X128111250Y-241300000I-400050J0D01*
G01*
X127311150Y-241300000D01*
G75*
G02*
X126911100Y-240899950I0J400050D01*
G01*
G37*
%TD.AperFunction*%
%TD*%
%TO.P,P1_30,1*%
%TO.N,Net-(J144-Pad1)*%
%TA.AperFunction,ConnectorPad*%
G36*
G01*
X130873500Y-240899950D02*
X130873500Y-234080050D01*
G75*
G02*
X131273550Y-233680000I400050J0D01*
G01*
X132073650Y-233680000D01*
G75*
G02*
X132473700Y-234080050I0J-400050D01*
G01*
X132473700Y-240899950D01*
G75*
G02*
X132073650Y-241300000I-400050J0D01*
G01*
X131273550Y-241300000D01*
G75*
G02*
X130873500Y-240899950I0J400050D01*
G01*
G37*
%TD.AperFunction*%
%TD*%
%TO.P,P1_32,1*%
%TO.N,Net-(J145-Pad1)*%
%TA.AperFunction,ConnectorPad*%
G36*
G01*
X134835900Y-240899950D02*
X134835900Y-234080050D01*
G75*
G02*
X135235950Y-233680000I400050J0D01*
G01*
X136036050Y-233680000D01*
G75*
G02*
X136436100Y-234080050I0J-400050D01*
G01*
X136436100Y-240899950D01*
G75*
G02*
X136036050Y-241300000I-400050J0D01*
G01*
X135235950Y-241300000D01*
G75*
G02*
X134835900Y-240899950I0J400050D01*
G01*
G37*
%TD.AperFunction*%
%TD*%
%TO.P,P1_34,1*%
%TO.N,Net-(J146-Pad1)*%
%TA.AperFunction,ConnectorPad*%
G36*
G01*
X138798300Y-240899950D02*
X138798300Y-234080050D01*
G75*
G02*
X139198350Y-233680000I400050J0D01*
G01*
X139998450Y-233680000D01*
G75*
G02*
X140398500Y-234080050I0J-400050D01*
G01*
X140398500Y-240899950D01*
G75*
G02*
X139998450Y-241300000I-400050J0D01*
G01*
X139198350Y-241300000D01*
G75*
G02*
X138798300Y-240899950I0J400050D01*
G01*
G37*
%TD.AperFunction*%
%TD*%
%TO.P,P1_36,1*%
%TO.N,Net-(J147-Pad1)*%
%TA.AperFunction,ConnectorPad*%
G36*
G01*
X142760700Y-240899950D02*
X142760700Y-234080050D01*
G75*
G02*
X143160750Y-233680000I400050J0D01*
G01*
X143960850Y-233680000D01*
G75*
G02*
X144360900Y-234080050I0J-400050D01*
G01*
X144360900Y-240899950D01*
G75*
G02*
X143960850Y-241300000I-400050J0D01*
G01*
X143160750Y-241300000D01*
G75*
G02*
X142760700Y-240899950I0J400050D01*
G01*
G37*
%TD.AperFunction*%
%TD*%
%TO.P,P1_38,1*%
%TO.N,Net-(J148-Pad1)*%
%TA.AperFunction,ConnectorPad*%
G36*
G01*
X146723100Y-240899950D02*
X146723100Y-234080050D01*
G75*
G02*
X147123150Y-233680000I400050J0D01*
G01*
X147923250Y-233680000D01*
G75*
G02*
X148323300Y-234080050I0J-400050D01*
G01*
X148323300Y-240899950D01*
G75*
G02*
X147923250Y-241300000I-400050J0D01*
G01*
X147123150Y-241300000D01*
G75*
G02*
X146723100Y-240899950I0J400050D01*
G01*
G37*
%TD.AperFunction*%
%TD*%
%TO.P,P1_40,1*%
%TO.N,Net-(J149-Pad1)*%
%TA.AperFunction,ConnectorPad*%
G36*
G01*
X150685500Y-240899950D02*
X150685500Y-234080050D01*
G75*
G02*
X151085550Y-233680000I400050J0D01*
G01*
X151885650Y-233680000D01*
G75*
G02*
X152285700Y-234080050I0J-400050D01*
G01*
X152285700Y-240899950D01*
G75*
G02*
X151885650Y-241300000I-400050J0D01*
G01*
X151085550Y-241300000D01*
G75*
G02*
X150685500Y-240899950I0J400050D01*
G01*
G37*
%TD.AperFunction*%
%TD*%
%TO.P,P1_42,1*%
%TO.N,Net-(J150-Pad1)*%
%TA.AperFunction,ConnectorPad*%
G36*
G01*
X154647900Y-240899950D02*
X154647900Y-234080050D01*
G75*
G02*
X155047950Y-233680000I400050J0D01*
G01*
X155848050Y-233680000D01*
G75*
G02*
X156248100Y-234080050I0J-400050D01*
G01*
X156248100Y-240899950D01*
G75*
G02*
X155848050Y-241300000I-400050J0D01*
G01*
X155047950Y-241300000D01*
G75*
G02*
X154647900Y-240899950I0J400050D01*
G01*
G37*
%TD.AperFunction*%
%TD*%
%TO.P,P1_44,1*%
%TO.N,Net-(J151-Pad1)*%
%TA.AperFunction,ConnectorPad*%
G36*
G01*
X158610300Y-240899950D02*
X158610300Y-234080050D01*
G75*
G02*
X159010350Y-233680000I400050J0D01*
G01*
X159810450Y-233680000D01*
G75*
G02*
X160210500Y-234080050I0J-400050D01*
G01*
X160210500Y-240899950D01*
G75*
G02*
X159810450Y-241300000I-400050J0D01*
G01*
X159010350Y-241300000D01*
G75*
G02*
X158610300Y-240899950I0J400050D01*
G01*
G37*
%TD.AperFunction*%
%TD*%
%TO.P,P1_46,1*%
%TO.N,Net-(J152-Pad1)*%
%TA.AperFunction,ConnectorPad*%
G36*
G01*
X162572700Y-240899950D02*
X162572700Y-234080050D01*
G75*
G02*
X162972750Y-233680000I400050J0D01*
G01*
X163772850Y-233680000D01*
G75*
G02*
X164172900Y-234080050I0J-400050D01*
G01*
X164172900Y-240899950D01*
G75*
G02*
X163772850Y-241300000I-400050J0D01*
G01*
X162972750Y-241300000D01*
G75*
G02*
X162572700Y-240899950I0J400050D01*
G01*
G37*
%TD.AperFunction*%
%TD*%
%TO.P,P1_48,1*%
%TO.N,Net-(J153-Pad1)*%
%TA.AperFunction,ConnectorPad*%
G36*
G01*
X166535100Y-240899950D02*
X166535100Y-234080050D01*
G75*
G02*
X166935150Y-233680000I400050J0D01*
G01*
X167735250Y-233680000D01*
G75*
G02*
X168135300Y-234080050I0J-400050D01*
G01*
X168135300Y-240899950D01*
G75*
G02*
X167735250Y-241300000I-400050J0D01*
G01*
X166935150Y-241300000D01*
G75*
G02*
X166535100Y-240899950I0J400050D01*
G01*
G37*
%TD.AperFunction*%
%TD*%
%TO.P,P1_50,1*%
%TO.N,Net-(J154-Pad1)*%
%TA.AperFunction,ConnectorPad*%
G36*
G01*
X170497500Y-240899950D02*
X170497500Y-234080050D01*
G75*
G02*
X170897550Y-233680000I400050J0D01*
G01*
X171697650Y-233680000D01*
G75*
G02*
X172097700Y-234080050I0J-400050D01*
G01*
X172097700Y-240899950D01*
G75*
G02*
X171697650Y-241300000I-400050J0D01*
G01*
X170897550Y-241300000D01*
G75*
G02*
X170497500Y-240899950I0J400050D01*
G01*
G37*
%TD.AperFunction*%
%TD*%
%TO.P,P1_52,1*%
%TO.N,Net-(J155-Pad1)*%
%TA.AperFunction,ConnectorPad*%
G36*
G01*
X174459900Y-240899950D02*
X174459900Y-234080050D01*
G75*
G02*
X174859950Y-233680000I400050J0D01*
G01*
X175660050Y-233680000D01*
G75*
G02*
X176060100Y-234080050I0J-400050D01*
G01*
X176060100Y-240899950D01*
G75*
G02*
X175660050Y-241300000I-400050J0D01*
G01*
X174859950Y-241300000D01*
G75*
G02*
X174459900Y-240899950I0J400050D01*
G01*
G37*
%TD.AperFunction*%
%TD*%
%TO.P,P1_54,1*%
%TO.N,Net-(J156-Pad1)*%
%TA.AperFunction,ConnectorPad*%
G36*
G01*
X178422300Y-240899950D02*
X178422300Y-234080050D01*
G75*
G02*
X178822350Y-233680000I400050J0D01*
G01*
X179622450Y-233680000D01*
G75*
G02*
X180022500Y-234080050I0J-400050D01*
G01*
X180022500Y-240899950D01*
G75*
G02*
X179622450Y-241300000I-400050J0D01*
G01*
X178822350Y-241300000D01*
G75*
G02*
X178422300Y-240899950I0J400050D01*
G01*
G37*
%TD.AperFunction*%
%TD*%
%TO.P,P1_56,1*%
%TO.N,Net-(J157-Pad1)*%
%TA.AperFunction,ConnectorPad*%
G36*
G01*
X182384700Y-240899950D02*
X182384700Y-234080050D01*
G75*
G02*
X182784750Y-233680000I400050J0D01*
G01*
X183584850Y-233680000D01*
G75*
G02*
X183984900Y-234080050I0J-400050D01*
G01*
X183984900Y-240899950D01*
G75*
G02*
X183584850Y-241300000I-400050J0D01*
G01*
X182784750Y-241300000D01*
G75*
G02*
X182384700Y-240899950I0J400050D01*
G01*
G37*
%TD.AperFunction*%
%TD*%
%TO.P,P1_58,1*%
%TO.N,Net-(J158-Pad1)*%
%TA.AperFunction,ConnectorPad*%
G36*
G01*
X186347100Y-240899950D02*
X186347100Y-234080050D01*
G75*
G02*
X186747150Y-233680000I400050J0D01*
G01*
X187547250Y-233680000D01*
G75*
G02*
X187947300Y-234080050I0J-400050D01*
G01*
X187947300Y-240899950D01*
G75*
G02*
X187547250Y-241300000I-400050J0D01*
G01*
X186747150Y-241300000D01*
G75*
G02*
X186347100Y-240899950I0J400050D01*
G01*
G37*
%TD.AperFunction*%
%TD*%
%TO.P,P1_60,1*%
%TO.N,Net-(J159-Pad1)*%
%TA.AperFunction,ConnectorPad*%
G36*
G01*
X190309500Y-240899950D02*
X190309500Y-234080050D01*
G75*
G02*
X190709550Y-233680000I400050J0D01*
G01*
X191509650Y-233680000D01*
G75*
G02*
X191909700Y-234080050I0J-400050D01*
G01*
X191909700Y-240899950D01*
G75*
G02*
X191509650Y-241300000I-400050J0D01*
G01*
X190709550Y-241300000D01*
G75*
G02*
X190309500Y-240899950I0J400050D01*
G01*
G37*
%TD.AperFunction*%
%TD*%
%TO.P,P1_62,1*%
%TO.N,Net-(J160-Pad1)*%
%TA.AperFunction,ConnectorPad*%
G36*
G01*
X194271900Y-240899950D02*
X194271900Y-234080050D01*
G75*
G02*
X194671950Y-233680000I400050J0D01*
G01*
X195472050Y-233680000D01*
G75*
G02*
X195872100Y-234080050I0J-400050D01*
G01*
X195872100Y-240899950D01*
G75*
G02*
X195472050Y-241300000I-400050J0D01*
G01*
X194671950Y-241300000D01*
G75*
G02*
X194271900Y-240899950I0J400050D01*
G01*
G37*
%TD.AperFunction*%
%TD*%
%TO.P,P1_64,1*%
%TO.N,Net-(J161-Pad1)*%
%TA.AperFunction,ConnectorPad*%
G36*
G01*
X198234300Y-240899950D02*
X198234300Y-234080050D01*
G75*
G02*
X198634350Y-233680000I400050J0D01*
G01*
X199434450Y-233680000D01*
G75*
G02*
X199834500Y-234080050I0J-400050D01*
G01*
X199834500Y-240899950D01*
G75*
G02*
X199434450Y-241300000I-400050J0D01*
G01*
X198634350Y-241300000D01*
G75*
G02*
X198234300Y-240899950I0J400050D01*
G01*
G37*
%TD.AperFunction*%
%TD*%
%TO.P,P1_66,1*%
%TO.N,Net-(J162-Pad1)*%
%TA.AperFunction,ConnectorPad*%
G36*
G01*
X202196700Y-240899950D02*
X202196700Y-234080050D01*
G75*
G02*
X202596750Y-233680000I400050J0D01*
G01*
X203396850Y-233680000D01*
G75*
G02*
X203796900Y-234080050I0J-400050D01*
G01*
X203796900Y-240899950D01*
G75*
G02*
X203396850Y-241300000I-400050J0D01*
G01*
X202596750Y-241300000D01*
G75*
G02*
X202196700Y-240899950I0J400050D01*
G01*
G37*
%TD.AperFunction*%
%TD*%
%TO.P,P1_68,1*%
%TO.N,Net-(J163-Pad1)*%
%TA.AperFunction,ConnectorPad*%
G36*
G01*
X206159100Y-240899950D02*
X206159100Y-234080050D01*
G75*
G02*
X206559150Y-233680000I400050J0D01*
G01*
X207359250Y-233680000D01*
G75*
G02*
X207759300Y-234080050I0J-400050D01*
G01*
X207759300Y-240899950D01*
G75*
G02*
X207359250Y-241300000I-400050J0D01*
G01*
X206559150Y-241300000D01*
G75*
G02*
X206159100Y-240899950I0J400050D01*
G01*
G37*
%TD.AperFunction*%
%TD*%
%TO.P,P1_70,1*%
%TO.N,Net-(J164-Pad1)*%
%TA.AperFunction,ConnectorPad*%
G36*
G01*
X210121500Y-240899950D02*
X210121500Y-234080050D01*
G75*
G02*
X210521550Y-233680000I400050J0D01*
G01*
X211321650Y-233680000D01*
G75*
G02*
X211721700Y-234080050I0J-400050D01*
G01*
X211721700Y-240899950D01*
G75*
G02*
X211321650Y-241300000I-400050J0D01*
G01*
X210521550Y-241300000D01*
G75*
G02*
X210121500Y-240899950I0J400050D01*
G01*
G37*
%TD.AperFunction*%
%TD*%
%TO.P,P1_72,1*%
%TO.N,Net-(J165-Pad1)*%
%TA.AperFunction,ConnectorPad*%
G36*
G01*
X214083900Y-240899950D02*
X214083900Y-234080050D01*
G75*
G02*
X214483950Y-233680000I400050J0D01*
G01*
X215284050Y-233680000D01*
G75*
G02*
X215684100Y-234080050I0J-400050D01*
G01*
X215684100Y-240899950D01*
G75*
G02*
X215284050Y-241300000I-400050J0D01*
G01*
X214483950Y-241300000D01*
G75*
G02*
X214083900Y-240899950I0J400050D01*
G01*
G37*
%TD.AperFunction*%
%TD*%
%TO.P,P1_74,1*%
%TO.N,Net-(J166-Pad1)*%
%TA.AperFunction,ConnectorPad*%
G36*
G01*
X218046300Y-240899950D02*
X218046300Y-234080050D01*
G75*
G02*
X218446350Y-233680000I400050J0D01*
G01*
X219246450Y-233680000D01*
G75*
G02*
X219646500Y-234080050I0J-400050D01*
G01*
X219646500Y-240899950D01*
G75*
G02*
X219246450Y-241300000I-400050J0D01*
G01*
X218446350Y-241300000D01*
G75*
G02*
X218046300Y-240899950I0J400050D01*
G01*
G37*
%TD.AperFunction*%
%TD*%
%TO.P,P1_76,1*%
%TO.N,Net-(J167-Pad1)*%
%TA.AperFunction,ConnectorPad*%
G36*
G01*
X222008700Y-240899950D02*
X222008700Y-234080050D01*
G75*
G02*
X222408750Y-233680000I400050J0D01*
G01*
X223208850Y-233680000D01*
G75*
G02*
X223608900Y-234080050I0J-400050D01*
G01*
X223608900Y-240899950D01*
G75*
G02*
X223208850Y-241300000I-400050J0D01*
G01*
X222408750Y-241300000D01*
G75*
G02*
X222008700Y-240899950I0J400050D01*
G01*
G37*
%TD.AperFunction*%
%TD*%
%TO.P,P1_78,1*%
%TO.N,Net-(J168-Pad1)*%
%TA.AperFunction,ConnectorPad*%
G36*
G01*
X225971100Y-240899950D02*
X225971100Y-234080050D01*
G75*
G02*
X226371150Y-233680000I400050J0D01*
G01*
X227171250Y-233680000D01*
G75*
G02*
X227571300Y-234080050I0J-400050D01*
G01*
X227571300Y-240899950D01*
G75*
G02*
X227171250Y-241300000I-400050J0D01*
G01*
X226371150Y-241300000D01*
G75*
G02*
X225971100Y-240899950I0J400050D01*
G01*
G37*
%TD.AperFunction*%
%TD*%
%TO.P,P1_80,1*%
%TO.N,Net-(J169-Pad1)*%
%TA.AperFunction,ConnectorPad*%
G36*
G01*
X229933500Y-240899950D02*
X229933500Y-234080050D01*
G75*
G02*
X230333550Y-233680000I400050J0D01*
G01*
X231133650Y-233680000D01*
G75*
G02*
X231533700Y-234080050I0J-400050D01*
G01*
X231533700Y-240899950D01*
G75*
G02*
X231133650Y-241300000I-400050J0D01*
G01*
X230333550Y-241300000D01*
G75*
G02*
X229933500Y-240899950I0J400050D01*
G01*
G37*
%TD.AperFunction*%
%TD*%
%TO.P,P1_82,1*%
%TO.N,Net-(J170-Pad1)*%
%TA.AperFunction,ConnectorPad*%
G36*
G01*
X233895900Y-240899950D02*
X233895900Y-234080050D01*
G75*
G02*
X234295950Y-233680000I400050J0D01*
G01*
X235096050Y-233680000D01*
G75*
G02*
X235496100Y-234080050I0J-400050D01*
G01*
X235496100Y-240899950D01*
G75*
G02*
X235096050Y-241300000I-400050J0D01*
G01*
X234295950Y-241300000D01*
G75*
G02*
X233895900Y-240899950I0J400050D01*
G01*
G37*
%TD.AperFunction*%
%TD*%
%TO.P,P1_84,1*%
%TO.N,Net-(J171-Pad1)*%
%TA.AperFunction,ConnectorPad*%
G36*
G01*
X237858300Y-240899950D02*
X237858300Y-234080050D01*
G75*
G02*
X238258350Y-233680000I400050J0D01*
G01*
X239058450Y-233680000D01*
G75*
G02*
X239458500Y-234080050I0J-400050D01*
G01*
X239458500Y-240899950D01*
G75*
G02*
X239058450Y-241300000I-400050J0D01*
G01*
X238258350Y-241300000D01*
G75*
G02*
X237858300Y-240899950I0J400050D01*
G01*
G37*
%TD.AperFunction*%
%TD*%
%TO.P,P1_86,1*%
%TO.N,Net-(J172-Pad1)*%
%TA.AperFunction,ConnectorPad*%
G36*
G01*
X241820700Y-240899950D02*
X241820700Y-234080050D01*
G75*
G02*
X242220750Y-233680000I400050J0D01*
G01*
X243020850Y-233680000D01*
G75*
G02*
X243420900Y-234080050I0J-400050D01*
G01*
X243420900Y-240899950D01*
G75*
G02*
X243020850Y-241300000I-400050J0D01*
G01*
X242220750Y-241300000D01*
G75*
G02*
X241820700Y-240899950I0J400050D01*
G01*
G37*
%TD.AperFunction*%
%TD*%
%TO.P,P2_2,1*%
%TO.N,Net-(J203-Pad1)*%
%TA.AperFunction,ConnectorPad*%
G36*
G01*
X275018500Y-241014250D02*
X275018500Y-233965750D01*
G75*
G02*
X275304250Y-233680000I285750J0D01*
G01*
X275875750Y-233680000D01*
G75*
G02*
X276161500Y-233965750I0J-285750D01*
G01*
X276161500Y-241014250D01*
G75*
G02*
X275875750Y-241300000I-285750J0D01*
G01*
X275304250Y-241300000D01*
G75*
G02*
X275018500Y-241014250I0J285750D01*
G01*
G37*
%TD.AperFunction*%
%TD*%
%TO.P,P2_4,1*%
%TO.N,Net-(J204-Pad1)*%
%TA.AperFunction,ConnectorPad*%
G36*
G01*
X277558500Y-241014250D02*
X277558500Y-233965750D01*
G75*
G02*
X277844250Y-233680000I285750J0D01*
G01*
X278415750Y-233680000D01*
G75*
G02*
X278701500Y-233965750I0J-285750D01*
G01*
X278701500Y-241014250D01*
G75*
G02*
X278415750Y-241300000I-285750J0D01*
G01*
X277844250Y-241300000D01*
G75*
G02*
X277558500Y-241014250I0J285750D01*
G01*
G37*
%TD.AperFunction*%
%TD*%
%TO.P,P2_6,1*%
%TO.N,Net-(J205-Pad1)*%
%TA.AperFunction,ConnectorPad*%
G36*
G01*
X280098500Y-241014250D02*
X280098500Y-233965750D01*
G75*
G02*
X280384250Y-233680000I285750J0D01*
G01*
X280955750Y-233680000D01*
G75*
G02*
X281241500Y-233965750I0J-285750D01*
G01*
X281241500Y-241014250D01*
G75*
G02*
X280955750Y-241300000I-285750J0D01*
G01*
X280384250Y-241300000D01*
G75*
G02*
X280098500Y-241014250I0J285750D01*
G01*
G37*
%TD.AperFunction*%
%TD*%
%TO.P,P2_8,1*%
%TO.N,Net-(J206-Pad1)*%
%TA.AperFunction,ConnectorPad*%
G36*
G01*
X282638500Y-241014250D02*
X282638500Y-233965750D01*
G75*
G02*
X282924250Y-233680000I285750J0D01*
G01*
X283495750Y-233680000D01*
G75*
G02*
X283781500Y-233965750I0J-285750D01*
G01*
X283781500Y-241014250D01*
G75*
G02*
X283495750Y-241300000I-285750J0D01*
G01*
X282924250Y-241300000D01*
G75*
G02*
X282638500Y-241014250I0J285750D01*
G01*
G37*
%TD.AperFunction*%
%TD*%
%TO.P,P2_10,1*%
%TO.N,Net-(J207-Pad1)*%
%TA.AperFunction,ConnectorPad*%
G36*
G01*
X285178500Y-241014250D02*
X285178500Y-233965750D01*
G75*
G02*
X285464250Y-233680000I285750J0D01*
G01*
X286035750Y-233680000D01*
G75*
G02*
X286321500Y-233965750I0J-285750D01*
G01*
X286321500Y-241014250D01*
G75*
G02*
X286035750Y-241300000I-285750J0D01*
G01*
X285464250Y-241300000D01*
G75*
G02*
X285178500Y-241014250I0J285750D01*
G01*
G37*
%TD.AperFunction*%
%TD*%
%TO.P,P2_12,1*%
%TO.N,Net-(J208-Pad1)*%
%TA.AperFunction,ConnectorPad*%
G36*
G01*
X287718500Y-241014250D02*
X287718500Y-233965750D01*
G75*
G02*
X288004250Y-233680000I285750J0D01*
G01*
X288575750Y-233680000D01*
G75*
G02*
X288861500Y-233965750I0J-285750D01*
G01*
X288861500Y-241014250D01*
G75*
G02*
X288575750Y-241300000I-285750J0D01*
G01*
X288004250Y-241300000D01*
G75*
G02*
X287718500Y-241014250I0J285750D01*
G01*
G37*
%TD.AperFunction*%
%TD*%
%TO.P,P2_14,1*%
%TO.N,Net-(J209-Pad1)*%
%TA.AperFunction,ConnectorPad*%
G36*
G01*
X290258500Y-241014250D02*
X290258500Y-233965750D01*
G75*
G02*
X290544250Y-233680000I285750J0D01*
G01*
X291115750Y-233680000D01*
G75*
G02*
X291401500Y-233965750I0J-285750D01*
G01*
X291401500Y-241014250D01*
G75*
G02*
X291115750Y-241300000I-285750J0D01*
G01*
X290544250Y-241300000D01*
G75*
G02*
X290258500Y-241014250I0J285750D01*
G01*
G37*
%TD.AperFunction*%
%TD*%
%TO.P,P2_16,1*%
%TO.N,Net-(J210-Pad1)*%
%TA.AperFunction,ConnectorPad*%
G36*
G01*
X292798500Y-241014250D02*
X292798500Y-233965750D01*
G75*
G02*
X293084250Y-233680000I285750J0D01*
G01*
X293655750Y-233680000D01*
G75*
G02*
X293941500Y-233965750I0J-285750D01*
G01*
X293941500Y-241014250D01*
G75*
G02*
X293655750Y-241300000I-285750J0D01*
G01*
X293084250Y-241300000D01*
G75*
G02*
X292798500Y-241014250I0J285750D01*
G01*
G37*
%TD.AperFunction*%
%TD*%
%TO.P,P2_18,1*%
%TO.N,Net-(J211-Pad1)*%
%TA.AperFunction,ConnectorPad*%
G36*
G01*
X295338500Y-241014250D02*
X295338500Y-233965750D01*
G75*
G02*
X295624250Y-233680000I285750J0D01*
G01*
X296195750Y-233680000D01*
G75*
G02*
X296481500Y-233965750I0J-285750D01*
G01*
X296481500Y-241014250D01*
G75*
G02*
X296195750Y-241300000I-285750J0D01*
G01*
X295624250Y-241300000D01*
G75*
G02*
X295338500Y-241014250I0J285750D01*
G01*
G37*
%TD.AperFunction*%
%TD*%
%TO.P,P2_20,1*%
%TO.N,Net-(J212-Pad1)*%
%TA.AperFunction,ConnectorPad*%
G36*
G01*
X297878500Y-241014250D02*
X297878500Y-233965750D01*
G75*
G02*
X298164250Y-233680000I285750J0D01*
G01*
X298735750Y-233680000D01*
G75*
G02*
X299021500Y-233965750I0J-285750D01*
G01*
X299021500Y-241014250D01*
G75*
G02*
X298735750Y-241300000I-285750J0D01*
G01*
X298164250Y-241300000D01*
G75*
G02*
X297878500Y-241014250I0J285750D01*
G01*
G37*
%TD.AperFunction*%
%TD*%
%TO.P,P2_22,1*%
%TO.N,Net-(J213-Pad1)*%
%TA.AperFunction,ConnectorPad*%
G36*
G01*
X300418500Y-241014250D02*
X300418500Y-233965750D01*
G75*
G02*
X300704250Y-233680000I285750J0D01*
G01*
X301275750Y-233680000D01*
G75*
G02*
X301561500Y-233965750I0J-285750D01*
G01*
X301561500Y-241014250D01*
G75*
G02*
X301275750Y-241300000I-285750J0D01*
G01*
X300704250Y-241300000D01*
G75*
G02*
X300418500Y-241014250I0J285750D01*
G01*
G37*
%TD.AperFunction*%
%TD*%
%TO.P,P2_24,1*%
%TO.N,Net-(J214-Pad1)*%
%TA.AperFunction,ConnectorPad*%
G36*
G01*
X302958500Y-241014250D02*
X302958500Y-233965750D01*
G75*
G02*
X303244250Y-233680000I285750J0D01*
G01*
X303815750Y-233680000D01*
G75*
G02*
X304101500Y-233965750I0J-285750D01*
G01*
X304101500Y-241014250D01*
G75*
G02*
X303815750Y-241300000I-285750J0D01*
G01*
X303244250Y-241300000D01*
G75*
G02*
X302958500Y-241014250I0J285750D01*
G01*
G37*
%TD.AperFunction*%
%TD*%
%TO.P,P2_26,1*%
%TO.N,Net-(J215-Pad1)*%
%TA.AperFunction,ConnectorPad*%
G36*
G01*
X305498500Y-241014250D02*
X305498500Y-233965750D01*
G75*
G02*
X305784250Y-233680000I285750J0D01*
G01*
X306355750Y-233680000D01*
G75*
G02*
X306641500Y-233965750I0J-285750D01*
G01*
X306641500Y-241014250D01*
G75*
G02*
X306355750Y-241300000I-285750J0D01*
G01*
X305784250Y-241300000D01*
G75*
G02*
X305498500Y-241014250I0J285750D01*
G01*
G37*
%TD.AperFunction*%
%TD*%
%TO.P,P2_28,1*%
%TO.N,Net-(J216-Pad1)*%
%TA.AperFunction,ConnectorPad*%
G36*
G01*
X308038500Y-241014250D02*
X308038500Y-233965750D01*
G75*
G02*
X308324250Y-233680000I285750J0D01*
G01*
X308895750Y-233680000D01*
G75*
G02*
X309181500Y-233965750I0J-285750D01*
G01*
X309181500Y-241014250D01*
G75*
G02*
X308895750Y-241300000I-285750J0D01*
G01*
X308324250Y-241300000D01*
G75*
G02*
X308038500Y-241014250I0J285750D01*
G01*
G37*
%TD.AperFunction*%
%TD*%
%TO.P,P2_30,1*%
%TO.N,Net-(J217-Pad1)*%
%TA.AperFunction,ConnectorPad*%
G36*
G01*
X310578500Y-241014250D02*
X310578500Y-233965750D01*
G75*
G02*
X310864250Y-233680000I285750J0D01*
G01*
X311435750Y-233680000D01*
G75*
G02*
X311721500Y-233965750I0J-285750D01*
G01*
X311721500Y-241014250D01*
G75*
G02*
X311435750Y-241300000I-285750J0D01*
G01*
X310864250Y-241300000D01*
G75*
G02*
X310578500Y-241014250I0J285750D01*
G01*
G37*
%TD.AperFunction*%
%TD*%
%TO.P,P2_32,1*%
%TO.N,Net-(J218-Pad1)*%
%TA.AperFunction,ConnectorPad*%
G36*
G01*
X313118500Y-241014250D02*
X313118500Y-233965750D01*
G75*
G02*
X313404250Y-233680000I285750J0D01*
G01*
X313975750Y-233680000D01*
G75*
G02*
X314261500Y-233965750I0J-285750D01*
G01*
X314261500Y-241014250D01*
G75*
G02*
X313975750Y-241300000I-285750J0D01*
G01*
X313404250Y-241300000D01*
G75*
G02*
X313118500Y-241014250I0J285750D01*
G01*
G37*
%TD.AperFunction*%
%TD*%
%TO.P,P2_34,1*%
%TO.N,Net-(J219-Pad1)*%
%TA.AperFunction,ConnectorPad*%
G36*
G01*
X315658500Y-241014250D02*
X315658500Y-233965750D01*
G75*
G02*
X315944250Y-233680000I285750J0D01*
G01*
X316515750Y-233680000D01*
G75*
G02*
X316801500Y-233965750I0J-285750D01*
G01*
X316801500Y-241014250D01*
G75*
G02*
X316515750Y-241300000I-285750J0D01*
G01*
X315944250Y-241300000D01*
G75*
G02*
X315658500Y-241014250I0J285750D01*
G01*
G37*
%TD.AperFunction*%
%TD*%
%TO.P,P2_36,1*%
%TO.N,Net-(J220-Pad1)*%
%TA.AperFunction,ConnectorPad*%
G36*
G01*
X318198500Y-241014250D02*
X318198500Y-233965750D01*
G75*
G02*
X318484250Y-233680000I285750J0D01*
G01*
X319055750Y-233680000D01*
G75*
G02*
X319341500Y-233965750I0J-285750D01*
G01*
X319341500Y-241014250D01*
G75*
G02*
X319055750Y-241300000I-285750J0D01*
G01*
X318484250Y-241300000D01*
G75*
G02*
X318198500Y-241014250I0J285750D01*
G01*
G37*
%TD.AperFunction*%
%TD*%
%TO.P,P2_38,1*%
%TO.N,Net-(J221-Pad1)*%
%TA.AperFunction,ConnectorPad*%
G36*
G01*
X320738500Y-241014250D02*
X320738500Y-233965750D01*
G75*
G02*
X321024250Y-233680000I285750J0D01*
G01*
X321595750Y-233680000D01*
G75*
G02*
X321881500Y-233965750I0J-285750D01*
G01*
X321881500Y-241014250D01*
G75*
G02*
X321595750Y-241300000I-285750J0D01*
G01*
X321024250Y-241300000D01*
G75*
G02*
X320738500Y-241014250I0J285750D01*
G01*
G37*
%TD.AperFunction*%
%TD*%
%TO.P,P2_40,1*%
%TO.N,Net-(J222-Pad1)*%
%TA.AperFunction,ConnectorPad*%
G36*
G01*
X323278500Y-241014250D02*
X323278500Y-233965750D01*
G75*
G02*
X323564250Y-233680000I285750J0D01*
G01*
X324135750Y-233680000D01*
G75*
G02*
X324421500Y-233965750I0J-285750D01*
G01*
X324421500Y-241014250D01*
G75*
G02*
X324135750Y-241300000I-285750J0D01*
G01*
X323564250Y-241300000D01*
G75*
G02*
X323278500Y-241014250I0J285750D01*
G01*
G37*
%TD.AperFunction*%
%TD*%
%TO.P,P2_42,1*%
%TO.N,Net-(J223-Pad1)*%
%TA.AperFunction,ConnectorPad*%
G36*
G01*
X325818500Y-241014250D02*
X325818500Y-233965750D01*
G75*
G02*
X326104250Y-233680000I285750J0D01*
G01*
X326675750Y-233680000D01*
G75*
G02*
X326961500Y-233965750I0J-285750D01*
G01*
X326961500Y-241014250D01*
G75*
G02*
X326675750Y-241300000I-285750J0D01*
G01*
X326104250Y-241300000D01*
G75*
G02*
X325818500Y-241014250I0J285750D01*
G01*
G37*
%TD.AperFunction*%
%TD*%
%TO.P,P2_44,1*%
%TO.N,Net-(J224-Pad1)*%
%TA.AperFunction,ConnectorPad*%
G36*
G01*
X328358500Y-241014250D02*
X328358500Y-233965750D01*
G75*
G02*
X328644250Y-233680000I285750J0D01*
G01*
X329215750Y-233680000D01*
G75*
G02*
X329501500Y-233965750I0J-285750D01*
G01*
X329501500Y-241014250D01*
G75*
G02*
X329215750Y-241300000I-285750J0D01*
G01*
X328644250Y-241300000D01*
G75*
G02*
X328358500Y-241014250I0J285750D01*
G01*
G37*
%TD.AperFunction*%
%TD*%
%TO.P,P2_46,1*%
%TO.N,Net-(J225-Pad1)*%
%TA.AperFunction,ConnectorPad*%
G36*
G01*
X330898500Y-241014250D02*
X330898500Y-233965750D01*
G75*
G02*
X331184250Y-233680000I285750J0D01*
G01*
X331755750Y-233680000D01*
G75*
G02*
X332041500Y-233965750I0J-285750D01*
G01*
X332041500Y-241014250D01*
G75*
G02*
X331755750Y-241300000I-285750J0D01*
G01*
X331184250Y-241300000D01*
G75*
G02*
X330898500Y-241014250I0J285750D01*
G01*
G37*
%TD.AperFunction*%
%TD*%
%TO.P,P2_48,1*%
%TO.N,Net-(J226-Pad1)*%
%TA.AperFunction,ConnectorPad*%
G36*
G01*
X333438500Y-241014250D02*
X333438500Y-233965750D01*
G75*
G02*
X333724250Y-233680000I285750J0D01*
G01*
X334295750Y-233680000D01*
G75*
G02*
X334581500Y-233965750I0J-285750D01*
G01*
X334581500Y-241014250D01*
G75*
G02*
X334295750Y-241300000I-285750J0D01*
G01*
X333724250Y-241300000D01*
G75*
G02*
X333438500Y-241014250I0J285750D01*
G01*
G37*
%TD.AperFunction*%
%TD*%
%TO.P,P2_50,1*%
%TO.N,Net-(J227-Pad1)*%
%TA.AperFunction,ConnectorPad*%
G36*
G01*
X335978500Y-241014250D02*
X335978500Y-233965750D01*
G75*
G02*
X336264250Y-233680000I285750J0D01*
G01*
X336835750Y-233680000D01*
G75*
G02*
X337121500Y-233965750I0J-285750D01*
G01*
X337121500Y-241014250D01*
G75*
G02*
X336835750Y-241300000I-285750J0D01*
G01*
X336264250Y-241300000D01*
G75*
G02*
X335978500Y-241014250I0J285750D01*
G01*
G37*
%TD.AperFunction*%
%TD*%
%TO.P,P2_52,1*%
%TO.N,Net-(J228-Pad1)*%
%TA.AperFunction,ConnectorPad*%
G36*
G01*
X338518500Y-241014250D02*
X338518500Y-233965750D01*
G75*
G02*
X338804250Y-233680000I285750J0D01*
G01*
X339375750Y-233680000D01*
G75*
G02*
X339661500Y-233965750I0J-285750D01*
G01*
X339661500Y-241014250D01*
G75*
G02*
X339375750Y-241300000I-285750J0D01*
G01*
X338804250Y-241300000D01*
G75*
G02*
X338518500Y-241014250I0J285750D01*
G01*
G37*
%TD.AperFunction*%
%TD*%
%TO.P,P2_54,1*%
%TO.N,Net-(J229-Pad1)*%
%TA.AperFunction,ConnectorPad*%
G36*
G01*
X341058500Y-241014250D02*
X341058500Y-233965750D01*
G75*
G02*
X341344250Y-233680000I285750J0D01*
G01*
X341915750Y-233680000D01*
G75*
G02*
X342201500Y-233965750I0J-285750D01*
G01*
X342201500Y-241014250D01*
G75*
G02*
X341915750Y-241300000I-285750J0D01*
G01*
X341344250Y-241300000D01*
G75*
G02*
X341058500Y-241014250I0J285750D01*
G01*
G37*
%TD.AperFunction*%
%TD*%
%TO.P,P2_56,1*%
%TO.N,Net-(J230-Pad1)*%
%TA.AperFunction,ConnectorPad*%
G36*
G01*
X343598500Y-241014250D02*
X343598500Y-233965750D01*
G75*
G02*
X343884250Y-233680000I285750J0D01*
G01*
X344455750Y-233680000D01*
G75*
G02*
X344741500Y-233965750I0J-285750D01*
G01*
X344741500Y-241014250D01*
G75*
G02*
X344455750Y-241300000I-285750J0D01*
G01*
X343884250Y-241300000D01*
G75*
G02*
X343598500Y-241014250I0J285750D01*
G01*
G37*
%TD.AperFunction*%
%TD*%
%TO.P,P2_58,1*%
%TO.N,Net-(J231-Pad1)*%
%TA.AperFunction,ConnectorPad*%
G36*
G01*
X346138500Y-241014250D02*
X346138500Y-233965750D01*
G75*
G02*
X346424250Y-233680000I285750J0D01*
G01*
X346995750Y-233680000D01*
G75*
G02*
X347281500Y-233965750I0J-285750D01*
G01*
X347281500Y-241014250D01*
G75*
G02*
X346995750Y-241300000I-285750J0D01*
G01*
X346424250Y-241300000D01*
G75*
G02*
X346138500Y-241014250I0J285750D01*
G01*
G37*
%TD.AperFunction*%
%TD*%
%TO.P,P2_60,1*%
%TO.N,Net-(J232-Pad1)*%
%TA.AperFunction,ConnectorPad*%
G36*
G01*
X348678500Y-241014250D02*
X348678500Y-233965750D01*
G75*
G02*
X348964250Y-233680000I285750J0D01*
G01*
X349535750Y-233680000D01*
G75*
G02*
X349821500Y-233965750I0J-285750D01*
G01*
X349821500Y-241014250D01*
G75*
G02*
X349535750Y-241300000I-285750J0D01*
G01*
X348964250Y-241300000D01*
G75*
G02*
X348678500Y-241014250I0J285750D01*
G01*
G37*
%TD.AperFunction*%
%TD*%
D11*
%TO.P,1,1*%
%TO.N,Net-(J1-Pad1)*%
X76200000Y-43180000D03*
%TD*%
%TO.P,3,1*%
%TO.N,Net-(J2-Pad1)*%
X80162400Y-43180000D03*
%TD*%
%TO.P,5,1*%
%TO.N,Net-(J3-Pad1)*%
X84124800Y-43180000D03*
%TD*%
%TO.P,7,1*%
%TO.N,Net-(J4-Pad1)*%
X88087200Y-43180000D03*
%TD*%
%TO.P,9,1*%
%TO.N,Net-(J5-Pad1)*%
X92049600Y-43180000D03*
%TD*%
%TO.P,11,1*%
%TO.N,Net-(J6-Pad1)*%
X96012000Y-43180000D03*
%TD*%
%TO.P,13,1*%
%TO.N,Net-(J7-Pad1)*%
X99974400Y-43180000D03*
%TD*%
%TO.P,15,1*%
%TO.N,Net-(J8-Pad1)*%
X103936800Y-43180000D03*
%TD*%
%TO.P,17,1*%
%TO.N,Net-(J9-Pad1)*%
X107899200Y-43180000D03*
%TD*%
%TO.P,19,1*%
%TO.N,Net-(J10-Pad1)*%
X111861600Y-43180000D03*
%TD*%
%TO.P,21,1*%
%TO.N,Net-(J11-Pad1)*%
X115824000Y-43180000D03*
%TD*%
%TO.P,23,1*%
%TO.N,Net-(J12-Pad1)*%
X119786400Y-43180000D03*
%TD*%
%TO.P,25,1*%
%TO.N,Net-(J13-Pad1)*%
X123748800Y-43180000D03*
%TD*%
%TO.P,27,1*%
%TO.N,Net-(J100-Pad1)*%
X127711200Y-43180000D03*
%TD*%
%TO.P,29,1*%
%TO.N,Net-(J101-Pad1)*%
X131673600Y-43180000D03*
%TD*%
%TO.P,31,1*%
%TO.N,Net-(J102-Pad1)*%
X135636000Y-43180000D03*
%TD*%
%TO.P,33,1*%
%TO.N,Net-(J103-Pad1)*%
X139598400Y-43180000D03*
%TD*%
%TO.P,35,1*%
%TO.N,Net-(J104-Pad1)*%
X143560800Y-43180000D03*
%TD*%
%TO.P,37,1*%
%TO.N,Net-(J105-Pad1)*%
X147523200Y-43180000D03*
%TD*%
%TO.P,39,1*%
%TO.N,Net-(J106-Pad1)*%
X151485600Y-43180000D03*
%TD*%
%TO.P,41,1*%
%TO.N,Net-(J107-Pad1)*%
X155448000Y-43180000D03*
%TD*%
%TO.P,43,1*%
%TO.N,Net-(J108-Pad1)*%
X159410400Y-43180000D03*
%TD*%
%TO.P,45,1*%
%TO.N,Net-(J109-Pad1)*%
X163372800Y-43180000D03*
%TD*%
%TO.P,47,1*%
%TO.N,Net-(J110-Pad1)*%
X167335200Y-43180000D03*
%TD*%
%TO.P,49,1*%
%TO.N,Net-(J111-Pad1)*%
X171297600Y-43180000D03*
%TD*%
%TO.P,51,1*%
%TO.N,Net-(J112-Pad1)*%
X175260000Y-43180000D03*
%TD*%
%TO.P,53,1*%
%TO.N,Net-(J113-Pad1)*%
X179222400Y-43180000D03*
%TD*%
%TO.P,55,1*%
%TO.N,Net-(J114-Pad1)*%
X183184800Y-43180000D03*
%TD*%
%TO.P,57,1*%
%TO.N,Net-(J115-Pad1)*%
X187147200Y-43180000D03*
%TD*%
%TO.P,59,1*%
%TO.N,Net-(J116-Pad1)*%
X191109600Y-43180000D03*
%TD*%
%TO.P,61,1*%
%TO.N,Net-(J117-Pad1)*%
X195072000Y-43180000D03*
%TD*%
%TO.P,63,1*%
%TO.N,Net-(J118-Pad1)*%
X199034400Y-43180000D03*
%TD*%
%TO.P,65,1*%
%TO.N,Net-(J119-Pad1)*%
X202996800Y-43180000D03*
%TD*%
%TO.P,67,1*%
%TO.N,Net-(J120-Pad1)*%
X206959200Y-43180000D03*
%TD*%
%TO.P,69,1*%
%TO.N,Net-(J121-Pad1)*%
X210921600Y-43180000D03*
%TD*%
%TO.P,71,1*%
%TO.N,Net-(J122-Pad1)*%
X214884000Y-43180000D03*
%TD*%
%TO.P,73,1*%
%TO.N,Net-(J123-Pad1)*%
X218846400Y-43180000D03*
%TD*%
%TO.P,75,1*%
%TO.N,Net-(J124-Pad1)*%
X222808800Y-43180000D03*
%TD*%
%TO.P,77,1*%
%TO.N,Net-(J125-Pad1)*%
X226771200Y-43180000D03*
%TD*%
%TO.P,79,1*%
%TO.N,Net-(J126-Pad1)*%
X230733600Y-43180000D03*
%TD*%
%TO.P,81,1*%
%TO.N,Net-(J127-Pad1)*%
X234696000Y-43180000D03*
%TD*%
%TO.P,83,1*%
%TO.N,Net-(J128-Pad1)*%
X238658400Y-43180000D03*
%TD*%
%TO.P,85,1*%
%TO.N,Net-(J129-Pad1)*%
X242620800Y-43180000D03*
%TD*%
%TO.P,2,1*%
%TO.N,Net-(J130-Pad1)*%
X78181200Y-48260000D03*
%TD*%
%TO.P,4,1*%
%TO.N,Net-(J131-Pad1)*%
X82143600Y-48260000D03*
%TD*%
%TO.P,6,1*%
%TO.N,Net-(J132-Pad1)*%
X86106000Y-48260000D03*
%TD*%
%TO.P,8,1*%
%TO.N,Net-(J133-Pad1)*%
X90068400Y-48260000D03*
%TD*%
%TO.P,10,1*%
%TO.N,Net-(J134-Pad1)*%
X94030800Y-48260000D03*
%TD*%
%TO.P,12,1*%
%TO.N,Net-(J135-Pad1)*%
X97993200Y-48260000D03*
%TD*%
%TO.P,14,1*%
%TO.N,Net-(J136-Pad1)*%
X101955600Y-48260000D03*
%TD*%
%TO.P,16,1*%
%TO.N,Net-(J137-Pad1)*%
X105918000Y-48260000D03*
%TD*%
%TO.P,18,1*%
%TO.N,Net-(J138-Pad1)*%
X109880400Y-48260000D03*
%TD*%
%TO.P,20,1*%
%TO.N,Net-(J139-Pad1)*%
X113842800Y-48260000D03*
%TD*%
%TO.P,22,1*%
%TO.N,Net-(J140-Pad1)*%
X117805200Y-48260000D03*
%TD*%
%TO.P,24,1*%
%TO.N,Net-(J141-Pad1)*%
X121767600Y-48260000D03*
%TD*%
%TO.P,26,1*%
%TO.N,Net-(J142-Pad1)*%
X125730000Y-48260000D03*
%TD*%
%TO.P,28,1*%
%TO.N,Net-(J143-Pad1)*%
X129692400Y-48260000D03*
%TD*%
%TO.P,30,1*%
%TO.N,Net-(J144-Pad1)*%
X133654800Y-48260000D03*
%TD*%
%TO.P,32,1*%
%TO.N,Net-(J145-Pad1)*%
X137617200Y-48260000D03*
%TD*%
%TO.P,34,1*%
%TO.N,Net-(J146-Pad1)*%
X141579600Y-48260000D03*
%TD*%
%TO.P,36,1*%
%TO.N,Net-(J147-Pad1)*%
X145542000Y-48260000D03*
%TD*%
%TO.P,38,1*%
%TO.N,Net-(J148-Pad1)*%
X149504400Y-48260000D03*
%TD*%
%TO.P,40,1*%
%TO.N,Net-(J149-Pad1)*%
X153466800Y-48260000D03*
%TD*%
%TO.P,42,1*%
%TO.N,Net-(J150-Pad1)*%
X157429200Y-48260000D03*
%TD*%
%TO.P,44,1*%
%TO.N,Net-(J151-Pad1)*%
X161391600Y-48260000D03*
%TD*%
%TO.P,46,1*%
%TO.N,Net-(J152-Pad1)*%
X165354000Y-48260000D03*
%TD*%
%TO.P,48,1*%
%TO.N,Net-(J153-Pad1)*%
X169316400Y-48260000D03*
%TD*%
%TO.P,50,1*%
%TO.N,Net-(J154-Pad1)*%
X173278800Y-48260000D03*
%TD*%
%TO.P,52,1*%
%TO.N,Net-(J155-Pad1)*%
X177241200Y-48260000D03*
%TD*%
%TO.P,54,1*%
%TO.N,Net-(J156-Pad1)*%
X181203600Y-48260000D03*
%TD*%
%TO.P,56,1*%
%TO.N,Net-(J157-Pad1)*%
X185166000Y-48260000D03*
%TD*%
%TO.P,58,1*%
%TO.N,Net-(J158-Pad1)*%
X189128400Y-48260000D03*
%TD*%
%TO.P,60,1*%
%TO.N,Net-(J159-Pad1)*%
X193090800Y-48260000D03*
%TD*%
%TO.P,62,1*%
%TO.N,Net-(J160-Pad1)*%
X197053200Y-48260000D03*
%TD*%
%TO.P,64,1*%
%TO.N,Net-(J161-Pad1)*%
X201015600Y-48260000D03*
%TD*%
%TO.P,66,1*%
%TO.N,Net-(J162-Pad1)*%
X204978000Y-48260000D03*
%TD*%
%TO.P,68,1*%
%TO.N,Net-(J163-Pad1)*%
X208940400Y-48260000D03*
%TD*%
%TO.P,70,1*%
%TO.N,Net-(J164-Pad1)*%
X212902800Y-48260000D03*
%TD*%
%TO.P,72,1*%
%TO.N,Net-(J165-Pad1)*%
X216865200Y-48260000D03*
%TD*%
%TO.P,74,1*%
%TO.N,Net-(J166-Pad1)*%
X220827600Y-48260000D03*
%TD*%
%TO.P,76,1*%
%TO.N,Net-(J167-Pad1)*%
X224790000Y-48260000D03*
%TD*%
%TO.P,78,1*%
%TO.N,Net-(J168-Pad1)*%
X228752400Y-48260000D03*
%TD*%
%TO.P,80,1*%
%TO.N,Net-(J169-Pad1)*%
X232714800Y-48260000D03*
%TD*%
%TO.P,82,1*%
%TO.N,Net-(J170-Pad1)*%
X236677200Y-48260000D03*
%TD*%
%TO.P,84,1*%
%TO.N,Net-(J171-Pad1)*%
X240639600Y-48260000D03*
%TD*%
%TO.P,86,1*%
%TO.N,Net-(J172-Pad1)*%
X244602000Y-48260000D03*
%TD*%
%TO.P,1,1*%
%TO.N,Net-(J173-Pad1)*%
%TA.AperFunction,ComponentPad*%
G36*
G01*
X274828000Y-43799000D02*
X274828000Y-42561000D01*
G75*
G02*
X275209000Y-42180000I381000J0D01*
G01*
X275971000Y-42180000D01*
G75*
G02*
X276352000Y-42561000I0J-381000D01*
G01*
X276352000Y-43799000D01*
G75*
G02*
X275971000Y-44180000I-381000J0D01*
G01*
X275209000Y-44180000D01*
G75*
G02*
X274828000Y-43799000I0J381000D01*
G01*
G37*
%TD.AperFunction*%
%TD*%
%TO.P,3,1*%
%TO.N,Net-(J174-Pad1)*%
%TA.AperFunction,ComponentPad*%
G36*
G01*
X277368000Y-43799000D02*
X277368000Y-42561000D01*
G75*
G02*
X277749000Y-42180000I381000J0D01*
G01*
X278511000Y-42180000D01*
G75*
G02*
X278892000Y-42561000I0J-381000D01*
G01*
X278892000Y-43799000D01*
G75*
G02*
X278511000Y-44180000I-381000J0D01*
G01*
X277749000Y-44180000D01*
G75*
G02*
X277368000Y-43799000I0J381000D01*
G01*
G37*
%TD.AperFunction*%
%TD*%
%TO.P,5,1*%
%TO.N,Net-(J175-Pad1)*%
%TA.AperFunction,ComponentPad*%
G36*
G01*
X279908000Y-43799000D02*
X279908000Y-42561000D01*
G75*
G02*
X280289000Y-42180000I381000J0D01*
G01*
X281051000Y-42180000D01*
G75*
G02*
X281432000Y-42561000I0J-381000D01*
G01*
X281432000Y-43799000D01*
G75*
G02*
X281051000Y-44180000I-381000J0D01*
G01*
X280289000Y-44180000D01*
G75*
G02*
X279908000Y-43799000I0J381000D01*
G01*
G37*
%TD.AperFunction*%
%TD*%
%TO.P,7,1*%
%TO.N,Net-(J176-Pad1)*%
%TA.AperFunction,ComponentPad*%
G36*
G01*
X282448000Y-43799000D02*
X282448000Y-42561000D01*
G75*
G02*
X282829000Y-42180000I381000J0D01*
G01*
X283591000Y-42180000D01*
G75*
G02*
X283972000Y-42561000I0J-381000D01*
G01*
X283972000Y-43799000D01*
G75*
G02*
X283591000Y-44180000I-381000J0D01*
G01*
X282829000Y-44180000D01*
G75*
G02*
X282448000Y-43799000I0J381000D01*
G01*
G37*
%TD.AperFunction*%
%TD*%
%TO.P,9,1*%
%TO.N,Net-(J177-Pad1)*%
%TA.AperFunction,ComponentPad*%
G36*
G01*
X284988000Y-43799000D02*
X284988000Y-42561000D01*
G75*
G02*
X285369000Y-42180000I381000J0D01*
G01*
X286131000Y-42180000D01*
G75*
G02*
X286512000Y-42561000I0J-381000D01*
G01*
X286512000Y-43799000D01*
G75*
G02*
X286131000Y-44180000I-381000J0D01*
G01*
X285369000Y-44180000D01*
G75*
G02*
X284988000Y-43799000I0J381000D01*
G01*
G37*
%TD.AperFunction*%
%TD*%
%TO.P,11,1*%
%TO.N,Net-(J178-Pad1)*%
%TA.AperFunction,ComponentPad*%
G36*
G01*
X287528000Y-43799000D02*
X287528000Y-42561000D01*
G75*
G02*
X287909000Y-42180000I381000J0D01*
G01*
X288671000Y-42180000D01*
G75*
G02*
X289052000Y-42561000I0J-381000D01*
G01*
X289052000Y-43799000D01*
G75*
G02*
X288671000Y-44180000I-381000J0D01*
G01*
X287909000Y-44180000D01*
G75*
G02*
X287528000Y-43799000I0J381000D01*
G01*
G37*
%TD.AperFunction*%
%TD*%
%TO.P,13,1*%
%TO.N,Net-(J179-Pad1)*%
%TA.AperFunction,ComponentPad*%
G36*
G01*
X290068000Y-43799000D02*
X290068000Y-42561000D01*
G75*
G02*
X290449000Y-42180000I381000J0D01*
G01*
X291211000Y-42180000D01*
G75*
G02*
X291592000Y-42561000I0J-381000D01*
G01*
X291592000Y-43799000D01*
G75*
G02*
X291211000Y-44180000I-381000J0D01*
G01*
X290449000Y-44180000D01*
G75*
G02*
X290068000Y-43799000I0J381000D01*
G01*
G37*
%TD.AperFunction*%
%TD*%
%TO.P,15,1*%
%TO.N,Net-(J180-Pad1)*%
%TA.AperFunction,ComponentPad*%
G36*
G01*
X292608000Y-43799000D02*
X292608000Y-42561000D01*
G75*
G02*
X292989000Y-42180000I381000J0D01*
G01*
X293751000Y-42180000D01*
G75*
G02*
X294132000Y-42561000I0J-381000D01*
G01*
X294132000Y-43799000D01*
G75*
G02*
X293751000Y-44180000I-381000J0D01*
G01*
X292989000Y-44180000D01*
G75*
G02*
X292608000Y-43799000I0J381000D01*
G01*
G37*
%TD.AperFunction*%
%TD*%
%TO.P,17,1*%
%TO.N,Net-(J181-Pad1)*%
%TA.AperFunction,ComponentPad*%
G36*
G01*
X295148000Y-43799000D02*
X295148000Y-42561000D01*
G75*
G02*
X295529000Y-42180000I381000J0D01*
G01*
X296291000Y-42180000D01*
G75*
G02*
X296672000Y-42561000I0J-381000D01*
G01*
X296672000Y-43799000D01*
G75*
G02*
X296291000Y-44180000I-381000J0D01*
G01*
X295529000Y-44180000D01*
G75*
G02*
X295148000Y-43799000I0J381000D01*
G01*
G37*
%TD.AperFunction*%
%TD*%
%TO.P,19,1*%
%TO.N,Net-(J182-Pad1)*%
%TA.AperFunction,ComponentPad*%
G36*
G01*
X297688000Y-43799000D02*
X297688000Y-42561000D01*
G75*
G02*
X298069000Y-42180000I381000J0D01*
G01*
X298831000Y-42180000D01*
G75*
G02*
X299212000Y-42561000I0J-381000D01*
G01*
X299212000Y-43799000D01*
G75*
G02*
X298831000Y-44180000I-381000J0D01*
G01*
X298069000Y-44180000D01*
G75*
G02*
X297688000Y-43799000I0J381000D01*
G01*
G37*
%TD.AperFunction*%
%TD*%
%TO.P,21,1*%
%TO.N,Net-(J183-Pad1)*%
%TA.AperFunction,ComponentPad*%
G36*
G01*
X300228000Y-43799000D02*
X300228000Y-42561000D01*
G75*
G02*
X300609000Y-42180000I381000J0D01*
G01*
X301371000Y-42180000D01*
G75*
G02*
X301752000Y-42561000I0J-381000D01*
G01*
X301752000Y-43799000D01*
G75*
G02*
X301371000Y-44180000I-381000J0D01*
G01*
X300609000Y-44180000D01*
G75*
G02*
X300228000Y-43799000I0J381000D01*
G01*
G37*
%TD.AperFunction*%
%TD*%
%TO.P,23,1*%
%TO.N,Net-(J184-Pad1)*%
%TA.AperFunction,ComponentPad*%
G36*
G01*
X302768000Y-43799000D02*
X302768000Y-42561000D01*
G75*
G02*
X303149000Y-42180000I381000J0D01*
G01*
X303911000Y-42180000D01*
G75*
G02*
X304292000Y-42561000I0J-381000D01*
G01*
X304292000Y-43799000D01*
G75*
G02*
X303911000Y-44180000I-381000J0D01*
G01*
X303149000Y-44180000D01*
G75*
G02*
X302768000Y-43799000I0J381000D01*
G01*
G37*
%TD.AperFunction*%
%TD*%
%TO.P,25,1*%
%TO.N,Net-(J185-Pad1)*%
%TA.AperFunction,ComponentPad*%
G36*
G01*
X305308000Y-43799000D02*
X305308000Y-42561000D01*
G75*
G02*
X305689000Y-42180000I381000J0D01*
G01*
X306451000Y-42180000D01*
G75*
G02*
X306832000Y-42561000I0J-381000D01*
G01*
X306832000Y-43799000D01*
G75*
G02*
X306451000Y-44180000I-381000J0D01*
G01*
X305689000Y-44180000D01*
G75*
G02*
X305308000Y-43799000I0J381000D01*
G01*
G37*
%TD.AperFunction*%
%TD*%
%TO.P,27,1*%
%TO.N,Net-(J186-Pad1)*%
%TA.AperFunction,ComponentPad*%
G36*
G01*
X307848000Y-43799000D02*
X307848000Y-42561000D01*
G75*
G02*
X308229000Y-42180000I381000J0D01*
G01*
X308991000Y-42180000D01*
G75*
G02*
X309372000Y-42561000I0J-381000D01*
G01*
X309372000Y-43799000D01*
G75*
G02*
X308991000Y-44180000I-381000J0D01*
G01*
X308229000Y-44180000D01*
G75*
G02*
X307848000Y-43799000I0J381000D01*
G01*
G37*
%TD.AperFunction*%
%TD*%
%TO.P,29,1*%
%TO.N,Net-(J187-Pad1)*%
%TA.AperFunction,ComponentPad*%
G36*
G01*
X310388000Y-43799000D02*
X310388000Y-42561000D01*
G75*
G02*
X310769000Y-42180000I381000J0D01*
G01*
X311531000Y-42180000D01*
G75*
G02*
X311912000Y-42561000I0J-381000D01*
G01*
X311912000Y-43799000D01*
G75*
G02*
X311531000Y-44180000I-381000J0D01*
G01*
X310769000Y-44180000D01*
G75*
G02*
X310388000Y-43799000I0J381000D01*
G01*
G37*
%TD.AperFunction*%
%TD*%
%TO.P,31,1*%
%TO.N,Net-(J188-Pad1)*%
%TA.AperFunction,ComponentPad*%
G36*
G01*
X312928000Y-43799000D02*
X312928000Y-42561000D01*
G75*
G02*
X313309000Y-42180000I381000J0D01*
G01*
X314071000Y-42180000D01*
G75*
G02*
X314452000Y-42561000I0J-381000D01*
G01*
X314452000Y-43799000D01*
G75*
G02*
X314071000Y-44180000I-381000J0D01*
G01*
X313309000Y-44180000D01*
G75*
G02*
X312928000Y-43799000I0J381000D01*
G01*
G37*
%TD.AperFunction*%
%TD*%
%TO.P,33,1*%
%TO.N,Net-(J189-Pad1)*%
%TA.AperFunction,ComponentPad*%
G36*
G01*
X315468000Y-43799000D02*
X315468000Y-42561000D01*
G75*
G02*
X315849000Y-42180000I381000J0D01*
G01*
X316611000Y-42180000D01*
G75*
G02*
X316992000Y-42561000I0J-381000D01*
G01*
X316992000Y-43799000D01*
G75*
G02*
X316611000Y-44180000I-381000J0D01*
G01*
X315849000Y-44180000D01*
G75*
G02*
X315468000Y-43799000I0J381000D01*
G01*
G37*
%TD.AperFunction*%
%TD*%
%TO.P,35,1*%
%TO.N,Net-(J190-Pad1)*%
%TA.AperFunction,ComponentPad*%
G36*
G01*
X318008000Y-43799000D02*
X318008000Y-42561000D01*
G75*
G02*
X318389000Y-42180000I381000J0D01*
G01*
X319151000Y-42180000D01*
G75*
G02*
X319532000Y-42561000I0J-381000D01*
G01*
X319532000Y-43799000D01*
G75*
G02*
X319151000Y-44180000I-381000J0D01*
G01*
X318389000Y-44180000D01*
G75*
G02*
X318008000Y-43799000I0J381000D01*
G01*
G37*
%TD.AperFunction*%
%TD*%
%TO.P,37,1*%
%TO.N,Net-(J191-Pad1)*%
%TA.AperFunction,ComponentPad*%
G36*
G01*
X320548000Y-43799000D02*
X320548000Y-42561000D01*
G75*
G02*
X320929000Y-42180000I381000J0D01*
G01*
X321691000Y-42180000D01*
G75*
G02*
X322072000Y-42561000I0J-381000D01*
G01*
X322072000Y-43799000D01*
G75*
G02*
X321691000Y-44180000I-381000J0D01*
G01*
X320929000Y-44180000D01*
G75*
G02*
X320548000Y-43799000I0J381000D01*
G01*
G37*
%TD.AperFunction*%
%TD*%
%TO.P,39,1*%
%TO.N,Net-(J192-Pad1)*%
%TA.AperFunction,ComponentPad*%
G36*
G01*
X323088000Y-43799000D02*
X323088000Y-42561000D01*
G75*
G02*
X323469000Y-42180000I381000J0D01*
G01*
X324231000Y-42180000D01*
G75*
G02*
X324612000Y-42561000I0J-381000D01*
G01*
X324612000Y-43799000D01*
G75*
G02*
X324231000Y-44180000I-381000J0D01*
G01*
X323469000Y-44180000D01*
G75*
G02*
X323088000Y-43799000I0J381000D01*
G01*
G37*
%TD.AperFunction*%
%TD*%
%TO.P,41,1*%
%TO.N,Net-(J193-Pad1)*%
%TA.AperFunction,ComponentPad*%
G36*
G01*
X325628000Y-43799000D02*
X325628000Y-42561000D01*
G75*
G02*
X326009000Y-42180000I381000J0D01*
G01*
X326771000Y-42180000D01*
G75*
G02*
X327152000Y-42561000I0J-381000D01*
G01*
X327152000Y-43799000D01*
G75*
G02*
X326771000Y-44180000I-381000J0D01*
G01*
X326009000Y-44180000D01*
G75*
G02*
X325628000Y-43799000I0J381000D01*
G01*
G37*
%TD.AperFunction*%
%TD*%
%TO.P,43,1*%
%TO.N,Net-(J194-Pad1)*%
%TA.AperFunction,ComponentPad*%
G36*
G01*
X328168000Y-43799000D02*
X328168000Y-42561000D01*
G75*
G02*
X328549000Y-42180000I381000J0D01*
G01*
X329311000Y-42180000D01*
G75*
G02*
X329692000Y-42561000I0J-381000D01*
G01*
X329692000Y-43799000D01*
G75*
G02*
X329311000Y-44180000I-381000J0D01*
G01*
X328549000Y-44180000D01*
G75*
G02*
X328168000Y-43799000I0J381000D01*
G01*
G37*
%TD.AperFunction*%
%TD*%
%TO.P,45,1*%
%TO.N,Net-(J195-Pad1)*%
%TA.AperFunction,ComponentPad*%
G36*
G01*
X330708000Y-43799000D02*
X330708000Y-42561000D01*
G75*
G02*
X331089000Y-42180000I381000J0D01*
G01*
X331851000Y-42180000D01*
G75*
G02*
X332232000Y-42561000I0J-381000D01*
G01*
X332232000Y-43799000D01*
G75*
G02*
X331851000Y-44180000I-381000J0D01*
G01*
X331089000Y-44180000D01*
G75*
G02*
X330708000Y-43799000I0J381000D01*
G01*
G37*
%TD.AperFunction*%
%TD*%
%TO.P,47,1*%
%TO.N,Net-(J196-Pad1)*%
%TA.AperFunction,ComponentPad*%
G36*
G01*
X333248000Y-43799000D02*
X333248000Y-42561000D01*
G75*
G02*
X333629000Y-42180000I381000J0D01*
G01*
X334391000Y-42180000D01*
G75*
G02*
X334772000Y-42561000I0J-381000D01*
G01*
X334772000Y-43799000D01*
G75*
G02*
X334391000Y-44180000I-381000J0D01*
G01*
X333629000Y-44180000D01*
G75*
G02*
X333248000Y-43799000I0J381000D01*
G01*
G37*
%TD.AperFunction*%
%TD*%
%TO.P,49,1*%
%TO.N,Net-(J197-Pad1)*%
%TA.AperFunction,ComponentPad*%
G36*
G01*
X335788000Y-43799000D02*
X335788000Y-42561000D01*
G75*
G02*
X336169000Y-42180000I381000J0D01*
G01*
X336931000Y-42180000D01*
G75*
G02*
X337312000Y-42561000I0J-381000D01*
G01*
X337312000Y-43799000D01*
G75*
G02*
X336931000Y-44180000I-381000J0D01*
G01*
X336169000Y-44180000D01*
G75*
G02*
X335788000Y-43799000I0J381000D01*
G01*
G37*
%TD.AperFunction*%
%TD*%
%TO.P,51,1*%
%TO.N,Net-(J198-Pad1)*%
%TA.AperFunction,ComponentPad*%
G36*
G01*
X338328000Y-43799000D02*
X338328000Y-42561000D01*
G75*
G02*
X338709000Y-42180000I381000J0D01*
G01*
X339471000Y-42180000D01*
G75*
G02*
X339852000Y-42561000I0J-381000D01*
G01*
X339852000Y-43799000D01*
G75*
G02*
X339471000Y-44180000I-381000J0D01*
G01*
X338709000Y-44180000D01*
G75*
G02*
X338328000Y-43799000I0J381000D01*
G01*
G37*
%TD.AperFunction*%
%TD*%
%TO.P,53,1*%
%TO.N,Net-(J199-Pad1)*%
%TA.AperFunction,ComponentPad*%
G36*
G01*
X340868000Y-43799000D02*
X340868000Y-42561000D01*
G75*
G02*
X341249000Y-42180000I381000J0D01*
G01*
X342011000Y-42180000D01*
G75*
G02*
X342392000Y-42561000I0J-381000D01*
G01*
X342392000Y-43799000D01*
G75*
G02*
X342011000Y-44180000I-381000J0D01*
G01*
X341249000Y-44180000D01*
G75*
G02*
X340868000Y-43799000I0J381000D01*
G01*
G37*
%TD.AperFunction*%
%TD*%
%TO.P,55,1*%
%TO.N,Net-(J200-Pad1)*%
%TA.AperFunction,ComponentPad*%
G36*
G01*
X343408000Y-43799000D02*
X343408000Y-42561000D01*
G75*
G02*
X343789000Y-42180000I381000J0D01*
G01*
X344551000Y-42180000D01*
G75*
G02*
X344932000Y-42561000I0J-381000D01*
G01*
X344932000Y-43799000D01*
G75*
G02*
X344551000Y-44180000I-381000J0D01*
G01*
X343789000Y-44180000D01*
G75*
G02*
X343408000Y-43799000I0J381000D01*
G01*
G37*
%TD.AperFunction*%
%TD*%
%TO.P,57,1*%
%TO.N,Net-(J201-Pad1)*%
%TA.AperFunction,ComponentPad*%
G36*
G01*
X345948000Y-43799000D02*
X345948000Y-42561000D01*
G75*
G02*
X346329000Y-42180000I381000J0D01*
G01*
X347091000Y-42180000D01*
G75*
G02*
X347472000Y-42561000I0J-381000D01*
G01*
X347472000Y-43799000D01*
G75*
G02*
X347091000Y-44180000I-381000J0D01*
G01*
X346329000Y-44180000D01*
G75*
G02*
X345948000Y-43799000I0J381000D01*
G01*
G37*
%TD.AperFunction*%
%TD*%
%TO.P,59,1*%
%TO.N,Net-(J202-Pad1)*%
%TA.AperFunction,ComponentPad*%
G36*
G01*
X348488000Y-43799000D02*
X348488000Y-42561000D01*
G75*
G02*
X348869000Y-42180000I381000J0D01*
G01*
X349631000Y-42180000D01*
G75*
G02*
X350012000Y-42561000I0J-381000D01*
G01*
X350012000Y-43799000D01*
G75*
G02*
X349631000Y-44180000I-381000J0D01*
G01*
X348869000Y-44180000D01*
G75*
G02*
X348488000Y-43799000I0J381000D01*
G01*
G37*
%TD.AperFunction*%
%TD*%
%TO.P,2,1*%
%TO.N,Net-(J203-Pad1)*%
%TA.AperFunction,ComponentPad*%
G36*
G01*
X274828000Y-48879000D02*
X274828000Y-47641000D01*
G75*
G02*
X275209000Y-47260000I381000J0D01*
G01*
X275971000Y-47260000D01*
G75*
G02*
X276352000Y-47641000I0J-381000D01*
G01*
X276352000Y-48879000D01*
G75*
G02*
X275971000Y-49260000I-381000J0D01*
G01*
X275209000Y-49260000D01*
G75*
G02*
X274828000Y-48879000I0J381000D01*
G01*
G37*
%TD.AperFunction*%
%TD*%
%TO.P,4,1*%
%TO.N,Net-(J204-Pad1)*%
%TA.AperFunction,ComponentPad*%
G36*
G01*
X277368000Y-48879000D02*
X277368000Y-47641000D01*
G75*
G02*
X277749000Y-47260000I381000J0D01*
G01*
X278511000Y-47260000D01*
G75*
G02*
X278892000Y-47641000I0J-381000D01*
G01*
X278892000Y-48879000D01*
G75*
G02*
X278511000Y-49260000I-381000J0D01*
G01*
X277749000Y-49260000D01*
G75*
G02*
X277368000Y-48879000I0J381000D01*
G01*
G37*
%TD.AperFunction*%
%TD*%
%TO.P,6,1*%
%TO.N,Net-(J205-Pad1)*%
%TA.AperFunction,ComponentPad*%
G36*
G01*
X279908000Y-48879000D02*
X279908000Y-47641000D01*
G75*
G02*
X280289000Y-47260000I381000J0D01*
G01*
X281051000Y-47260000D01*
G75*
G02*
X281432000Y-47641000I0J-381000D01*
G01*
X281432000Y-48879000D01*
G75*
G02*
X281051000Y-49260000I-381000J0D01*
G01*
X280289000Y-49260000D01*
G75*
G02*
X279908000Y-48879000I0J381000D01*
G01*
G37*
%TD.AperFunction*%
%TD*%
%TO.P,8,1*%
%TO.N,Net-(J206-Pad1)*%
%TA.AperFunction,ComponentPad*%
G36*
G01*
X282448000Y-48879000D02*
X282448000Y-47641000D01*
G75*
G02*
X282829000Y-47260000I381000J0D01*
G01*
X283591000Y-47260000D01*
G75*
G02*
X283972000Y-47641000I0J-381000D01*
G01*
X283972000Y-48879000D01*
G75*
G02*
X283591000Y-49260000I-381000J0D01*
G01*
X282829000Y-49260000D01*
G75*
G02*
X282448000Y-48879000I0J381000D01*
G01*
G37*
%TD.AperFunction*%
%TD*%
%TO.P,10,1*%
%TO.N,Net-(J207-Pad1)*%
%TA.AperFunction,ComponentPad*%
G36*
G01*
X284988000Y-48879000D02*
X284988000Y-47641000D01*
G75*
G02*
X285369000Y-47260000I381000J0D01*
G01*
X286131000Y-47260000D01*
G75*
G02*
X286512000Y-47641000I0J-381000D01*
G01*
X286512000Y-48879000D01*
G75*
G02*
X286131000Y-49260000I-381000J0D01*
G01*
X285369000Y-49260000D01*
G75*
G02*
X284988000Y-48879000I0J381000D01*
G01*
G37*
%TD.AperFunction*%
%TD*%
%TO.P,12,1*%
%TO.N,Net-(J208-Pad1)*%
%TA.AperFunction,ComponentPad*%
G36*
G01*
X287528000Y-48879000D02*
X287528000Y-47641000D01*
G75*
G02*
X287909000Y-47260000I381000J0D01*
G01*
X288671000Y-47260000D01*
G75*
G02*
X289052000Y-47641000I0J-381000D01*
G01*
X289052000Y-48879000D01*
G75*
G02*
X288671000Y-49260000I-381000J0D01*
G01*
X287909000Y-49260000D01*
G75*
G02*
X287528000Y-48879000I0J381000D01*
G01*
G37*
%TD.AperFunction*%
%TD*%
%TO.P,14,1*%
%TO.N,Net-(J209-Pad1)*%
%TA.AperFunction,ComponentPad*%
G36*
G01*
X290068000Y-48879000D02*
X290068000Y-47641000D01*
G75*
G02*
X290449000Y-47260000I381000J0D01*
G01*
X291211000Y-47260000D01*
G75*
G02*
X291592000Y-47641000I0J-381000D01*
G01*
X291592000Y-48879000D01*
G75*
G02*
X291211000Y-49260000I-381000J0D01*
G01*
X290449000Y-49260000D01*
G75*
G02*
X290068000Y-48879000I0J381000D01*
G01*
G37*
%TD.AperFunction*%
%TD*%
%TO.P,16,1*%
%TO.N,Net-(J210-Pad1)*%
%TA.AperFunction,ComponentPad*%
G36*
G01*
X292608000Y-48879000D02*
X292608000Y-47641000D01*
G75*
G02*
X292989000Y-47260000I381000J0D01*
G01*
X293751000Y-47260000D01*
G75*
G02*
X294132000Y-47641000I0J-381000D01*
G01*
X294132000Y-48879000D01*
G75*
G02*
X293751000Y-49260000I-381000J0D01*
G01*
X292989000Y-49260000D01*
G75*
G02*
X292608000Y-48879000I0J381000D01*
G01*
G37*
%TD.AperFunction*%
%TD*%
%TO.P,18,1*%
%TO.N,Net-(J211-Pad1)*%
%TA.AperFunction,ComponentPad*%
G36*
G01*
X295148000Y-48879000D02*
X295148000Y-47641000D01*
G75*
G02*
X295529000Y-47260000I381000J0D01*
G01*
X296291000Y-47260000D01*
G75*
G02*
X296672000Y-47641000I0J-381000D01*
G01*
X296672000Y-48879000D01*
G75*
G02*
X296291000Y-49260000I-381000J0D01*
G01*
X295529000Y-49260000D01*
G75*
G02*
X295148000Y-48879000I0J381000D01*
G01*
G37*
%TD.AperFunction*%
%TD*%
%TO.P,20,1*%
%TO.N,Net-(J212-Pad1)*%
%TA.AperFunction,ComponentPad*%
G36*
G01*
X297688000Y-48879000D02*
X297688000Y-47641000D01*
G75*
G02*
X298069000Y-47260000I381000J0D01*
G01*
X298831000Y-47260000D01*
G75*
G02*
X299212000Y-47641000I0J-381000D01*
G01*
X299212000Y-48879000D01*
G75*
G02*
X298831000Y-49260000I-381000J0D01*
G01*
X298069000Y-49260000D01*
G75*
G02*
X297688000Y-48879000I0J381000D01*
G01*
G37*
%TD.AperFunction*%
%TD*%
%TO.P,22,1*%
%TO.N,Net-(J213-Pad1)*%
%TA.AperFunction,ComponentPad*%
G36*
G01*
X300228000Y-48879000D02*
X300228000Y-47641000D01*
G75*
G02*
X300609000Y-47260000I381000J0D01*
G01*
X301371000Y-47260000D01*
G75*
G02*
X301752000Y-47641000I0J-381000D01*
G01*
X301752000Y-48879000D01*
G75*
G02*
X301371000Y-49260000I-381000J0D01*
G01*
X300609000Y-49260000D01*
G75*
G02*
X300228000Y-48879000I0J381000D01*
G01*
G37*
%TD.AperFunction*%
%TD*%
%TO.P,24,1*%
%TO.N,Net-(J214-Pad1)*%
%TA.AperFunction,ComponentPad*%
G36*
G01*
X302768000Y-48879000D02*
X302768000Y-47641000D01*
G75*
G02*
X303149000Y-47260000I381000J0D01*
G01*
X303911000Y-47260000D01*
G75*
G02*
X304292000Y-47641000I0J-381000D01*
G01*
X304292000Y-48879000D01*
G75*
G02*
X303911000Y-49260000I-381000J0D01*
G01*
X303149000Y-49260000D01*
G75*
G02*
X302768000Y-48879000I0J381000D01*
G01*
G37*
%TD.AperFunction*%
%TD*%
%TO.P,26,1*%
%TO.N,Net-(J215-Pad1)*%
%TA.AperFunction,ComponentPad*%
G36*
G01*
X305308000Y-48879000D02*
X305308000Y-47641000D01*
G75*
G02*
X305689000Y-47260000I381000J0D01*
G01*
X306451000Y-47260000D01*
G75*
G02*
X306832000Y-47641000I0J-381000D01*
G01*
X306832000Y-48879000D01*
G75*
G02*
X306451000Y-49260000I-381000J0D01*
G01*
X305689000Y-49260000D01*
G75*
G02*
X305308000Y-48879000I0J381000D01*
G01*
G37*
%TD.AperFunction*%
%TD*%
%TO.P,28,1*%
%TO.N,Net-(J216-Pad1)*%
%TA.AperFunction,ComponentPad*%
G36*
G01*
X307848000Y-48879000D02*
X307848000Y-47641000D01*
G75*
G02*
X308229000Y-47260000I381000J0D01*
G01*
X308991000Y-47260000D01*
G75*
G02*
X309372000Y-47641000I0J-381000D01*
G01*
X309372000Y-48879000D01*
G75*
G02*
X308991000Y-49260000I-381000J0D01*
G01*
X308229000Y-49260000D01*
G75*
G02*
X307848000Y-48879000I0J381000D01*
G01*
G37*
%TD.AperFunction*%
%TD*%
%TO.P,30,1*%
%TO.N,Net-(J217-Pad1)*%
%TA.AperFunction,ComponentPad*%
G36*
G01*
X310388000Y-48879000D02*
X310388000Y-47641000D01*
G75*
G02*
X310769000Y-47260000I381000J0D01*
G01*
X311531000Y-47260000D01*
G75*
G02*
X311912000Y-47641000I0J-381000D01*
G01*
X311912000Y-48879000D01*
G75*
G02*
X311531000Y-49260000I-381000J0D01*
G01*
X310769000Y-49260000D01*
G75*
G02*
X310388000Y-48879000I0J381000D01*
G01*
G37*
%TD.AperFunction*%
%TD*%
%TO.P,32,1*%
%TO.N,Net-(J218-Pad1)*%
%TA.AperFunction,ComponentPad*%
G36*
G01*
X312928000Y-48879000D02*
X312928000Y-47641000D01*
G75*
G02*
X313309000Y-47260000I381000J0D01*
G01*
X314071000Y-47260000D01*
G75*
G02*
X314452000Y-47641000I0J-381000D01*
G01*
X314452000Y-48879000D01*
G75*
G02*
X314071000Y-49260000I-381000J0D01*
G01*
X313309000Y-49260000D01*
G75*
G02*
X312928000Y-48879000I0J381000D01*
G01*
G37*
%TD.AperFunction*%
%TD*%
%TO.P,34,1*%
%TO.N,Net-(J219-Pad1)*%
%TA.AperFunction,ComponentPad*%
G36*
G01*
X315468000Y-48879000D02*
X315468000Y-47641000D01*
G75*
G02*
X315849000Y-47260000I381000J0D01*
G01*
X316611000Y-47260000D01*
G75*
G02*
X316992000Y-47641000I0J-381000D01*
G01*
X316992000Y-48879000D01*
G75*
G02*
X316611000Y-49260000I-381000J0D01*
G01*
X315849000Y-49260000D01*
G75*
G02*
X315468000Y-48879000I0J381000D01*
G01*
G37*
%TD.AperFunction*%
%TD*%
%TO.P,36,1*%
%TO.N,Net-(J220-Pad1)*%
%TA.AperFunction,ComponentPad*%
G36*
G01*
X318008000Y-48879000D02*
X318008000Y-47641000D01*
G75*
G02*
X318389000Y-47260000I381000J0D01*
G01*
X319151000Y-47260000D01*
G75*
G02*
X319532000Y-47641000I0J-381000D01*
G01*
X319532000Y-48879000D01*
G75*
G02*
X319151000Y-49260000I-381000J0D01*
G01*
X318389000Y-49260000D01*
G75*
G02*
X318008000Y-48879000I0J381000D01*
G01*
G37*
%TD.AperFunction*%
%TD*%
%TO.P,38,1*%
%TO.N,Net-(J221-Pad1)*%
%TA.AperFunction,ComponentPad*%
G36*
G01*
X320548000Y-48879000D02*
X320548000Y-47641000D01*
G75*
G02*
X320929000Y-47260000I381000J0D01*
G01*
X321691000Y-47260000D01*
G75*
G02*
X322072000Y-47641000I0J-381000D01*
G01*
X322072000Y-48879000D01*
G75*
G02*
X321691000Y-49260000I-381000J0D01*
G01*
X320929000Y-49260000D01*
G75*
G02*
X320548000Y-48879000I0J381000D01*
G01*
G37*
%TD.AperFunction*%
%TD*%
%TO.P,40,1*%
%TO.N,Net-(J222-Pad1)*%
%TA.AperFunction,ComponentPad*%
G36*
G01*
X323088000Y-48879000D02*
X323088000Y-47641000D01*
G75*
G02*
X323469000Y-47260000I381000J0D01*
G01*
X324231000Y-47260000D01*
G75*
G02*
X324612000Y-47641000I0J-381000D01*
G01*
X324612000Y-48879000D01*
G75*
G02*
X324231000Y-49260000I-381000J0D01*
G01*
X323469000Y-49260000D01*
G75*
G02*
X323088000Y-48879000I0J381000D01*
G01*
G37*
%TD.AperFunction*%
%TD*%
%TO.P,42,1*%
%TO.N,Net-(J223-Pad1)*%
%TA.AperFunction,ComponentPad*%
G36*
G01*
X325628000Y-48879000D02*
X325628000Y-47641000D01*
G75*
G02*
X326009000Y-47260000I381000J0D01*
G01*
X326771000Y-47260000D01*
G75*
G02*
X327152000Y-47641000I0J-381000D01*
G01*
X327152000Y-48879000D01*
G75*
G02*
X326771000Y-49260000I-381000J0D01*
G01*
X326009000Y-49260000D01*
G75*
G02*
X325628000Y-48879000I0J381000D01*
G01*
G37*
%TD.AperFunction*%
%TD*%
%TO.P,44,1*%
%TO.N,Net-(J224-Pad1)*%
%TA.AperFunction,ComponentPad*%
G36*
G01*
X328168000Y-48879000D02*
X328168000Y-47641000D01*
G75*
G02*
X328549000Y-47260000I381000J0D01*
G01*
X329311000Y-47260000D01*
G75*
G02*
X329692000Y-47641000I0J-381000D01*
G01*
X329692000Y-48879000D01*
G75*
G02*
X329311000Y-49260000I-381000J0D01*
G01*
X328549000Y-49260000D01*
G75*
G02*
X328168000Y-48879000I0J381000D01*
G01*
G37*
%TD.AperFunction*%
%TD*%
%TO.P,46,1*%
%TO.N,Net-(J225-Pad1)*%
%TA.AperFunction,ComponentPad*%
G36*
G01*
X330708000Y-48879000D02*
X330708000Y-47641000D01*
G75*
G02*
X331089000Y-47260000I381000J0D01*
G01*
X331851000Y-47260000D01*
G75*
G02*
X332232000Y-47641000I0J-381000D01*
G01*
X332232000Y-48879000D01*
G75*
G02*
X331851000Y-49260000I-381000J0D01*
G01*
X331089000Y-49260000D01*
G75*
G02*
X330708000Y-48879000I0J381000D01*
G01*
G37*
%TD.AperFunction*%
%TD*%
%TO.P,48,1*%
%TO.N,Net-(J226-Pad1)*%
%TA.AperFunction,ComponentPad*%
G36*
G01*
X333248000Y-48879000D02*
X333248000Y-47641000D01*
G75*
G02*
X333629000Y-47260000I381000J0D01*
G01*
X334391000Y-47260000D01*
G75*
G02*
X334772000Y-47641000I0J-381000D01*
G01*
X334772000Y-48879000D01*
G75*
G02*
X334391000Y-49260000I-381000J0D01*
G01*
X333629000Y-49260000D01*
G75*
G02*
X333248000Y-48879000I0J381000D01*
G01*
G37*
%TD.AperFunction*%
%TD*%
%TO.P,50,1*%
%TO.N,Net-(J227-Pad1)*%
%TA.AperFunction,ComponentPad*%
G36*
G01*
X335788000Y-48879000D02*
X335788000Y-47641000D01*
G75*
G02*
X336169000Y-47260000I381000J0D01*
G01*
X336931000Y-47260000D01*
G75*
G02*
X337312000Y-47641000I0J-381000D01*
G01*
X337312000Y-48879000D01*
G75*
G02*
X336931000Y-49260000I-381000J0D01*
G01*
X336169000Y-49260000D01*
G75*
G02*
X335788000Y-48879000I0J381000D01*
G01*
G37*
%TD.AperFunction*%
%TD*%
%TO.P,52,1*%
%TO.N,Net-(J228-Pad1)*%
%TA.AperFunction,ComponentPad*%
G36*
G01*
X338328000Y-48879000D02*
X338328000Y-47641000D01*
G75*
G02*
X338709000Y-47260000I381000J0D01*
G01*
X339471000Y-47260000D01*
G75*
G02*
X339852000Y-47641000I0J-381000D01*
G01*
X339852000Y-48879000D01*
G75*
G02*
X339471000Y-49260000I-381000J0D01*
G01*
X338709000Y-49260000D01*
G75*
G02*
X338328000Y-48879000I0J381000D01*
G01*
G37*
%TD.AperFunction*%
%TD*%
%TO.P,54,1*%
%TO.N,Net-(J229-Pad1)*%
%TA.AperFunction,ComponentPad*%
G36*
G01*
X340868000Y-48879000D02*
X340868000Y-47641000D01*
G75*
G02*
X341249000Y-47260000I381000J0D01*
G01*
X342011000Y-47260000D01*
G75*
G02*
X342392000Y-47641000I0J-381000D01*
G01*
X342392000Y-48879000D01*
G75*
G02*
X342011000Y-49260000I-381000J0D01*
G01*
X341249000Y-49260000D01*
G75*
G02*
X340868000Y-48879000I0J381000D01*
G01*
G37*
%TD.AperFunction*%
%TD*%
%TO.P,56,1*%
%TO.N,Net-(J230-Pad1)*%
%TA.AperFunction,ComponentPad*%
G36*
G01*
X343408000Y-48879000D02*
X343408000Y-47641000D01*
G75*
G02*
X343789000Y-47260000I381000J0D01*
G01*
X344551000Y-47260000D01*
G75*
G02*
X344932000Y-47641000I0J-381000D01*
G01*
X344932000Y-48879000D01*
G75*
G02*
X344551000Y-49260000I-381000J0D01*
G01*
X343789000Y-49260000D01*
G75*
G02*
X343408000Y-48879000I0J381000D01*
G01*
G37*
%TD.AperFunction*%
%TD*%
%TO.P,58,1*%
%TO.N,Net-(J231-Pad1)*%
%TA.AperFunction,ComponentPad*%
G36*
G01*
X345948000Y-48879000D02*
X345948000Y-47641000D01*
G75*
G02*
X346329000Y-47260000I381000J0D01*
G01*
X347091000Y-47260000D01*
G75*
G02*
X347472000Y-47641000I0J-381000D01*
G01*
X347472000Y-48879000D01*
G75*
G02*
X347091000Y-49260000I-381000J0D01*
G01*
X346329000Y-49260000D01*
G75*
G02*
X345948000Y-48879000I0J381000D01*
G01*
G37*
%TD.AperFunction*%
%TD*%
%TO.P,60,1*%
%TO.N,Net-(J232-Pad1)*%
%TA.AperFunction,ComponentPad*%
G36*
G01*
X348488000Y-48879000D02*
X348488000Y-47641000D01*
G75*
G02*
X348869000Y-47260000I381000J0D01*
G01*
X349631000Y-47260000D01*
G75*
G02*
X350012000Y-47641000I0J-381000D01*
G01*
X350012000Y-48879000D01*
G75*
G02*
X349631000Y-49260000I-381000J0D01*
G01*
X348869000Y-49260000D01*
G75*
G02*
X348488000Y-48879000I0J381000D01*
G01*
G37*
%TD.AperFunction*%
%TD*%
D12*
%TO.N,Net-(J130-Pad1)*%
X76200000Y-50241200D02*
X78181200Y-48260000D01*
X76200000Y-237490000D02*
X76200000Y-50241200D01*
X78181200Y-48260000D02*
X78181200Y-40081200D01*
X76200000Y-38100000D02*
X76200000Y-31750000D01*
X78181200Y-40081200D02*
X76200000Y-38100000D01*
%TO.N,Net-(J131-Pad1)*%
X80162400Y-50241200D02*
X82143600Y-48260000D01*
X80162400Y-237490000D02*
X80162400Y-50241200D01*
X82143600Y-48260000D02*
X82143600Y-40081200D01*
X80162400Y-38100000D02*
X80162400Y-31750000D01*
X82143600Y-40081200D02*
X80162400Y-38100000D01*
%TO.N,Net-(J132-Pad1)*%
X84124800Y-50241200D02*
X86106000Y-48260000D01*
X84124800Y-237490000D02*
X84124800Y-50241200D01*
X86106000Y-48260000D02*
X86106000Y-40081200D01*
X84124800Y-38100000D02*
X84124800Y-31750000D01*
X86106000Y-40081200D02*
X84124800Y-38100000D01*
%TO.N,Net-(J133-Pad1)*%
X88087200Y-50241200D02*
X90068400Y-48260000D01*
X88087200Y-237490000D02*
X88087200Y-50241200D01*
X90068400Y-48260000D02*
X90068400Y-40081200D01*
X88087200Y-38100000D02*
X88087200Y-31750000D01*
X90068400Y-40081200D02*
X88087200Y-38100000D01*
%TO.N,Net-(J134-Pad1)*%
X92049600Y-50241200D02*
X94030800Y-48260000D01*
X92049600Y-237490000D02*
X92049600Y-50241200D01*
X94030800Y-48260000D02*
X94030800Y-40081200D01*
X92049600Y-38100000D02*
X92049600Y-31750000D01*
X94030800Y-40081200D02*
X92049600Y-38100000D01*
%TO.N,Net-(J135-Pad1)*%
X96012000Y-50241200D02*
X97993200Y-48260000D01*
X96012000Y-237490000D02*
X96012000Y-50241200D01*
X97993200Y-48260000D02*
X97993200Y-40081200D01*
X96012000Y-38100000D02*
X96012000Y-31750000D01*
X97993200Y-40081200D02*
X96012000Y-38100000D01*
%TO.N,Net-(J136-Pad1)*%
X101955600Y-48260000D02*
X99974400Y-50241200D01*
X99974400Y-50241200D02*
X99974400Y-237490000D01*
X101955600Y-48260000D02*
X101955600Y-40081200D01*
X99974400Y-38100000D02*
X99974400Y-31750000D01*
X101955600Y-40081200D02*
X99974400Y-38100000D01*
%TO.N,Net-(J137-Pad1)*%
X103936800Y-50241200D02*
X105918000Y-48260000D01*
X103936800Y-237490000D02*
X103936800Y-50241200D01*
X105918000Y-48260000D02*
X105918000Y-40081200D01*
X103936800Y-38100000D02*
X103936800Y-31750000D01*
X105918000Y-40081200D02*
X103936800Y-38100000D01*
%TO.N,Net-(J138-Pad1)*%
X109880400Y-48260000D02*
X107899200Y-50241200D01*
X107899200Y-237337600D02*
X107899200Y-237490000D01*
X107899200Y-50241200D02*
X107899200Y-237337600D01*
X109880400Y-48260000D02*
X109880400Y-40081200D01*
X107899200Y-38100000D02*
X107899200Y-31750000D01*
X109880400Y-40081200D02*
X107899200Y-38100000D01*
%TO.N,Net-(J139-Pad1)*%
X111861600Y-50241200D02*
X113842800Y-48260000D01*
X111861600Y-237490000D02*
X111861600Y-50241200D01*
X113842800Y-48260000D02*
X113842800Y-40081200D01*
X111861600Y-38100000D02*
X111861600Y-31750000D01*
X113842800Y-40081200D02*
X111861600Y-38100000D01*
%TO.N,Net-(J140-Pad1)*%
X117805200Y-48260000D02*
X115824000Y-50241200D01*
X115824000Y-229717600D02*
X115824000Y-237490000D01*
X115824000Y-50241200D02*
X115824000Y-229717600D01*
X117805200Y-48260000D02*
X117805200Y-40081200D01*
X115824000Y-38100000D02*
X115824000Y-31750000D01*
X117805200Y-40081200D02*
X115824000Y-38100000D01*
%TO.N,Net-(J141-Pad1)*%
X119786400Y-50241200D02*
X121767600Y-48260000D01*
X119786400Y-237490000D02*
X119786400Y-50241200D01*
X121767600Y-48260000D02*
X121767600Y-40081200D01*
X119786400Y-38100000D02*
X119786400Y-31750000D01*
X121767600Y-40081200D02*
X119786400Y-38100000D01*
%TO.N,Net-(J142-Pad1)*%
X125730000Y-48260000D02*
X123748800Y-50241200D01*
X123748800Y-229717600D02*
X123748800Y-237490000D01*
X123748800Y-50241200D02*
X123748800Y-229717600D01*
X125730000Y-48260000D02*
X125730000Y-40081200D01*
X123748800Y-38100000D02*
X123748800Y-31750000D01*
X125730000Y-40081200D02*
X123748800Y-38100000D01*
%TO.N,Net-(J143-Pad1)*%
X127711200Y-50241200D02*
X129692400Y-48260000D01*
X127711200Y-237490000D02*
X127711200Y-50241200D01*
X129692400Y-48260000D02*
X129692400Y-40081200D01*
X127711200Y-38100000D02*
X127711200Y-31750000D01*
X129692400Y-40081200D02*
X127711200Y-38100000D01*
%TO.N,Net-(J144-Pad1)*%
X133654800Y-48260000D02*
X131673600Y-50241200D01*
X131673600Y-50241200D02*
X131673600Y-237490000D01*
X133654800Y-48260000D02*
X133654800Y-40081200D01*
X131673600Y-38100000D02*
X131673600Y-31750000D01*
X133654800Y-40081200D02*
X131673600Y-38100000D01*
%TO.N,Net-(J145-Pad1)*%
X135636000Y-50241200D02*
X137617200Y-48260000D01*
X135636000Y-237490000D02*
X135636000Y-50241200D01*
X137617200Y-48260000D02*
X137617200Y-40081200D01*
X135636000Y-38100000D02*
X135636000Y-31750000D01*
X137617200Y-40081200D02*
X135636000Y-38100000D01*
%TO.N,Net-(J146-Pad1)*%
X141579600Y-48260000D02*
X139598400Y-50241200D01*
X139598400Y-50241200D02*
X139598400Y-237490000D01*
X141579600Y-48260000D02*
X141579600Y-40081200D01*
X139598400Y-38100000D02*
X139598400Y-31750000D01*
X141579600Y-40081200D02*
X139598400Y-38100000D01*
%TO.N,Net-(J147-Pad1)*%
X145542000Y-48260000D02*
X143560800Y-50241200D01*
X143560800Y-92557600D02*
X143560800Y-237490000D01*
X143560800Y-50241200D02*
X143560800Y-92557600D01*
X145542000Y-48260000D02*
X145542000Y-40081200D01*
X143560800Y-38100000D02*
X143560800Y-31750000D01*
X145542000Y-40081200D02*
X143560800Y-38100000D01*
%TO.N,Net-(J148-Pad1)*%
X149504400Y-48260000D02*
X147523200Y-50241200D01*
X147523200Y-229717600D02*
X147523200Y-237490000D01*
X147523200Y-50241200D02*
X147523200Y-229717600D01*
X149504400Y-48260000D02*
X149504400Y-40081200D01*
X147523200Y-38100000D02*
X147523200Y-31750000D01*
X149504400Y-40081200D02*
X147523200Y-38100000D01*
%TO.N,Net-(J149-Pad1)*%
X151485600Y-50241200D02*
X153466800Y-48260000D01*
X151485600Y-237490000D02*
X151485600Y-50241200D01*
X153466800Y-48260000D02*
X153466800Y-40081200D01*
X151485600Y-38100000D02*
X151485600Y-31750000D01*
X153466800Y-40081200D02*
X151485600Y-38100000D01*
%TO.N,Net-(J150-Pad1)*%
X157429200Y-48260000D02*
X155448000Y-50241200D01*
X155448000Y-234797600D02*
X155448000Y-237490000D01*
X155448000Y-50241200D02*
X155448000Y-234797600D01*
X155448000Y-38100000D02*
X155448000Y-31750000D01*
X157429200Y-48260000D02*
X157429200Y-40081200D01*
X157429200Y-40081200D02*
X155448000Y-38100000D01*
%TO.N,Net-(J151-Pad1)*%
X159410400Y-50241200D02*
X161391600Y-48260000D01*
X159410400Y-237490000D02*
X159410400Y-50241200D01*
X161391600Y-48260000D02*
X161391600Y-40081200D01*
X159410400Y-38100000D02*
X159410400Y-31750000D01*
X161391600Y-40081200D02*
X159410400Y-38100000D01*
%TO.N,Net-(J152-Pad1)*%
X165354000Y-48260000D02*
X163372800Y-50241200D01*
X163372800Y-50241200D02*
X163372800Y-237490000D01*
X163372800Y-38100000D02*
X163372800Y-31750000D01*
X165354000Y-48260000D02*
X165354000Y-40081200D01*
X165354000Y-40081200D02*
X163372800Y-38100000D01*
%TO.N,Net-(J153-Pad1)*%
X167335200Y-50241200D02*
X169316400Y-48260000D01*
X167335200Y-237490000D02*
X167335200Y-50241200D01*
X169316400Y-48260000D02*
X169316400Y-40081200D01*
X167335200Y-38100000D02*
X167335200Y-31750000D01*
X169316400Y-40081200D02*
X167335200Y-38100000D01*
%TO.N,Net-(J154-Pad1)*%
X173278800Y-48260000D02*
X171297600Y-50241200D01*
X171297600Y-50241200D02*
X171297600Y-237490000D01*
X173278800Y-48260000D02*
X173278800Y-40081200D01*
X171297600Y-38100000D02*
X171297600Y-31750000D01*
X173278800Y-40081200D02*
X171297600Y-38100000D01*
%TO.N,Net-(J155-Pad1)*%
X175260000Y-50241200D02*
X177241200Y-48260000D01*
X175260000Y-237490000D02*
X175260000Y-50241200D01*
X177241200Y-48260000D02*
X177241200Y-40081200D01*
X175260000Y-38100000D02*
X175260000Y-31750000D01*
X177241200Y-40081200D02*
X175260000Y-38100000D01*
%TO.N,Net-(J156-Pad1)*%
X181203600Y-48260000D02*
X179222400Y-50241200D01*
X179222400Y-50241200D02*
X179222400Y-237490000D01*
X181203600Y-48260000D02*
X181203600Y-40081200D01*
X179222400Y-38100000D02*
X179222400Y-31750000D01*
X181203600Y-40081200D02*
X179222400Y-38100000D01*
%TO.N,Net-(J157-Pad1)*%
X183184800Y-50241200D02*
X185166000Y-48260000D01*
X183184800Y-237490000D02*
X183184800Y-50241200D01*
X185166000Y-48260000D02*
X185166000Y-40081200D01*
X183184800Y-38100000D02*
X183184800Y-31750000D01*
X185166000Y-40081200D02*
X183184800Y-38100000D01*
%TO.N,Net-(J158-Pad1)*%
X189128400Y-48260000D02*
X187147200Y-50241200D01*
X187147200Y-50241200D02*
X187147200Y-237490000D01*
X189128400Y-48260000D02*
X189128400Y-40081200D01*
X187147200Y-38100000D02*
X187147200Y-31750000D01*
X189128400Y-40081200D02*
X187147200Y-38100000D01*
%TO.N,Net-(J159-Pad1)*%
X191109600Y-50241200D02*
X193090800Y-48260000D01*
X191109600Y-237490000D02*
X191109600Y-50241200D01*
X193090800Y-48260000D02*
X193090800Y-40081200D01*
X191109600Y-38100000D02*
X191109600Y-31750000D01*
X193090800Y-40081200D02*
X191109600Y-38100000D01*
%TO.N,Net-(J160-Pad1)*%
X197053200Y-48260000D02*
X195072000Y-50241200D01*
X195072000Y-239318800D02*
X195072000Y-237490000D01*
X195072000Y-50241200D02*
X195072000Y-239318800D01*
X197053200Y-48260000D02*
X197053200Y-40081200D01*
X195072000Y-38100000D02*
X195072000Y-31750000D01*
X197053200Y-40081200D02*
X195072000Y-38100000D01*
%TO.N,Net-(J161-Pad1)*%
X199034400Y-50241200D02*
X201015600Y-48260000D01*
X199034400Y-237490000D02*
X199034400Y-50241200D01*
X201015600Y-48260000D02*
X201015600Y-40081200D01*
X199034400Y-38100000D02*
X199034400Y-31750000D01*
X201015600Y-40081200D02*
X199034400Y-38100000D01*
%TO.N,Net-(J162-Pad1)*%
X204978000Y-48260000D02*
X202996800Y-50241200D01*
X202996800Y-239318800D02*
X202996800Y-237490000D01*
X202996800Y-50241200D02*
X202996800Y-239318800D01*
X204978000Y-48260000D02*
X204978000Y-40081200D01*
X202996800Y-38100000D02*
X202996800Y-31750000D01*
X204978000Y-40081200D02*
X202996800Y-38100000D01*
%TO.N,Net-(J163-Pad1)*%
X208940400Y-48260000D02*
X206959200Y-50241200D01*
X206959200Y-50241200D02*
X206959200Y-237490000D01*
X208940400Y-48260000D02*
X208940400Y-40081200D01*
X206959200Y-38100000D02*
X206959200Y-31750000D01*
X208940400Y-40081200D02*
X206959200Y-38100000D01*
%TO.N,Net-(J164-Pad1)*%
X212902800Y-48260000D02*
X210921600Y-50241200D01*
X210921600Y-67157600D02*
X210921600Y-237490000D01*
X210921600Y-50241200D02*
X210921600Y-67157600D01*
X212902800Y-48260000D02*
X212902800Y-40081200D01*
X210921600Y-38100000D02*
X210921600Y-31750000D01*
X212902800Y-40081200D02*
X210921600Y-38100000D01*
%TO.N,Net-(J165-Pad1)*%
X216865200Y-48260000D02*
X214884000Y-50241200D01*
X214884000Y-239318800D02*
X214884000Y-237490000D01*
X214884000Y-50241200D02*
X214884000Y-239318800D01*
X216865200Y-48260000D02*
X216865200Y-40081200D01*
X214884000Y-38100000D02*
X214884000Y-31750000D01*
X216865200Y-40081200D02*
X214884000Y-38100000D01*
%TO.N,Net-(J166-Pad1)*%
X220827600Y-48260000D02*
X218846400Y-50241200D01*
X218846400Y-50241200D02*
X218846400Y-237490000D01*
X220827600Y-48260000D02*
X220827600Y-40081200D01*
X218846400Y-38100000D02*
X218846400Y-31750000D01*
X220827600Y-40081200D02*
X218846400Y-38100000D01*
%TO.N,Net-(J167-Pad1)*%
X224790000Y-48260000D02*
X222808800Y-50241200D01*
X222808800Y-50241200D02*
X222808800Y-237490000D01*
X224790000Y-48260000D02*
X224790000Y-40081200D01*
X222808800Y-38100000D02*
X222808800Y-31750000D01*
X224790000Y-40081200D02*
X222808800Y-38100000D01*
%TO.N,Net-(J168-Pad1)*%
X228752400Y-48260000D02*
X226771200Y-50241200D01*
X226771200Y-239318800D02*
X226771200Y-237490000D01*
X226771200Y-50241200D02*
X226771200Y-239318800D01*
X226771200Y-38100000D02*
X226771200Y-31750000D01*
X228752400Y-48260000D02*
X228752400Y-40081200D01*
X228752400Y-40081200D02*
X226771200Y-38100000D01*
%TO.N,Net-(J169-Pad1)*%
X232714800Y-48260000D02*
X230733600Y-50241200D01*
X230733600Y-50241200D02*
X230733600Y-237490000D01*
X232714800Y-48260000D02*
X232714800Y-40081200D01*
X230733600Y-38100000D02*
X230733600Y-31750000D01*
X232714800Y-40081200D02*
X230733600Y-38100000D01*
%TO.N,Net-(J170-Pad1)*%
X236677200Y-48260000D02*
X234696000Y-50241200D01*
X234696000Y-239318800D02*
X234696000Y-237490000D01*
X234696000Y-50241200D02*
X234696000Y-239318800D01*
X236677200Y-48260000D02*
X236677200Y-40081200D01*
X234696000Y-38100000D02*
X234696000Y-31750000D01*
X236677200Y-40081200D02*
X234696000Y-38100000D01*
%TO.N,Net-(J171-Pad1)*%
X240639600Y-48260000D02*
X238658400Y-50241200D01*
X238658400Y-50241200D02*
X238658400Y-237490000D01*
X240639600Y-48260000D02*
X240639600Y-40081200D01*
X238658400Y-38100000D02*
X238658400Y-31750000D01*
X240639600Y-40081200D02*
X238658400Y-38100000D01*
%TO.N,Net-(J172-Pad1)*%
X244602000Y-48260000D02*
X242620800Y-50241200D01*
X242620800Y-240803590D02*
X242620800Y-237490000D01*
X242620800Y-50241200D02*
X242620800Y-240803590D01*
X244602000Y-48260000D02*
X244602000Y-40081200D01*
X242620800Y-38100000D02*
X242620800Y-31750000D01*
X244602000Y-40081200D02*
X242620800Y-38100000D01*
D13*
%TO.N,Net-(J203-Pad1)*%
X275590000Y-48260000D02*
X275590000Y-46990000D01*
X275590000Y-46990000D02*
X276860000Y-45720000D01*
X276860000Y-45720000D02*
X276860000Y-39370000D01*
X275590000Y-38100000D02*
X275590000Y-31750000D01*
X276860000Y-39370000D02*
X275590000Y-38100000D01*
X275590000Y-48260000D02*
X275590000Y-237490000D01*
%TO.N,Net-(J204-Pad1)*%
X278130000Y-48260000D02*
X278130000Y-46990000D01*
X279342010Y-45777990D02*
X279342010Y-39312010D01*
X278130000Y-46990000D02*
X279342010Y-45777990D01*
X278130000Y-38100000D02*
X278130000Y-31750000D01*
X279342010Y-39312010D02*
X278130000Y-38100000D01*
X278130000Y-237490000D02*
X278130000Y-48260000D01*
%TO.N,Net-(J205-Pad1)*%
X280670000Y-48260000D02*
X280670000Y-46990000D01*
X281882010Y-45777990D02*
X281882010Y-39312010D01*
X280670000Y-46990000D02*
X281882010Y-45777990D01*
X280670000Y-38100000D02*
X280670000Y-31750000D01*
X281882010Y-39312010D02*
X280670000Y-38100000D01*
X280670000Y-48260000D02*
X280670000Y-237490000D01*
%TO.N,Net-(J206-Pad1)*%
X283210000Y-48260000D02*
X283210000Y-46990000D01*
X284422010Y-45777990D02*
X284422010Y-39312010D01*
X283210000Y-46990000D02*
X284422010Y-45777990D01*
X283210000Y-38100000D02*
X283210000Y-31750000D01*
X284422010Y-39312010D02*
X283210000Y-38100000D01*
X283210000Y-237490000D02*
X283210000Y-48260000D01*
%TO.N,Net-(J207-Pad1)*%
X285750000Y-48260000D02*
X285750000Y-46990000D01*
X286962010Y-45777990D02*
X286962010Y-39312010D01*
X285750000Y-46990000D02*
X286962010Y-45777990D01*
X285750000Y-38100000D02*
X285750000Y-31750000D01*
X286962010Y-39312010D02*
X285750000Y-38100000D01*
X285750000Y-48260000D02*
X285750000Y-237490000D01*
%TO.N,Net-(J208-Pad1)*%
X288290000Y-48260000D02*
X288290000Y-46990000D01*
X289502010Y-45777990D02*
X289502010Y-39312010D01*
X288290000Y-46990000D02*
X289502010Y-45777990D01*
X288290000Y-38100000D02*
X288290000Y-31750000D01*
X289502010Y-39312010D02*
X288290000Y-38100000D01*
X288290000Y-237490000D02*
X288290000Y-48260000D01*
%TO.N,Net-(J209-Pad1)*%
X290830000Y-48260000D02*
X290830000Y-46990000D01*
X292042010Y-45777990D02*
X292042010Y-39312010D01*
X290830000Y-46990000D02*
X292042010Y-45777990D01*
X290830000Y-38100000D02*
X290830000Y-31750000D01*
X292042010Y-39312010D02*
X290830000Y-38100000D01*
X290830000Y-48260000D02*
X290830000Y-237490000D01*
%TO.N,Net-(J210-Pad1)*%
X293370000Y-48260000D02*
X293370000Y-46990000D01*
X294582010Y-45777990D02*
X294582010Y-39312010D01*
X293370000Y-46990000D02*
X294582010Y-45777990D01*
X293370000Y-38100000D02*
X293370000Y-31750000D01*
X294582010Y-39312010D02*
X293370000Y-38100000D01*
X293370000Y-237490000D02*
X293370000Y-48260000D01*
%TO.N,Net-(J211-Pad1)*%
X295910000Y-48260000D02*
X295910000Y-46990000D01*
X297122010Y-45777990D02*
X297122010Y-39312010D01*
X295910000Y-46990000D02*
X297122010Y-45777990D01*
X295910000Y-38100000D02*
X295910000Y-31750000D01*
X297122010Y-39312010D02*
X295910000Y-38100000D01*
X295910000Y-48260000D02*
X295910000Y-237490000D01*
%TO.N,Net-(J212-Pad1)*%
X298450000Y-48260000D02*
X298450000Y-46990000D01*
X299662010Y-45777990D02*
X299662010Y-39312010D01*
X298450000Y-46990000D02*
X299662010Y-45777990D01*
X298450000Y-38100000D02*
X298450000Y-31750000D01*
X299662010Y-39312010D02*
X298450000Y-38100000D01*
X298450000Y-237490000D02*
X298450000Y-48260000D01*
%TO.N,Net-(J213-Pad1)*%
X300990000Y-48260000D02*
X300990000Y-46990000D01*
X302202010Y-45777990D02*
X302202010Y-39312010D01*
X300990000Y-46990000D02*
X302202010Y-45777990D01*
X300990000Y-38100000D02*
X300990000Y-31750000D01*
X302202010Y-39312010D02*
X300990000Y-38100000D01*
X300990000Y-237490000D02*
X300990000Y-233680000D01*
X300990000Y-48260000D02*
X300990000Y-233680000D01*
X300990000Y-233680000D02*
X300990000Y-234950000D01*
%TO.N,Net-(J214-Pad1)*%
X303530000Y-48260000D02*
X303530000Y-46990000D01*
X304742010Y-45777990D02*
X304742010Y-39312010D01*
X303530000Y-46990000D02*
X304742010Y-45777990D01*
X303530000Y-38100000D02*
X303530000Y-31750000D01*
X304742010Y-39312010D02*
X303530000Y-38100000D01*
X303530000Y-48260000D02*
X303530000Y-237490000D01*
%TO.N,Net-(J215-Pad1)*%
X306070000Y-48260000D02*
X306070000Y-46990000D01*
X307282010Y-45777990D02*
X307282010Y-39312010D01*
X306070000Y-46990000D02*
X307282010Y-45777990D01*
X306070000Y-38100000D02*
X306070000Y-31750000D01*
X307282010Y-39312010D02*
X306070000Y-38100000D01*
X306070000Y-48260000D02*
X306070000Y-237490000D01*
%TO.N,Net-(J216-Pad1)*%
X308610000Y-48260000D02*
X308610000Y-46990000D01*
X309822010Y-45777990D02*
X309822010Y-39312010D01*
X308610000Y-46990000D02*
X309822010Y-45777990D01*
X308610000Y-38100000D02*
X308610000Y-31750000D01*
X309822010Y-39312010D02*
X308610000Y-38100000D01*
X308610000Y-48260000D02*
X308610000Y-237490000D01*
%TO.N,Net-(J217-Pad1)*%
X311150000Y-48260000D02*
X311150000Y-46990000D01*
X312362010Y-45777990D02*
X312362010Y-39312010D01*
X311150000Y-46990000D02*
X312362010Y-45777990D01*
X311150000Y-38100000D02*
X311150000Y-31750000D01*
X312362010Y-39312010D02*
X311150000Y-38100000D01*
X311150000Y-48260000D02*
X311150000Y-237490000D01*
%TO.N,Net-(J218-Pad1)*%
X313690000Y-48260000D02*
X313690000Y-46990000D01*
X314902010Y-45777990D02*
X314902010Y-39312010D01*
X313690000Y-46990000D02*
X314902010Y-45777990D01*
X313690000Y-38100000D02*
X313690000Y-31750000D01*
X314902010Y-39312010D02*
X313690000Y-38100000D01*
X313690000Y-48260000D02*
X313690000Y-237490000D01*
%TO.N,Net-(J219-Pad1)*%
X316230000Y-48260000D02*
X316230000Y-46990000D01*
X317442010Y-45777990D02*
X317442010Y-39312010D01*
X316230000Y-46990000D02*
X317442010Y-45777990D01*
X316230000Y-38100000D02*
X316230000Y-31750000D01*
X317442010Y-39312010D02*
X316230000Y-38100000D01*
X316230000Y-48260000D02*
X316230000Y-237490000D01*
%TO.N,Net-(J220-Pad1)*%
X318770000Y-48260000D02*
X318770000Y-46990000D01*
X319982010Y-45777990D02*
X319982010Y-39312010D01*
X318770000Y-46990000D02*
X319982010Y-45777990D01*
X318770000Y-38100000D02*
X318770000Y-31750000D01*
X319982010Y-39312010D02*
X318770000Y-38100000D01*
X318770000Y-48260000D02*
X318770000Y-237490000D01*
%TO.N,Net-(J221-Pad1)*%
X321310000Y-48260000D02*
X321310000Y-46990000D01*
X322522010Y-45777990D02*
X322522010Y-39312010D01*
X321310000Y-46990000D02*
X322522010Y-45777990D01*
X321310000Y-38100000D02*
X321310000Y-31750000D01*
X322522010Y-39312010D02*
X321310000Y-38100000D01*
X321310000Y-48260000D02*
X321310000Y-237490000D01*
%TO.N,Net-(J222-Pad1)*%
X323850000Y-48260000D02*
X323850000Y-46990000D01*
X325062010Y-45777990D02*
X325062010Y-39312010D01*
X323850000Y-46990000D02*
X325062010Y-45777990D01*
X323850000Y-38100000D02*
X323850000Y-31750000D01*
X325062010Y-39312010D02*
X323850000Y-38100000D01*
X323850000Y-48260000D02*
X323850000Y-237490000D01*
%TO.N,Net-(J223-Pad1)*%
X326390000Y-48260000D02*
X326390000Y-46990000D01*
X327602010Y-45777990D02*
X327602010Y-39312010D01*
X326390000Y-46990000D02*
X327602010Y-45777990D01*
X326390000Y-38100000D02*
X326390000Y-31750000D01*
X327602010Y-39312010D02*
X326390000Y-38100000D01*
X326390000Y-48260000D02*
X326390000Y-237490000D01*
%TO.N,Net-(J224-Pad1)*%
X328930000Y-48260000D02*
X328930000Y-46990000D01*
X330142010Y-45777990D02*
X330142010Y-39312010D01*
X328930000Y-46990000D02*
X330142010Y-45777990D01*
X328930000Y-38100000D02*
X328930000Y-31750000D01*
X330142010Y-39312010D02*
X328930000Y-38100000D01*
X328930000Y-48260000D02*
X328930000Y-237490000D01*
%TO.N,Net-(J225-Pad1)*%
X331470000Y-48260000D02*
X331470000Y-46990000D01*
X332682010Y-45777990D02*
X332682010Y-39312010D01*
X331470000Y-46990000D02*
X332682010Y-45777990D01*
X331470000Y-38100000D02*
X331470000Y-31750000D01*
X332682010Y-39312010D02*
X331470000Y-38100000D01*
X331470000Y-48260000D02*
X331470000Y-237490000D01*
%TO.N,Net-(J226-Pad1)*%
X334010000Y-48260000D02*
X334010000Y-46990000D01*
X335222010Y-45777990D02*
X335222010Y-39312010D01*
X334010000Y-46990000D02*
X335222010Y-45777990D01*
X334010000Y-38100000D02*
X334010000Y-31750000D01*
X335222010Y-39312010D02*
X334010000Y-38100000D01*
X334010000Y-48260000D02*
X334010000Y-237490000D01*
%TO.N,Net-(J227-Pad1)*%
X336550000Y-48260000D02*
X336550000Y-46990000D01*
X337762010Y-45777990D02*
X337762010Y-39312010D01*
X336550000Y-46990000D02*
X337762010Y-45777990D01*
X337762010Y-39312010D02*
X336550000Y-38100000D01*
X336550000Y-38100000D02*
X336550000Y-31750000D01*
X336550000Y-48260000D02*
X336550000Y-238760000D01*
X336550000Y-238760000D02*
X336550000Y-237490000D01*
%TO.N,Net-(J228-Pad1)*%
X339090000Y-48260000D02*
X339090000Y-46990000D01*
X340302010Y-45777990D02*
X340302010Y-39312010D01*
X339090000Y-46990000D02*
X340302010Y-45777990D01*
X339090000Y-38100000D02*
X339090000Y-31750000D01*
X340302010Y-39312010D02*
X339090000Y-38100000D01*
X339090000Y-48260000D02*
X339090000Y-237490000D01*
%TO.N,Net-(J229-Pad1)*%
X341630000Y-48260000D02*
X341630000Y-46990000D01*
X342842010Y-45777990D02*
X342842010Y-39312010D01*
X341630000Y-46990000D02*
X342842010Y-45777990D01*
X341630000Y-38100000D02*
X341630000Y-31750000D01*
X342842010Y-39312010D02*
X341630000Y-38100000D01*
X341630000Y-48260000D02*
X341630000Y-237490000D01*
%TO.N,Net-(J230-Pad1)*%
X344170000Y-48260000D02*
X344170000Y-46990000D01*
X345382010Y-45777990D02*
X345382010Y-39312010D01*
X344170000Y-46990000D02*
X345382010Y-45777990D01*
X344170000Y-38100000D02*
X344170000Y-31750000D01*
X345382010Y-39312010D02*
X344170000Y-38100000D01*
X344170000Y-48260000D02*
X344170000Y-237490000D01*
%TO.N,Net-(J231-Pad1)*%
X346710000Y-48260000D02*
X346710000Y-46990000D01*
X347922010Y-45777990D02*
X347922010Y-39312010D01*
X346710000Y-46990000D02*
X347922010Y-45777990D01*
X346710000Y-38100000D02*
X346710000Y-31750000D01*
X347922010Y-39312010D02*
X346710000Y-38100000D01*
X346710000Y-48260000D02*
X346710000Y-237490000D01*
%TO.N,Net-(J232-Pad1)*%
X349250000Y-48260000D02*
X349250000Y-46990000D01*
X350462010Y-45777990D02*
X350462010Y-39312010D01*
X349250000Y-46990000D02*
X350462010Y-45777990D01*
X349250000Y-38100000D02*
X349250000Y-31750000D01*
X350462010Y-39312010D02*
X349250000Y-38100000D01*
X349250000Y-48260000D02*
X349250000Y-237490000D01*
%TD*%
M02*
