M48
; DRILL file {KiCad 5.1.9+dfsg1-1~bpo10+1} date Mon Aug 30 17:30:18 2021
; FORMAT={-:-/ absolute / inch / decimal}
; #@! TF.CreationDate,2021-08-30T17:30:18+01:00
; #@! TF.GenerationSoftware,Kicad,Pcbnew,5.1.9+dfsg1-1~bpo10+1
; #@! TF.FileFunction,Plated,1,2,PTH
FMAT,2
INCH
T1C0.0394
%
G90
G05
T1
X3.0Y-1.7
X3.078Y-1.9
X3.156Y-1.7
X3.234Y-1.9
X3.312Y-1.7
X3.39Y-1.9
X3.468Y-1.7
X3.546Y-1.9
X3.624Y-1.7
X3.702Y-1.9
X3.78Y-1.7
X3.858Y-1.9
X3.936Y-1.7
X4.014Y-1.9
X4.092Y-1.7
X4.17Y-1.9
X4.248Y-1.7
X4.326Y-1.9
X4.404Y-1.7
X4.482Y-1.9
X4.56Y-1.7
X4.638Y-1.9
X4.716Y-1.7
X4.794Y-1.9
X4.872Y-1.7
X4.95Y-1.9
X5.028Y-1.7
X5.106Y-1.9
X5.184Y-1.7
X5.262Y-1.9
X5.34Y-1.7
X5.418Y-1.9
X5.496Y-1.7
X5.574Y-1.9
X5.652Y-1.7
X5.73Y-1.9
X5.808Y-1.7
X5.886Y-1.9
X5.964Y-1.7
X6.042Y-1.9
X6.12Y-1.7
X6.198Y-1.9
X6.276Y-1.7
X6.354Y-1.9
X6.432Y-1.7
X6.51Y-1.9
X6.588Y-1.7
X6.666Y-1.9
X6.744Y-1.7
X6.822Y-1.9
X6.9Y-1.7
X6.978Y-1.9
X7.056Y-1.7
X7.134Y-1.9
X7.212Y-1.7
X7.29Y-1.9
X7.368Y-1.7
X7.446Y-1.9
X7.524Y-1.7
X7.602Y-1.9
X7.68Y-1.7
X7.758Y-1.9
X7.836Y-1.7
X7.914Y-1.9
X7.992Y-1.7
X8.07Y-1.9
X8.148Y-1.7
X8.226Y-1.9
X8.304Y-1.7
X8.382Y-1.9
X8.46Y-1.7
X8.538Y-1.9
X8.616Y-1.7
X8.694Y-1.9
X8.772Y-1.7
X8.85Y-1.9
X8.928Y-1.7
X9.006Y-1.9
X9.084Y-1.7
X9.162Y-1.9
X9.24Y-1.7
X9.318Y-1.9
X9.396Y-1.7
X9.474Y-1.9
X9.552Y-1.7
X9.63Y-1.9
X10.85Y-1.7
X10.85Y-1.9
X10.95Y-1.7
X10.95Y-1.9
X11.05Y-1.7
X11.05Y-1.9
X11.15Y-1.7
X11.15Y-1.9
X11.25Y-1.7
X11.25Y-1.9
X11.35Y-1.7
X11.35Y-1.9
X11.45Y-1.7
X11.45Y-1.9
X11.55Y-1.7
X11.55Y-1.9
X11.65Y-1.7
X11.65Y-1.9
X11.75Y-1.7
X11.75Y-1.9
X11.85Y-1.7
X11.85Y-1.9
X11.95Y-1.7
X11.95Y-1.9
X12.05Y-1.7
X12.05Y-1.9
X12.15Y-1.7
X12.15Y-1.9
X12.25Y-1.7
X12.25Y-1.9
X12.35Y-1.7
X12.35Y-1.9
X12.45Y-1.7
X12.45Y-1.9
X12.55Y-1.7
X12.55Y-1.9
X12.65Y-1.7
X12.65Y-1.9
X12.75Y-1.7
X12.75Y-1.9
X12.85Y-1.7
X12.85Y-1.9
X12.95Y-1.7
X12.95Y-1.9
X13.05Y-1.7
X13.05Y-1.9
X13.15Y-1.7
X13.15Y-1.9
X13.25Y-1.7
X13.25Y-1.9
X13.35Y-1.7
X13.35Y-1.9
X13.45Y-1.7
X13.45Y-1.9
X13.55Y-1.7
X13.55Y-1.9
X13.65Y-1.7
X13.65Y-1.9
X13.75Y-1.7
X13.75Y-1.9
T0
M30
