%TF.GenerationSoftware,KiCad,Pcbnew,5.1.9+dfsg1-1~bpo10+1*%
%TF.CreationDate,2021-08-30T17:30:26+01:00*%
%TF.ProjectId,MBext,4d426578-742e-46b6-9963-61645f706362,0*%
%TF.SameCoordinates,Original*%
%TF.FileFunction,Legend,Bot*%
%TF.FilePolarity,Positive*%
%FSLAX46Y46*%
G04 Gerber Fmt 4.6, Leading zero omitted, Abs format (unit mm)*
G04 Created by KiCad (PCBNEW 5.1.9+dfsg1-1~bpo10+1) date 2021-08-30 17:30:26*
%MOMM*%
%LPD*%
G01*
G04 APERTURE LIST*
%ADD10C,0.150000*%
G04 APERTURE END LIST*
%TO.C,P1_2*%
D10*
X75747619Y-232126071D02*
X76747619Y-232126071D01*
X76747619Y-231745119D01*
X76700000Y-231649880D01*
X76652380Y-231602261D01*
X76557142Y-231554642D01*
X76414285Y-231554642D01*
X76319047Y-231602261D01*
X76271428Y-231649880D01*
X76223809Y-231745119D01*
X76223809Y-232126071D01*
X75747619Y-230602261D02*
X75747619Y-231173690D01*
X75747619Y-230887976D02*
X76747619Y-230887976D01*
X76604761Y-230983214D01*
X76509523Y-231078452D01*
X76461904Y-231173690D01*
X75652380Y-230411785D02*
X75652380Y-229649880D01*
X76652380Y-229459404D02*
X76700000Y-229411785D01*
X76747619Y-229316547D01*
X76747619Y-229078452D01*
X76700000Y-228983214D01*
X76652380Y-228935595D01*
X76557142Y-228887976D01*
X76461904Y-228887976D01*
X76319047Y-228935595D01*
X75747619Y-229507023D01*
X75747619Y-228887976D01*
%TO.C,P1_4*%
X79710019Y-232126071D02*
X80710019Y-232126071D01*
X80710019Y-231745119D01*
X80662400Y-231649880D01*
X80614780Y-231602261D01*
X80519542Y-231554642D01*
X80376685Y-231554642D01*
X80281447Y-231602261D01*
X80233828Y-231649880D01*
X80186209Y-231745119D01*
X80186209Y-232126071D01*
X79710019Y-230602261D02*
X79710019Y-231173690D01*
X79710019Y-230887976D02*
X80710019Y-230887976D01*
X80567161Y-230983214D01*
X80471923Y-231078452D01*
X80424304Y-231173690D01*
X79614780Y-230411785D02*
X79614780Y-229649880D01*
X80376685Y-228983214D02*
X79710019Y-228983214D01*
X80757638Y-229221309D02*
X80043352Y-229459404D01*
X80043352Y-228840357D01*
%TO.C,P1_6*%
X83672419Y-232126071D02*
X84672419Y-232126071D01*
X84672419Y-231745119D01*
X84624800Y-231649880D01*
X84577180Y-231602261D01*
X84481942Y-231554642D01*
X84339085Y-231554642D01*
X84243847Y-231602261D01*
X84196228Y-231649880D01*
X84148609Y-231745119D01*
X84148609Y-232126071D01*
X83672419Y-230602261D02*
X83672419Y-231173690D01*
X83672419Y-230887976D02*
X84672419Y-230887976D01*
X84529561Y-230983214D01*
X84434323Y-231078452D01*
X84386704Y-231173690D01*
X83577180Y-230411785D02*
X83577180Y-229649880D01*
X84672419Y-228983214D02*
X84672419Y-229173690D01*
X84624800Y-229268928D01*
X84577180Y-229316547D01*
X84434323Y-229411785D01*
X84243847Y-229459404D01*
X83862895Y-229459404D01*
X83767657Y-229411785D01*
X83720038Y-229364166D01*
X83672419Y-229268928D01*
X83672419Y-229078452D01*
X83720038Y-228983214D01*
X83767657Y-228935595D01*
X83862895Y-228887976D01*
X84100990Y-228887976D01*
X84196228Y-228935595D01*
X84243847Y-228983214D01*
X84291466Y-229078452D01*
X84291466Y-229268928D01*
X84243847Y-229364166D01*
X84196228Y-229411785D01*
X84100990Y-229459404D01*
%TO.C,P1_8*%
X87634819Y-232126071D02*
X88634819Y-232126071D01*
X88634819Y-231745119D01*
X88587200Y-231649880D01*
X88539580Y-231602261D01*
X88444342Y-231554642D01*
X88301485Y-231554642D01*
X88206247Y-231602261D01*
X88158628Y-231649880D01*
X88111009Y-231745119D01*
X88111009Y-232126071D01*
X87634819Y-230602261D02*
X87634819Y-231173690D01*
X87634819Y-230887976D02*
X88634819Y-230887976D01*
X88491961Y-230983214D01*
X88396723Y-231078452D01*
X88349104Y-231173690D01*
X87539580Y-230411785D02*
X87539580Y-229649880D01*
X88206247Y-229268928D02*
X88253866Y-229364166D01*
X88301485Y-229411785D01*
X88396723Y-229459404D01*
X88444342Y-229459404D01*
X88539580Y-229411785D01*
X88587200Y-229364166D01*
X88634819Y-229268928D01*
X88634819Y-229078452D01*
X88587200Y-228983214D01*
X88539580Y-228935595D01*
X88444342Y-228887976D01*
X88396723Y-228887976D01*
X88301485Y-228935595D01*
X88253866Y-228983214D01*
X88206247Y-229078452D01*
X88206247Y-229268928D01*
X88158628Y-229364166D01*
X88111009Y-229411785D01*
X88015771Y-229459404D01*
X87825295Y-229459404D01*
X87730057Y-229411785D01*
X87682438Y-229364166D01*
X87634819Y-229268928D01*
X87634819Y-229078452D01*
X87682438Y-228983214D01*
X87730057Y-228935595D01*
X87825295Y-228887976D01*
X88015771Y-228887976D01*
X88111009Y-228935595D01*
X88158628Y-228983214D01*
X88206247Y-229078452D01*
%TO.C,P1_10*%
X91597219Y-231808452D02*
X92597219Y-231808452D01*
X92597219Y-231427500D01*
X92549600Y-231332261D01*
X92501980Y-231284642D01*
X92406742Y-231237023D01*
X92263885Y-231237023D01*
X92168647Y-231284642D01*
X92121028Y-231332261D01*
X92073409Y-231427500D01*
X92073409Y-231808452D01*
X91597219Y-230284642D02*
X91597219Y-230856071D01*
X91597219Y-230570357D02*
X92597219Y-230570357D01*
X92454361Y-230665595D01*
X92359123Y-230760833D01*
X92311504Y-230856071D01*
X91501980Y-230094166D02*
X91501980Y-229332261D01*
X91597219Y-228570357D02*
X91597219Y-229141785D01*
X91597219Y-228856071D02*
X92597219Y-228856071D01*
X92454361Y-228951309D01*
X92359123Y-229046547D01*
X92311504Y-229141785D01*
X92597219Y-227951309D02*
X92597219Y-227856071D01*
X92549600Y-227760833D01*
X92501980Y-227713214D01*
X92406742Y-227665595D01*
X92216266Y-227617976D01*
X91978171Y-227617976D01*
X91787695Y-227665595D01*
X91692457Y-227713214D01*
X91644838Y-227760833D01*
X91597219Y-227856071D01*
X91597219Y-227951309D01*
X91644838Y-228046547D01*
X91692457Y-228094166D01*
X91787695Y-228141785D01*
X91978171Y-228189404D01*
X92216266Y-228189404D01*
X92406742Y-228141785D01*
X92501980Y-228094166D01*
X92549600Y-228046547D01*
X92597219Y-227951309D01*
%TO.C,P1_12*%
X95559619Y-231808452D02*
X96559619Y-231808452D01*
X96559619Y-231427500D01*
X96512000Y-231332261D01*
X96464380Y-231284642D01*
X96369142Y-231237023D01*
X96226285Y-231237023D01*
X96131047Y-231284642D01*
X96083428Y-231332261D01*
X96035809Y-231427500D01*
X96035809Y-231808452D01*
X95559619Y-230284642D02*
X95559619Y-230856071D01*
X95559619Y-230570357D02*
X96559619Y-230570357D01*
X96416761Y-230665595D01*
X96321523Y-230760833D01*
X96273904Y-230856071D01*
X95464380Y-230094166D02*
X95464380Y-229332261D01*
X95559619Y-228570357D02*
X95559619Y-229141785D01*
X95559619Y-228856071D02*
X96559619Y-228856071D01*
X96416761Y-228951309D01*
X96321523Y-229046547D01*
X96273904Y-229141785D01*
X96464380Y-228189404D02*
X96512000Y-228141785D01*
X96559619Y-228046547D01*
X96559619Y-227808452D01*
X96512000Y-227713214D01*
X96464380Y-227665595D01*
X96369142Y-227617976D01*
X96273904Y-227617976D01*
X96131047Y-227665595D01*
X95559619Y-228237023D01*
X95559619Y-227617976D01*
%TO.C,P1_14*%
X99522019Y-231808452D02*
X100522019Y-231808452D01*
X100522019Y-231427500D01*
X100474400Y-231332261D01*
X100426780Y-231284642D01*
X100331542Y-231237023D01*
X100188685Y-231237023D01*
X100093447Y-231284642D01*
X100045828Y-231332261D01*
X99998209Y-231427500D01*
X99998209Y-231808452D01*
X99522019Y-230284642D02*
X99522019Y-230856071D01*
X99522019Y-230570357D02*
X100522019Y-230570357D01*
X100379161Y-230665595D01*
X100283923Y-230760833D01*
X100236304Y-230856071D01*
X99426780Y-230094166D02*
X99426780Y-229332261D01*
X99522019Y-228570357D02*
X99522019Y-229141785D01*
X99522019Y-228856071D02*
X100522019Y-228856071D01*
X100379161Y-228951309D01*
X100283923Y-229046547D01*
X100236304Y-229141785D01*
X100188685Y-227713214D02*
X99522019Y-227713214D01*
X100569638Y-227951309D02*
X99855352Y-228189404D01*
X99855352Y-227570357D01*
%TO.C,P1_16*%
X103484419Y-231808452D02*
X104484419Y-231808452D01*
X104484419Y-231427500D01*
X104436800Y-231332261D01*
X104389180Y-231284642D01*
X104293942Y-231237023D01*
X104151085Y-231237023D01*
X104055847Y-231284642D01*
X104008228Y-231332261D01*
X103960609Y-231427500D01*
X103960609Y-231808452D01*
X103484419Y-230284642D02*
X103484419Y-230856071D01*
X103484419Y-230570357D02*
X104484419Y-230570357D01*
X104341561Y-230665595D01*
X104246323Y-230760833D01*
X104198704Y-230856071D01*
X103389180Y-230094166D02*
X103389180Y-229332261D01*
X103484419Y-228570357D02*
X103484419Y-229141785D01*
X103484419Y-228856071D02*
X104484419Y-228856071D01*
X104341561Y-228951309D01*
X104246323Y-229046547D01*
X104198704Y-229141785D01*
X104484419Y-227713214D02*
X104484419Y-227903690D01*
X104436800Y-227998928D01*
X104389180Y-228046547D01*
X104246323Y-228141785D01*
X104055847Y-228189404D01*
X103674895Y-228189404D01*
X103579657Y-228141785D01*
X103532038Y-228094166D01*
X103484419Y-227998928D01*
X103484419Y-227808452D01*
X103532038Y-227713214D01*
X103579657Y-227665595D01*
X103674895Y-227617976D01*
X103912990Y-227617976D01*
X104008228Y-227665595D01*
X104055847Y-227713214D01*
X104103466Y-227808452D01*
X104103466Y-227998928D01*
X104055847Y-228094166D01*
X104008228Y-228141785D01*
X103912990Y-228189404D01*
%TO.C,P1_18*%
X107446819Y-231808452D02*
X108446819Y-231808452D01*
X108446819Y-231427500D01*
X108399200Y-231332261D01*
X108351580Y-231284642D01*
X108256342Y-231237023D01*
X108113485Y-231237023D01*
X108018247Y-231284642D01*
X107970628Y-231332261D01*
X107923009Y-231427500D01*
X107923009Y-231808452D01*
X107446819Y-230284642D02*
X107446819Y-230856071D01*
X107446819Y-230570357D02*
X108446819Y-230570357D01*
X108303961Y-230665595D01*
X108208723Y-230760833D01*
X108161104Y-230856071D01*
X107351580Y-230094166D02*
X107351580Y-229332261D01*
X107446819Y-228570357D02*
X107446819Y-229141785D01*
X107446819Y-228856071D02*
X108446819Y-228856071D01*
X108303961Y-228951309D01*
X108208723Y-229046547D01*
X108161104Y-229141785D01*
X108018247Y-227998928D02*
X108065866Y-228094166D01*
X108113485Y-228141785D01*
X108208723Y-228189404D01*
X108256342Y-228189404D01*
X108351580Y-228141785D01*
X108399200Y-228094166D01*
X108446819Y-227998928D01*
X108446819Y-227808452D01*
X108399200Y-227713214D01*
X108351580Y-227665595D01*
X108256342Y-227617976D01*
X108208723Y-227617976D01*
X108113485Y-227665595D01*
X108065866Y-227713214D01*
X108018247Y-227808452D01*
X108018247Y-227998928D01*
X107970628Y-228094166D01*
X107923009Y-228141785D01*
X107827771Y-228189404D01*
X107637295Y-228189404D01*
X107542057Y-228141785D01*
X107494438Y-228094166D01*
X107446819Y-227998928D01*
X107446819Y-227808452D01*
X107494438Y-227713214D01*
X107542057Y-227665595D01*
X107637295Y-227617976D01*
X107827771Y-227617976D01*
X107923009Y-227665595D01*
X107970628Y-227713214D01*
X108018247Y-227808452D01*
%TO.C,P1_20*%
X111409219Y-231808452D02*
X112409219Y-231808452D01*
X112409219Y-231427500D01*
X112361600Y-231332261D01*
X112313980Y-231284642D01*
X112218742Y-231237023D01*
X112075885Y-231237023D01*
X111980647Y-231284642D01*
X111933028Y-231332261D01*
X111885409Y-231427500D01*
X111885409Y-231808452D01*
X111409219Y-230284642D02*
X111409219Y-230856071D01*
X111409219Y-230570357D02*
X112409219Y-230570357D01*
X112266361Y-230665595D01*
X112171123Y-230760833D01*
X112123504Y-230856071D01*
X111313980Y-230094166D02*
X111313980Y-229332261D01*
X112313980Y-229141785D02*
X112361600Y-229094166D01*
X112409219Y-228998928D01*
X112409219Y-228760833D01*
X112361600Y-228665595D01*
X112313980Y-228617976D01*
X112218742Y-228570357D01*
X112123504Y-228570357D01*
X111980647Y-228617976D01*
X111409219Y-229189404D01*
X111409219Y-228570357D01*
X112409219Y-227951309D02*
X112409219Y-227856071D01*
X112361600Y-227760833D01*
X112313980Y-227713214D01*
X112218742Y-227665595D01*
X112028266Y-227617976D01*
X111790171Y-227617976D01*
X111599695Y-227665595D01*
X111504457Y-227713214D01*
X111456838Y-227760833D01*
X111409219Y-227856071D01*
X111409219Y-227951309D01*
X111456838Y-228046547D01*
X111504457Y-228094166D01*
X111599695Y-228141785D01*
X111790171Y-228189404D01*
X112028266Y-228189404D01*
X112218742Y-228141785D01*
X112313980Y-228094166D01*
X112361600Y-228046547D01*
X112409219Y-227951309D01*
%TO.C,P1_22*%
X115371619Y-231808452D02*
X116371619Y-231808452D01*
X116371619Y-231427500D01*
X116324000Y-231332261D01*
X116276380Y-231284642D01*
X116181142Y-231237023D01*
X116038285Y-231237023D01*
X115943047Y-231284642D01*
X115895428Y-231332261D01*
X115847809Y-231427500D01*
X115847809Y-231808452D01*
X115371619Y-230284642D02*
X115371619Y-230856071D01*
X115371619Y-230570357D02*
X116371619Y-230570357D01*
X116228761Y-230665595D01*
X116133523Y-230760833D01*
X116085904Y-230856071D01*
X115276380Y-230094166D02*
X115276380Y-229332261D01*
X116276380Y-229141785D02*
X116324000Y-229094166D01*
X116371619Y-228998928D01*
X116371619Y-228760833D01*
X116324000Y-228665595D01*
X116276380Y-228617976D01*
X116181142Y-228570357D01*
X116085904Y-228570357D01*
X115943047Y-228617976D01*
X115371619Y-229189404D01*
X115371619Y-228570357D01*
X116276380Y-228189404D02*
X116324000Y-228141785D01*
X116371619Y-228046547D01*
X116371619Y-227808452D01*
X116324000Y-227713214D01*
X116276380Y-227665595D01*
X116181142Y-227617976D01*
X116085904Y-227617976D01*
X115943047Y-227665595D01*
X115371619Y-228237023D01*
X115371619Y-227617976D01*
%TO.C,P1_24*%
X119334019Y-231808452D02*
X120334019Y-231808452D01*
X120334019Y-231427500D01*
X120286400Y-231332261D01*
X120238780Y-231284642D01*
X120143542Y-231237023D01*
X120000685Y-231237023D01*
X119905447Y-231284642D01*
X119857828Y-231332261D01*
X119810209Y-231427500D01*
X119810209Y-231808452D01*
X119334019Y-230284642D02*
X119334019Y-230856071D01*
X119334019Y-230570357D02*
X120334019Y-230570357D01*
X120191161Y-230665595D01*
X120095923Y-230760833D01*
X120048304Y-230856071D01*
X119238780Y-230094166D02*
X119238780Y-229332261D01*
X120238780Y-229141785D02*
X120286400Y-229094166D01*
X120334019Y-228998928D01*
X120334019Y-228760833D01*
X120286400Y-228665595D01*
X120238780Y-228617976D01*
X120143542Y-228570357D01*
X120048304Y-228570357D01*
X119905447Y-228617976D01*
X119334019Y-229189404D01*
X119334019Y-228570357D01*
X120000685Y-227713214D02*
X119334019Y-227713214D01*
X120381638Y-227951309D02*
X119667352Y-228189404D01*
X119667352Y-227570357D01*
%TO.C,P1_26*%
X123296419Y-231808452D02*
X124296419Y-231808452D01*
X124296419Y-231427500D01*
X124248800Y-231332261D01*
X124201180Y-231284642D01*
X124105942Y-231237023D01*
X123963085Y-231237023D01*
X123867847Y-231284642D01*
X123820228Y-231332261D01*
X123772609Y-231427500D01*
X123772609Y-231808452D01*
X123296419Y-230284642D02*
X123296419Y-230856071D01*
X123296419Y-230570357D02*
X124296419Y-230570357D01*
X124153561Y-230665595D01*
X124058323Y-230760833D01*
X124010704Y-230856071D01*
X123201180Y-230094166D02*
X123201180Y-229332261D01*
X124201180Y-229141785D02*
X124248800Y-229094166D01*
X124296419Y-228998928D01*
X124296419Y-228760833D01*
X124248800Y-228665595D01*
X124201180Y-228617976D01*
X124105942Y-228570357D01*
X124010704Y-228570357D01*
X123867847Y-228617976D01*
X123296419Y-229189404D01*
X123296419Y-228570357D01*
X124296419Y-227713214D02*
X124296419Y-227903690D01*
X124248800Y-227998928D01*
X124201180Y-228046547D01*
X124058323Y-228141785D01*
X123867847Y-228189404D01*
X123486895Y-228189404D01*
X123391657Y-228141785D01*
X123344038Y-228094166D01*
X123296419Y-227998928D01*
X123296419Y-227808452D01*
X123344038Y-227713214D01*
X123391657Y-227665595D01*
X123486895Y-227617976D01*
X123724990Y-227617976D01*
X123820228Y-227665595D01*
X123867847Y-227713214D01*
X123915466Y-227808452D01*
X123915466Y-227998928D01*
X123867847Y-228094166D01*
X123820228Y-228141785D01*
X123724990Y-228189404D01*
%TO.C,P1_28*%
X127258819Y-231808452D02*
X128258819Y-231808452D01*
X128258819Y-231427500D01*
X128211200Y-231332261D01*
X128163580Y-231284642D01*
X128068342Y-231237023D01*
X127925485Y-231237023D01*
X127830247Y-231284642D01*
X127782628Y-231332261D01*
X127735009Y-231427500D01*
X127735009Y-231808452D01*
X127258819Y-230284642D02*
X127258819Y-230856071D01*
X127258819Y-230570357D02*
X128258819Y-230570357D01*
X128115961Y-230665595D01*
X128020723Y-230760833D01*
X127973104Y-230856071D01*
X127163580Y-230094166D02*
X127163580Y-229332261D01*
X128163580Y-229141785D02*
X128211200Y-229094166D01*
X128258819Y-228998928D01*
X128258819Y-228760833D01*
X128211200Y-228665595D01*
X128163580Y-228617976D01*
X128068342Y-228570357D01*
X127973104Y-228570357D01*
X127830247Y-228617976D01*
X127258819Y-229189404D01*
X127258819Y-228570357D01*
X127830247Y-227998928D02*
X127877866Y-228094166D01*
X127925485Y-228141785D01*
X128020723Y-228189404D01*
X128068342Y-228189404D01*
X128163580Y-228141785D01*
X128211200Y-228094166D01*
X128258819Y-227998928D01*
X128258819Y-227808452D01*
X128211200Y-227713214D01*
X128163580Y-227665595D01*
X128068342Y-227617976D01*
X128020723Y-227617976D01*
X127925485Y-227665595D01*
X127877866Y-227713214D01*
X127830247Y-227808452D01*
X127830247Y-227998928D01*
X127782628Y-228094166D01*
X127735009Y-228141785D01*
X127639771Y-228189404D01*
X127449295Y-228189404D01*
X127354057Y-228141785D01*
X127306438Y-228094166D01*
X127258819Y-227998928D01*
X127258819Y-227808452D01*
X127306438Y-227713214D01*
X127354057Y-227665595D01*
X127449295Y-227617976D01*
X127639771Y-227617976D01*
X127735009Y-227665595D01*
X127782628Y-227713214D01*
X127830247Y-227808452D01*
%TO.C,P1_30*%
X131221219Y-231808452D02*
X132221219Y-231808452D01*
X132221219Y-231427500D01*
X132173600Y-231332261D01*
X132125980Y-231284642D01*
X132030742Y-231237023D01*
X131887885Y-231237023D01*
X131792647Y-231284642D01*
X131745028Y-231332261D01*
X131697409Y-231427500D01*
X131697409Y-231808452D01*
X131221219Y-230284642D02*
X131221219Y-230856071D01*
X131221219Y-230570357D02*
X132221219Y-230570357D01*
X132078361Y-230665595D01*
X131983123Y-230760833D01*
X131935504Y-230856071D01*
X131125980Y-230094166D02*
X131125980Y-229332261D01*
X132221219Y-229189404D02*
X132221219Y-228570357D01*
X131840266Y-228903690D01*
X131840266Y-228760833D01*
X131792647Y-228665595D01*
X131745028Y-228617976D01*
X131649790Y-228570357D01*
X131411695Y-228570357D01*
X131316457Y-228617976D01*
X131268838Y-228665595D01*
X131221219Y-228760833D01*
X131221219Y-229046547D01*
X131268838Y-229141785D01*
X131316457Y-229189404D01*
X132221219Y-227951309D02*
X132221219Y-227856071D01*
X132173600Y-227760833D01*
X132125980Y-227713214D01*
X132030742Y-227665595D01*
X131840266Y-227617976D01*
X131602171Y-227617976D01*
X131411695Y-227665595D01*
X131316457Y-227713214D01*
X131268838Y-227760833D01*
X131221219Y-227856071D01*
X131221219Y-227951309D01*
X131268838Y-228046547D01*
X131316457Y-228094166D01*
X131411695Y-228141785D01*
X131602171Y-228189404D01*
X131840266Y-228189404D01*
X132030742Y-228141785D01*
X132125980Y-228094166D01*
X132173600Y-228046547D01*
X132221219Y-227951309D01*
%TO.C,P1_32*%
X135183619Y-231808452D02*
X136183619Y-231808452D01*
X136183619Y-231427500D01*
X136136000Y-231332261D01*
X136088380Y-231284642D01*
X135993142Y-231237023D01*
X135850285Y-231237023D01*
X135755047Y-231284642D01*
X135707428Y-231332261D01*
X135659809Y-231427500D01*
X135659809Y-231808452D01*
X135183619Y-230284642D02*
X135183619Y-230856071D01*
X135183619Y-230570357D02*
X136183619Y-230570357D01*
X136040761Y-230665595D01*
X135945523Y-230760833D01*
X135897904Y-230856071D01*
X135088380Y-230094166D02*
X135088380Y-229332261D01*
X136183619Y-229189404D02*
X136183619Y-228570357D01*
X135802666Y-228903690D01*
X135802666Y-228760833D01*
X135755047Y-228665595D01*
X135707428Y-228617976D01*
X135612190Y-228570357D01*
X135374095Y-228570357D01*
X135278857Y-228617976D01*
X135231238Y-228665595D01*
X135183619Y-228760833D01*
X135183619Y-229046547D01*
X135231238Y-229141785D01*
X135278857Y-229189404D01*
X136088380Y-228189404D02*
X136136000Y-228141785D01*
X136183619Y-228046547D01*
X136183619Y-227808452D01*
X136136000Y-227713214D01*
X136088380Y-227665595D01*
X135993142Y-227617976D01*
X135897904Y-227617976D01*
X135755047Y-227665595D01*
X135183619Y-228237023D01*
X135183619Y-227617976D01*
%TO.C,P1_34*%
X139146019Y-231808452D02*
X140146019Y-231808452D01*
X140146019Y-231427500D01*
X140098400Y-231332261D01*
X140050780Y-231284642D01*
X139955542Y-231237023D01*
X139812685Y-231237023D01*
X139717447Y-231284642D01*
X139669828Y-231332261D01*
X139622209Y-231427500D01*
X139622209Y-231808452D01*
X139146019Y-230284642D02*
X139146019Y-230856071D01*
X139146019Y-230570357D02*
X140146019Y-230570357D01*
X140003161Y-230665595D01*
X139907923Y-230760833D01*
X139860304Y-230856071D01*
X139050780Y-230094166D02*
X139050780Y-229332261D01*
X140146019Y-229189404D02*
X140146019Y-228570357D01*
X139765066Y-228903690D01*
X139765066Y-228760833D01*
X139717447Y-228665595D01*
X139669828Y-228617976D01*
X139574590Y-228570357D01*
X139336495Y-228570357D01*
X139241257Y-228617976D01*
X139193638Y-228665595D01*
X139146019Y-228760833D01*
X139146019Y-229046547D01*
X139193638Y-229141785D01*
X139241257Y-229189404D01*
X139812685Y-227713214D02*
X139146019Y-227713214D01*
X140193638Y-227951309D02*
X139479352Y-228189404D01*
X139479352Y-227570357D01*
%TO.C,P1_36*%
X143108419Y-231808452D02*
X144108419Y-231808452D01*
X144108419Y-231427500D01*
X144060800Y-231332261D01*
X144013180Y-231284642D01*
X143917942Y-231237023D01*
X143775085Y-231237023D01*
X143679847Y-231284642D01*
X143632228Y-231332261D01*
X143584609Y-231427500D01*
X143584609Y-231808452D01*
X143108419Y-230284642D02*
X143108419Y-230856071D01*
X143108419Y-230570357D02*
X144108419Y-230570357D01*
X143965561Y-230665595D01*
X143870323Y-230760833D01*
X143822704Y-230856071D01*
X143013180Y-230094166D02*
X143013180Y-229332261D01*
X144108419Y-229189404D02*
X144108419Y-228570357D01*
X143727466Y-228903690D01*
X143727466Y-228760833D01*
X143679847Y-228665595D01*
X143632228Y-228617976D01*
X143536990Y-228570357D01*
X143298895Y-228570357D01*
X143203657Y-228617976D01*
X143156038Y-228665595D01*
X143108419Y-228760833D01*
X143108419Y-229046547D01*
X143156038Y-229141785D01*
X143203657Y-229189404D01*
X144108419Y-227713214D02*
X144108419Y-227903690D01*
X144060800Y-227998928D01*
X144013180Y-228046547D01*
X143870323Y-228141785D01*
X143679847Y-228189404D01*
X143298895Y-228189404D01*
X143203657Y-228141785D01*
X143156038Y-228094166D01*
X143108419Y-227998928D01*
X143108419Y-227808452D01*
X143156038Y-227713214D01*
X143203657Y-227665595D01*
X143298895Y-227617976D01*
X143536990Y-227617976D01*
X143632228Y-227665595D01*
X143679847Y-227713214D01*
X143727466Y-227808452D01*
X143727466Y-227998928D01*
X143679847Y-228094166D01*
X143632228Y-228141785D01*
X143536990Y-228189404D01*
%TO.C,P1_38*%
X147070819Y-231808452D02*
X148070819Y-231808452D01*
X148070819Y-231427500D01*
X148023200Y-231332261D01*
X147975580Y-231284642D01*
X147880342Y-231237023D01*
X147737485Y-231237023D01*
X147642247Y-231284642D01*
X147594628Y-231332261D01*
X147547009Y-231427500D01*
X147547009Y-231808452D01*
X147070819Y-230284642D02*
X147070819Y-230856071D01*
X147070819Y-230570357D02*
X148070819Y-230570357D01*
X147927961Y-230665595D01*
X147832723Y-230760833D01*
X147785104Y-230856071D01*
X146975580Y-230094166D02*
X146975580Y-229332261D01*
X148070819Y-229189404D02*
X148070819Y-228570357D01*
X147689866Y-228903690D01*
X147689866Y-228760833D01*
X147642247Y-228665595D01*
X147594628Y-228617976D01*
X147499390Y-228570357D01*
X147261295Y-228570357D01*
X147166057Y-228617976D01*
X147118438Y-228665595D01*
X147070819Y-228760833D01*
X147070819Y-229046547D01*
X147118438Y-229141785D01*
X147166057Y-229189404D01*
X147642247Y-227998928D02*
X147689866Y-228094166D01*
X147737485Y-228141785D01*
X147832723Y-228189404D01*
X147880342Y-228189404D01*
X147975580Y-228141785D01*
X148023200Y-228094166D01*
X148070819Y-227998928D01*
X148070819Y-227808452D01*
X148023200Y-227713214D01*
X147975580Y-227665595D01*
X147880342Y-227617976D01*
X147832723Y-227617976D01*
X147737485Y-227665595D01*
X147689866Y-227713214D01*
X147642247Y-227808452D01*
X147642247Y-227998928D01*
X147594628Y-228094166D01*
X147547009Y-228141785D01*
X147451771Y-228189404D01*
X147261295Y-228189404D01*
X147166057Y-228141785D01*
X147118438Y-228094166D01*
X147070819Y-227998928D01*
X147070819Y-227808452D01*
X147118438Y-227713214D01*
X147166057Y-227665595D01*
X147261295Y-227617976D01*
X147451771Y-227617976D01*
X147547009Y-227665595D01*
X147594628Y-227713214D01*
X147642247Y-227808452D01*
%TO.C,P1_40*%
X151033219Y-231808452D02*
X152033219Y-231808452D01*
X152033219Y-231427500D01*
X151985600Y-231332261D01*
X151937980Y-231284642D01*
X151842742Y-231237023D01*
X151699885Y-231237023D01*
X151604647Y-231284642D01*
X151557028Y-231332261D01*
X151509409Y-231427500D01*
X151509409Y-231808452D01*
X151033219Y-230284642D02*
X151033219Y-230856071D01*
X151033219Y-230570357D02*
X152033219Y-230570357D01*
X151890361Y-230665595D01*
X151795123Y-230760833D01*
X151747504Y-230856071D01*
X150937980Y-230094166D02*
X150937980Y-229332261D01*
X151699885Y-228665595D02*
X151033219Y-228665595D01*
X152080838Y-228903690D02*
X151366552Y-229141785D01*
X151366552Y-228522738D01*
X152033219Y-227951309D02*
X152033219Y-227856071D01*
X151985600Y-227760833D01*
X151937980Y-227713214D01*
X151842742Y-227665595D01*
X151652266Y-227617976D01*
X151414171Y-227617976D01*
X151223695Y-227665595D01*
X151128457Y-227713214D01*
X151080838Y-227760833D01*
X151033219Y-227856071D01*
X151033219Y-227951309D01*
X151080838Y-228046547D01*
X151128457Y-228094166D01*
X151223695Y-228141785D01*
X151414171Y-228189404D01*
X151652266Y-228189404D01*
X151842742Y-228141785D01*
X151937980Y-228094166D01*
X151985600Y-228046547D01*
X152033219Y-227951309D01*
%TO.C,P1_42*%
X154995619Y-231808452D02*
X155995619Y-231808452D01*
X155995619Y-231427500D01*
X155948000Y-231332261D01*
X155900380Y-231284642D01*
X155805142Y-231237023D01*
X155662285Y-231237023D01*
X155567047Y-231284642D01*
X155519428Y-231332261D01*
X155471809Y-231427500D01*
X155471809Y-231808452D01*
X154995619Y-230284642D02*
X154995619Y-230856071D01*
X154995619Y-230570357D02*
X155995619Y-230570357D01*
X155852761Y-230665595D01*
X155757523Y-230760833D01*
X155709904Y-230856071D01*
X154900380Y-230094166D02*
X154900380Y-229332261D01*
X155662285Y-228665595D02*
X154995619Y-228665595D01*
X156043238Y-228903690D02*
X155328952Y-229141785D01*
X155328952Y-228522738D01*
X155900380Y-228189404D02*
X155948000Y-228141785D01*
X155995619Y-228046547D01*
X155995619Y-227808452D01*
X155948000Y-227713214D01*
X155900380Y-227665595D01*
X155805142Y-227617976D01*
X155709904Y-227617976D01*
X155567047Y-227665595D01*
X154995619Y-228237023D01*
X154995619Y-227617976D01*
%TO.C,P1_44*%
X158958019Y-231808452D02*
X159958019Y-231808452D01*
X159958019Y-231427500D01*
X159910400Y-231332261D01*
X159862780Y-231284642D01*
X159767542Y-231237023D01*
X159624685Y-231237023D01*
X159529447Y-231284642D01*
X159481828Y-231332261D01*
X159434209Y-231427500D01*
X159434209Y-231808452D01*
X158958019Y-230284642D02*
X158958019Y-230856071D01*
X158958019Y-230570357D02*
X159958019Y-230570357D01*
X159815161Y-230665595D01*
X159719923Y-230760833D01*
X159672304Y-230856071D01*
X158862780Y-230094166D02*
X158862780Y-229332261D01*
X159624685Y-228665595D02*
X158958019Y-228665595D01*
X160005638Y-228903690D02*
X159291352Y-229141785D01*
X159291352Y-228522738D01*
X159624685Y-227713214D02*
X158958019Y-227713214D01*
X160005638Y-227951309D02*
X159291352Y-228189404D01*
X159291352Y-227570357D01*
%TO.C,P1_46*%
X162920419Y-231808452D02*
X163920419Y-231808452D01*
X163920419Y-231427500D01*
X163872800Y-231332261D01*
X163825180Y-231284642D01*
X163729942Y-231237023D01*
X163587085Y-231237023D01*
X163491847Y-231284642D01*
X163444228Y-231332261D01*
X163396609Y-231427500D01*
X163396609Y-231808452D01*
X162920419Y-230284642D02*
X162920419Y-230856071D01*
X162920419Y-230570357D02*
X163920419Y-230570357D01*
X163777561Y-230665595D01*
X163682323Y-230760833D01*
X163634704Y-230856071D01*
X162825180Y-230094166D02*
X162825180Y-229332261D01*
X163587085Y-228665595D02*
X162920419Y-228665595D01*
X163968038Y-228903690D02*
X163253752Y-229141785D01*
X163253752Y-228522738D01*
X163920419Y-227713214D02*
X163920419Y-227903690D01*
X163872800Y-227998928D01*
X163825180Y-228046547D01*
X163682323Y-228141785D01*
X163491847Y-228189404D01*
X163110895Y-228189404D01*
X163015657Y-228141785D01*
X162968038Y-228094166D01*
X162920419Y-227998928D01*
X162920419Y-227808452D01*
X162968038Y-227713214D01*
X163015657Y-227665595D01*
X163110895Y-227617976D01*
X163348990Y-227617976D01*
X163444228Y-227665595D01*
X163491847Y-227713214D01*
X163539466Y-227808452D01*
X163539466Y-227998928D01*
X163491847Y-228094166D01*
X163444228Y-228141785D01*
X163348990Y-228189404D01*
%TO.C,P1_48*%
X166882819Y-231808452D02*
X167882819Y-231808452D01*
X167882819Y-231427500D01*
X167835200Y-231332261D01*
X167787580Y-231284642D01*
X167692342Y-231237023D01*
X167549485Y-231237023D01*
X167454247Y-231284642D01*
X167406628Y-231332261D01*
X167359009Y-231427500D01*
X167359009Y-231808452D01*
X166882819Y-230284642D02*
X166882819Y-230856071D01*
X166882819Y-230570357D02*
X167882819Y-230570357D01*
X167739961Y-230665595D01*
X167644723Y-230760833D01*
X167597104Y-230856071D01*
X166787580Y-230094166D02*
X166787580Y-229332261D01*
X167549485Y-228665595D02*
X166882819Y-228665595D01*
X167930438Y-228903690D02*
X167216152Y-229141785D01*
X167216152Y-228522738D01*
X167454247Y-227998928D02*
X167501866Y-228094166D01*
X167549485Y-228141785D01*
X167644723Y-228189404D01*
X167692342Y-228189404D01*
X167787580Y-228141785D01*
X167835200Y-228094166D01*
X167882819Y-227998928D01*
X167882819Y-227808452D01*
X167835200Y-227713214D01*
X167787580Y-227665595D01*
X167692342Y-227617976D01*
X167644723Y-227617976D01*
X167549485Y-227665595D01*
X167501866Y-227713214D01*
X167454247Y-227808452D01*
X167454247Y-227998928D01*
X167406628Y-228094166D01*
X167359009Y-228141785D01*
X167263771Y-228189404D01*
X167073295Y-228189404D01*
X166978057Y-228141785D01*
X166930438Y-228094166D01*
X166882819Y-227998928D01*
X166882819Y-227808452D01*
X166930438Y-227713214D01*
X166978057Y-227665595D01*
X167073295Y-227617976D01*
X167263771Y-227617976D01*
X167359009Y-227665595D01*
X167406628Y-227713214D01*
X167454247Y-227808452D01*
%TO.C,P1_50*%
X170845219Y-231808452D02*
X171845219Y-231808452D01*
X171845219Y-231427500D01*
X171797600Y-231332261D01*
X171749980Y-231284642D01*
X171654742Y-231237023D01*
X171511885Y-231237023D01*
X171416647Y-231284642D01*
X171369028Y-231332261D01*
X171321409Y-231427500D01*
X171321409Y-231808452D01*
X170845219Y-230284642D02*
X170845219Y-230856071D01*
X170845219Y-230570357D02*
X171845219Y-230570357D01*
X171702361Y-230665595D01*
X171607123Y-230760833D01*
X171559504Y-230856071D01*
X170749980Y-230094166D02*
X170749980Y-229332261D01*
X171845219Y-228617976D02*
X171845219Y-229094166D01*
X171369028Y-229141785D01*
X171416647Y-229094166D01*
X171464266Y-228998928D01*
X171464266Y-228760833D01*
X171416647Y-228665595D01*
X171369028Y-228617976D01*
X171273790Y-228570357D01*
X171035695Y-228570357D01*
X170940457Y-228617976D01*
X170892838Y-228665595D01*
X170845219Y-228760833D01*
X170845219Y-228998928D01*
X170892838Y-229094166D01*
X170940457Y-229141785D01*
X171845219Y-227951309D02*
X171845219Y-227856071D01*
X171797600Y-227760833D01*
X171749980Y-227713214D01*
X171654742Y-227665595D01*
X171464266Y-227617976D01*
X171226171Y-227617976D01*
X171035695Y-227665595D01*
X170940457Y-227713214D01*
X170892838Y-227760833D01*
X170845219Y-227856071D01*
X170845219Y-227951309D01*
X170892838Y-228046547D01*
X170940457Y-228094166D01*
X171035695Y-228141785D01*
X171226171Y-228189404D01*
X171464266Y-228189404D01*
X171654742Y-228141785D01*
X171749980Y-228094166D01*
X171797600Y-228046547D01*
X171845219Y-227951309D01*
%TO.C,P1_52*%
X174807619Y-231808452D02*
X175807619Y-231808452D01*
X175807619Y-231427500D01*
X175760000Y-231332261D01*
X175712380Y-231284642D01*
X175617142Y-231237023D01*
X175474285Y-231237023D01*
X175379047Y-231284642D01*
X175331428Y-231332261D01*
X175283809Y-231427500D01*
X175283809Y-231808452D01*
X174807619Y-230284642D02*
X174807619Y-230856071D01*
X174807619Y-230570357D02*
X175807619Y-230570357D01*
X175664761Y-230665595D01*
X175569523Y-230760833D01*
X175521904Y-230856071D01*
X174712380Y-230094166D02*
X174712380Y-229332261D01*
X175807619Y-228617976D02*
X175807619Y-229094166D01*
X175331428Y-229141785D01*
X175379047Y-229094166D01*
X175426666Y-228998928D01*
X175426666Y-228760833D01*
X175379047Y-228665595D01*
X175331428Y-228617976D01*
X175236190Y-228570357D01*
X174998095Y-228570357D01*
X174902857Y-228617976D01*
X174855238Y-228665595D01*
X174807619Y-228760833D01*
X174807619Y-228998928D01*
X174855238Y-229094166D01*
X174902857Y-229141785D01*
X175712380Y-228189404D02*
X175760000Y-228141785D01*
X175807619Y-228046547D01*
X175807619Y-227808452D01*
X175760000Y-227713214D01*
X175712380Y-227665595D01*
X175617142Y-227617976D01*
X175521904Y-227617976D01*
X175379047Y-227665595D01*
X174807619Y-228237023D01*
X174807619Y-227617976D01*
%TO.C,P1_54*%
X178770019Y-231808452D02*
X179770019Y-231808452D01*
X179770019Y-231427500D01*
X179722400Y-231332261D01*
X179674780Y-231284642D01*
X179579542Y-231237023D01*
X179436685Y-231237023D01*
X179341447Y-231284642D01*
X179293828Y-231332261D01*
X179246209Y-231427500D01*
X179246209Y-231808452D01*
X178770019Y-230284642D02*
X178770019Y-230856071D01*
X178770019Y-230570357D02*
X179770019Y-230570357D01*
X179627161Y-230665595D01*
X179531923Y-230760833D01*
X179484304Y-230856071D01*
X178674780Y-230094166D02*
X178674780Y-229332261D01*
X179770019Y-228617976D02*
X179770019Y-229094166D01*
X179293828Y-229141785D01*
X179341447Y-229094166D01*
X179389066Y-228998928D01*
X179389066Y-228760833D01*
X179341447Y-228665595D01*
X179293828Y-228617976D01*
X179198590Y-228570357D01*
X178960495Y-228570357D01*
X178865257Y-228617976D01*
X178817638Y-228665595D01*
X178770019Y-228760833D01*
X178770019Y-228998928D01*
X178817638Y-229094166D01*
X178865257Y-229141785D01*
X179436685Y-227713214D02*
X178770019Y-227713214D01*
X179817638Y-227951309D02*
X179103352Y-228189404D01*
X179103352Y-227570357D01*
%TO.C,P1_56*%
X182732419Y-231808452D02*
X183732419Y-231808452D01*
X183732419Y-231427500D01*
X183684800Y-231332261D01*
X183637180Y-231284642D01*
X183541942Y-231237023D01*
X183399085Y-231237023D01*
X183303847Y-231284642D01*
X183256228Y-231332261D01*
X183208609Y-231427500D01*
X183208609Y-231808452D01*
X182732419Y-230284642D02*
X182732419Y-230856071D01*
X182732419Y-230570357D02*
X183732419Y-230570357D01*
X183589561Y-230665595D01*
X183494323Y-230760833D01*
X183446704Y-230856071D01*
X182637180Y-230094166D02*
X182637180Y-229332261D01*
X183732419Y-228617976D02*
X183732419Y-229094166D01*
X183256228Y-229141785D01*
X183303847Y-229094166D01*
X183351466Y-228998928D01*
X183351466Y-228760833D01*
X183303847Y-228665595D01*
X183256228Y-228617976D01*
X183160990Y-228570357D01*
X182922895Y-228570357D01*
X182827657Y-228617976D01*
X182780038Y-228665595D01*
X182732419Y-228760833D01*
X182732419Y-228998928D01*
X182780038Y-229094166D01*
X182827657Y-229141785D01*
X183732419Y-227713214D02*
X183732419Y-227903690D01*
X183684800Y-227998928D01*
X183637180Y-228046547D01*
X183494323Y-228141785D01*
X183303847Y-228189404D01*
X182922895Y-228189404D01*
X182827657Y-228141785D01*
X182780038Y-228094166D01*
X182732419Y-227998928D01*
X182732419Y-227808452D01*
X182780038Y-227713214D01*
X182827657Y-227665595D01*
X182922895Y-227617976D01*
X183160990Y-227617976D01*
X183256228Y-227665595D01*
X183303847Y-227713214D01*
X183351466Y-227808452D01*
X183351466Y-227998928D01*
X183303847Y-228094166D01*
X183256228Y-228141785D01*
X183160990Y-228189404D01*
%TO.C,P1_58*%
X186694819Y-231808452D02*
X187694819Y-231808452D01*
X187694819Y-231427500D01*
X187647200Y-231332261D01*
X187599580Y-231284642D01*
X187504342Y-231237023D01*
X187361485Y-231237023D01*
X187266247Y-231284642D01*
X187218628Y-231332261D01*
X187171009Y-231427500D01*
X187171009Y-231808452D01*
X186694819Y-230284642D02*
X186694819Y-230856071D01*
X186694819Y-230570357D02*
X187694819Y-230570357D01*
X187551961Y-230665595D01*
X187456723Y-230760833D01*
X187409104Y-230856071D01*
X186599580Y-230094166D02*
X186599580Y-229332261D01*
X187694819Y-228617976D02*
X187694819Y-229094166D01*
X187218628Y-229141785D01*
X187266247Y-229094166D01*
X187313866Y-228998928D01*
X187313866Y-228760833D01*
X187266247Y-228665595D01*
X187218628Y-228617976D01*
X187123390Y-228570357D01*
X186885295Y-228570357D01*
X186790057Y-228617976D01*
X186742438Y-228665595D01*
X186694819Y-228760833D01*
X186694819Y-228998928D01*
X186742438Y-229094166D01*
X186790057Y-229141785D01*
X187266247Y-227998928D02*
X187313866Y-228094166D01*
X187361485Y-228141785D01*
X187456723Y-228189404D01*
X187504342Y-228189404D01*
X187599580Y-228141785D01*
X187647200Y-228094166D01*
X187694819Y-227998928D01*
X187694819Y-227808452D01*
X187647200Y-227713214D01*
X187599580Y-227665595D01*
X187504342Y-227617976D01*
X187456723Y-227617976D01*
X187361485Y-227665595D01*
X187313866Y-227713214D01*
X187266247Y-227808452D01*
X187266247Y-227998928D01*
X187218628Y-228094166D01*
X187171009Y-228141785D01*
X187075771Y-228189404D01*
X186885295Y-228189404D01*
X186790057Y-228141785D01*
X186742438Y-228094166D01*
X186694819Y-227998928D01*
X186694819Y-227808452D01*
X186742438Y-227713214D01*
X186790057Y-227665595D01*
X186885295Y-227617976D01*
X187075771Y-227617976D01*
X187171009Y-227665595D01*
X187218628Y-227713214D01*
X187266247Y-227808452D01*
%TO.C,P1_60*%
X190657219Y-231808452D02*
X191657219Y-231808452D01*
X191657219Y-231427500D01*
X191609600Y-231332261D01*
X191561980Y-231284642D01*
X191466742Y-231237023D01*
X191323885Y-231237023D01*
X191228647Y-231284642D01*
X191181028Y-231332261D01*
X191133409Y-231427500D01*
X191133409Y-231808452D01*
X190657219Y-230284642D02*
X190657219Y-230856071D01*
X190657219Y-230570357D02*
X191657219Y-230570357D01*
X191514361Y-230665595D01*
X191419123Y-230760833D01*
X191371504Y-230856071D01*
X190561980Y-230094166D02*
X190561980Y-229332261D01*
X191657219Y-228665595D02*
X191657219Y-228856071D01*
X191609600Y-228951309D01*
X191561980Y-228998928D01*
X191419123Y-229094166D01*
X191228647Y-229141785D01*
X190847695Y-229141785D01*
X190752457Y-229094166D01*
X190704838Y-229046547D01*
X190657219Y-228951309D01*
X190657219Y-228760833D01*
X190704838Y-228665595D01*
X190752457Y-228617976D01*
X190847695Y-228570357D01*
X191085790Y-228570357D01*
X191181028Y-228617976D01*
X191228647Y-228665595D01*
X191276266Y-228760833D01*
X191276266Y-228951309D01*
X191228647Y-229046547D01*
X191181028Y-229094166D01*
X191085790Y-229141785D01*
X191657219Y-227951309D02*
X191657219Y-227856071D01*
X191609600Y-227760833D01*
X191561980Y-227713214D01*
X191466742Y-227665595D01*
X191276266Y-227617976D01*
X191038171Y-227617976D01*
X190847695Y-227665595D01*
X190752457Y-227713214D01*
X190704838Y-227760833D01*
X190657219Y-227856071D01*
X190657219Y-227951309D01*
X190704838Y-228046547D01*
X190752457Y-228094166D01*
X190847695Y-228141785D01*
X191038171Y-228189404D01*
X191276266Y-228189404D01*
X191466742Y-228141785D01*
X191561980Y-228094166D01*
X191609600Y-228046547D01*
X191657219Y-227951309D01*
%TO.C,P1_62*%
X194619619Y-231808452D02*
X195619619Y-231808452D01*
X195619619Y-231427500D01*
X195572000Y-231332261D01*
X195524380Y-231284642D01*
X195429142Y-231237023D01*
X195286285Y-231237023D01*
X195191047Y-231284642D01*
X195143428Y-231332261D01*
X195095809Y-231427500D01*
X195095809Y-231808452D01*
X194619619Y-230284642D02*
X194619619Y-230856071D01*
X194619619Y-230570357D02*
X195619619Y-230570357D01*
X195476761Y-230665595D01*
X195381523Y-230760833D01*
X195333904Y-230856071D01*
X194524380Y-230094166D02*
X194524380Y-229332261D01*
X195619619Y-228665595D02*
X195619619Y-228856071D01*
X195572000Y-228951309D01*
X195524380Y-228998928D01*
X195381523Y-229094166D01*
X195191047Y-229141785D01*
X194810095Y-229141785D01*
X194714857Y-229094166D01*
X194667238Y-229046547D01*
X194619619Y-228951309D01*
X194619619Y-228760833D01*
X194667238Y-228665595D01*
X194714857Y-228617976D01*
X194810095Y-228570357D01*
X195048190Y-228570357D01*
X195143428Y-228617976D01*
X195191047Y-228665595D01*
X195238666Y-228760833D01*
X195238666Y-228951309D01*
X195191047Y-229046547D01*
X195143428Y-229094166D01*
X195048190Y-229141785D01*
X195524380Y-228189404D02*
X195572000Y-228141785D01*
X195619619Y-228046547D01*
X195619619Y-227808452D01*
X195572000Y-227713214D01*
X195524380Y-227665595D01*
X195429142Y-227617976D01*
X195333904Y-227617976D01*
X195191047Y-227665595D01*
X194619619Y-228237023D01*
X194619619Y-227617976D01*
%TO.C,P1_64*%
X198582019Y-231808452D02*
X199582019Y-231808452D01*
X199582019Y-231427500D01*
X199534400Y-231332261D01*
X199486780Y-231284642D01*
X199391542Y-231237023D01*
X199248685Y-231237023D01*
X199153447Y-231284642D01*
X199105828Y-231332261D01*
X199058209Y-231427500D01*
X199058209Y-231808452D01*
X198582019Y-230284642D02*
X198582019Y-230856071D01*
X198582019Y-230570357D02*
X199582019Y-230570357D01*
X199439161Y-230665595D01*
X199343923Y-230760833D01*
X199296304Y-230856071D01*
X198486780Y-230094166D02*
X198486780Y-229332261D01*
X199582019Y-228665595D02*
X199582019Y-228856071D01*
X199534400Y-228951309D01*
X199486780Y-228998928D01*
X199343923Y-229094166D01*
X199153447Y-229141785D01*
X198772495Y-229141785D01*
X198677257Y-229094166D01*
X198629638Y-229046547D01*
X198582019Y-228951309D01*
X198582019Y-228760833D01*
X198629638Y-228665595D01*
X198677257Y-228617976D01*
X198772495Y-228570357D01*
X199010590Y-228570357D01*
X199105828Y-228617976D01*
X199153447Y-228665595D01*
X199201066Y-228760833D01*
X199201066Y-228951309D01*
X199153447Y-229046547D01*
X199105828Y-229094166D01*
X199010590Y-229141785D01*
X199248685Y-227713214D02*
X198582019Y-227713214D01*
X199629638Y-227951309D02*
X198915352Y-228189404D01*
X198915352Y-227570357D01*
%TO.C,P1_66*%
X202544419Y-231808452D02*
X203544419Y-231808452D01*
X203544419Y-231427500D01*
X203496800Y-231332261D01*
X203449180Y-231284642D01*
X203353942Y-231237023D01*
X203211085Y-231237023D01*
X203115847Y-231284642D01*
X203068228Y-231332261D01*
X203020609Y-231427500D01*
X203020609Y-231808452D01*
X202544419Y-230284642D02*
X202544419Y-230856071D01*
X202544419Y-230570357D02*
X203544419Y-230570357D01*
X203401561Y-230665595D01*
X203306323Y-230760833D01*
X203258704Y-230856071D01*
X202449180Y-230094166D02*
X202449180Y-229332261D01*
X203544419Y-228665595D02*
X203544419Y-228856071D01*
X203496800Y-228951309D01*
X203449180Y-228998928D01*
X203306323Y-229094166D01*
X203115847Y-229141785D01*
X202734895Y-229141785D01*
X202639657Y-229094166D01*
X202592038Y-229046547D01*
X202544419Y-228951309D01*
X202544419Y-228760833D01*
X202592038Y-228665595D01*
X202639657Y-228617976D01*
X202734895Y-228570357D01*
X202972990Y-228570357D01*
X203068228Y-228617976D01*
X203115847Y-228665595D01*
X203163466Y-228760833D01*
X203163466Y-228951309D01*
X203115847Y-229046547D01*
X203068228Y-229094166D01*
X202972990Y-229141785D01*
X203544419Y-227713214D02*
X203544419Y-227903690D01*
X203496800Y-227998928D01*
X203449180Y-228046547D01*
X203306323Y-228141785D01*
X203115847Y-228189404D01*
X202734895Y-228189404D01*
X202639657Y-228141785D01*
X202592038Y-228094166D01*
X202544419Y-227998928D01*
X202544419Y-227808452D01*
X202592038Y-227713214D01*
X202639657Y-227665595D01*
X202734895Y-227617976D01*
X202972990Y-227617976D01*
X203068228Y-227665595D01*
X203115847Y-227713214D01*
X203163466Y-227808452D01*
X203163466Y-227998928D01*
X203115847Y-228094166D01*
X203068228Y-228141785D01*
X202972990Y-228189404D01*
%TO.C,P1_68*%
X206506819Y-231808452D02*
X207506819Y-231808452D01*
X207506819Y-231427500D01*
X207459200Y-231332261D01*
X207411580Y-231284642D01*
X207316342Y-231237023D01*
X207173485Y-231237023D01*
X207078247Y-231284642D01*
X207030628Y-231332261D01*
X206983009Y-231427500D01*
X206983009Y-231808452D01*
X206506819Y-230284642D02*
X206506819Y-230856071D01*
X206506819Y-230570357D02*
X207506819Y-230570357D01*
X207363961Y-230665595D01*
X207268723Y-230760833D01*
X207221104Y-230856071D01*
X206411580Y-230094166D02*
X206411580Y-229332261D01*
X207506819Y-228665595D02*
X207506819Y-228856071D01*
X207459200Y-228951309D01*
X207411580Y-228998928D01*
X207268723Y-229094166D01*
X207078247Y-229141785D01*
X206697295Y-229141785D01*
X206602057Y-229094166D01*
X206554438Y-229046547D01*
X206506819Y-228951309D01*
X206506819Y-228760833D01*
X206554438Y-228665595D01*
X206602057Y-228617976D01*
X206697295Y-228570357D01*
X206935390Y-228570357D01*
X207030628Y-228617976D01*
X207078247Y-228665595D01*
X207125866Y-228760833D01*
X207125866Y-228951309D01*
X207078247Y-229046547D01*
X207030628Y-229094166D01*
X206935390Y-229141785D01*
X207078247Y-227998928D02*
X207125866Y-228094166D01*
X207173485Y-228141785D01*
X207268723Y-228189404D01*
X207316342Y-228189404D01*
X207411580Y-228141785D01*
X207459200Y-228094166D01*
X207506819Y-227998928D01*
X207506819Y-227808452D01*
X207459200Y-227713214D01*
X207411580Y-227665595D01*
X207316342Y-227617976D01*
X207268723Y-227617976D01*
X207173485Y-227665595D01*
X207125866Y-227713214D01*
X207078247Y-227808452D01*
X207078247Y-227998928D01*
X207030628Y-228094166D01*
X206983009Y-228141785D01*
X206887771Y-228189404D01*
X206697295Y-228189404D01*
X206602057Y-228141785D01*
X206554438Y-228094166D01*
X206506819Y-227998928D01*
X206506819Y-227808452D01*
X206554438Y-227713214D01*
X206602057Y-227665595D01*
X206697295Y-227617976D01*
X206887771Y-227617976D01*
X206983009Y-227665595D01*
X207030628Y-227713214D01*
X207078247Y-227808452D01*
%TO.C,P1_70*%
X210469219Y-231808452D02*
X211469219Y-231808452D01*
X211469219Y-231427500D01*
X211421600Y-231332261D01*
X211373980Y-231284642D01*
X211278742Y-231237023D01*
X211135885Y-231237023D01*
X211040647Y-231284642D01*
X210993028Y-231332261D01*
X210945409Y-231427500D01*
X210945409Y-231808452D01*
X210469219Y-230284642D02*
X210469219Y-230856071D01*
X210469219Y-230570357D02*
X211469219Y-230570357D01*
X211326361Y-230665595D01*
X211231123Y-230760833D01*
X211183504Y-230856071D01*
X210373980Y-230094166D02*
X210373980Y-229332261D01*
X211469219Y-229189404D02*
X211469219Y-228522738D01*
X210469219Y-228951309D01*
X211469219Y-227951309D02*
X211469219Y-227856071D01*
X211421600Y-227760833D01*
X211373980Y-227713214D01*
X211278742Y-227665595D01*
X211088266Y-227617976D01*
X210850171Y-227617976D01*
X210659695Y-227665595D01*
X210564457Y-227713214D01*
X210516838Y-227760833D01*
X210469219Y-227856071D01*
X210469219Y-227951309D01*
X210516838Y-228046547D01*
X210564457Y-228094166D01*
X210659695Y-228141785D01*
X210850171Y-228189404D01*
X211088266Y-228189404D01*
X211278742Y-228141785D01*
X211373980Y-228094166D01*
X211421600Y-228046547D01*
X211469219Y-227951309D01*
%TO.C,P1_72*%
X214431619Y-231808452D02*
X215431619Y-231808452D01*
X215431619Y-231427500D01*
X215384000Y-231332261D01*
X215336380Y-231284642D01*
X215241142Y-231237023D01*
X215098285Y-231237023D01*
X215003047Y-231284642D01*
X214955428Y-231332261D01*
X214907809Y-231427500D01*
X214907809Y-231808452D01*
X214431619Y-230284642D02*
X214431619Y-230856071D01*
X214431619Y-230570357D02*
X215431619Y-230570357D01*
X215288761Y-230665595D01*
X215193523Y-230760833D01*
X215145904Y-230856071D01*
X214336380Y-230094166D02*
X214336380Y-229332261D01*
X215431619Y-229189404D02*
X215431619Y-228522738D01*
X214431619Y-228951309D01*
X215336380Y-228189404D02*
X215384000Y-228141785D01*
X215431619Y-228046547D01*
X215431619Y-227808452D01*
X215384000Y-227713214D01*
X215336380Y-227665595D01*
X215241142Y-227617976D01*
X215145904Y-227617976D01*
X215003047Y-227665595D01*
X214431619Y-228237023D01*
X214431619Y-227617976D01*
%TO.C,P1_74*%
X218394019Y-231808452D02*
X219394019Y-231808452D01*
X219394019Y-231427500D01*
X219346400Y-231332261D01*
X219298780Y-231284642D01*
X219203542Y-231237023D01*
X219060685Y-231237023D01*
X218965447Y-231284642D01*
X218917828Y-231332261D01*
X218870209Y-231427500D01*
X218870209Y-231808452D01*
X218394019Y-230284642D02*
X218394019Y-230856071D01*
X218394019Y-230570357D02*
X219394019Y-230570357D01*
X219251161Y-230665595D01*
X219155923Y-230760833D01*
X219108304Y-230856071D01*
X218298780Y-230094166D02*
X218298780Y-229332261D01*
X219394019Y-229189404D02*
X219394019Y-228522738D01*
X218394019Y-228951309D01*
X219060685Y-227713214D02*
X218394019Y-227713214D01*
X219441638Y-227951309D02*
X218727352Y-228189404D01*
X218727352Y-227570357D01*
%TO.C,P1_76*%
X222356419Y-231808452D02*
X223356419Y-231808452D01*
X223356419Y-231427500D01*
X223308800Y-231332261D01*
X223261180Y-231284642D01*
X223165942Y-231237023D01*
X223023085Y-231237023D01*
X222927847Y-231284642D01*
X222880228Y-231332261D01*
X222832609Y-231427500D01*
X222832609Y-231808452D01*
X222356419Y-230284642D02*
X222356419Y-230856071D01*
X222356419Y-230570357D02*
X223356419Y-230570357D01*
X223213561Y-230665595D01*
X223118323Y-230760833D01*
X223070704Y-230856071D01*
X222261180Y-230094166D02*
X222261180Y-229332261D01*
X223356419Y-229189404D02*
X223356419Y-228522738D01*
X222356419Y-228951309D01*
X223356419Y-227713214D02*
X223356419Y-227903690D01*
X223308800Y-227998928D01*
X223261180Y-228046547D01*
X223118323Y-228141785D01*
X222927847Y-228189404D01*
X222546895Y-228189404D01*
X222451657Y-228141785D01*
X222404038Y-228094166D01*
X222356419Y-227998928D01*
X222356419Y-227808452D01*
X222404038Y-227713214D01*
X222451657Y-227665595D01*
X222546895Y-227617976D01*
X222784990Y-227617976D01*
X222880228Y-227665595D01*
X222927847Y-227713214D01*
X222975466Y-227808452D01*
X222975466Y-227998928D01*
X222927847Y-228094166D01*
X222880228Y-228141785D01*
X222784990Y-228189404D01*
%TO.C,P1_78*%
X226318819Y-231808452D02*
X227318819Y-231808452D01*
X227318819Y-231427500D01*
X227271200Y-231332261D01*
X227223580Y-231284642D01*
X227128342Y-231237023D01*
X226985485Y-231237023D01*
X226890247Y-231284642D01*
X226842628Y-231332261D01*
X226795009Y-231427500D01*
X226795009Y-231808452D01*
X226318819Y-230284642D02*
X226318819Y-230856071D01*
X226318819Y-230570357D02*
X227318819Y-230570357D01*
X227175961Y-230665595D01*
X227080723Y-230760833D01*
X227033104Y-230856071D01*
X226223580Y-230094166D02*
X226223580Y-229332261D01*
X227318819Y-229189404D02*
X227318819Y-228522738D01*
X226318819Y-228951309D01*
X226890247Y-227998928D02*
X226937866Y-228094166D01*
X226985485Y-228141785D01*
X227080723Y-228189404D01*
X227128342Y-228189404D01*
X227223580Y-228141785D01*
X227271200Y-228094166D01*
X227318819Y-227998928D01*
X227318819Y-227808452D01*
X227271200Y-227713214D01*
X227223580Y-227665595D01*
X227128342Y-227617976D01*
X227080723Y-227617976D01*
X226985485Y-227665595D01*
X226937866Y-227713214D01*
X226890247Y-227808452D01*
X226890247Y-227998928D01*
X226842628Y-228094166D01*
X226795009Y-228141785D01*
X226699771Y-228189404D01*
X226509295Y-228189404D01*
X226414057Y-228141785D01*
X226366438Y-228094166D01*
X226318819Y-227998928D01*
X226318819Y-227808452D01*
X226366438Y-227713214D01*
X226414057Y-227665595D01*
X226509295Y-227617976D01*
X226699771Y-227617976D01*
X226795009Y-227665595D01*
X226842628Y-227713214D01*
X226890247Y-227808452D01*
%TO.C,P1_80*%
X230281219Y-231808452D02*
X231281219Y-231808452D01*
X231281219Y-231427500D01*
X231233600Y-231332261D01*
X231185980Y-231284642D01*
X231090742Y-231237023D01*
X230947885Y-231237023D01*
X230852647Y-231284642D01*
X230805028Y-231332261D01*
X230757409Y-231427500D01*
X230757409Y-231808452D01*
X230281219Y-230284642D02*
X230281219Y-230856071D01*
X230281219Y-230570357D02*
X231281219Y-230570357D01*
X231138361Y-230665595D01*
X231043123Y-230760833D01*
X230995504Y-230856071D01*
X230185980Y-230094166D02*
X230185980Y-229332261D01*
X230852647Y-228951309D02*
X230900266Y-229046547D01*
X230947885Y-229094166D01*
X231043123Y-229141785D01*
X231090742Y-229141785D01*
X231185980Y-229094166D01*
X231233600Y-229046547D01*
X231281219Y-228951309D01*
X231281219Y-228760833D01*
X231233600Y-228665595D01*
X231185980Y-228617976D01*
X231090742Y-228570357D01*
X231043123Y-228570357D01*
X230947885Y-228617976D01*
X230900266Y-228665595D01*
X230852647Y-228760833D01*
X230852647Y-228951309D01*
X230805028Y-229046547D01*
X230757409Y-229094166D01*
X230662171Y-229141785D01*
X230471695Y-229141785D01*
X230376457Y-229094166D01*
X230328838Y-229046547D01*
X230281219Y-228951309D01*
X230281219Y-228760833D01*
X230328838Y-228665595D01*
X230376457Y-228617976D01*
X230471695Y-228570357D01*
X230662171Y-228570357D01*
X230757409Y-228617976D01*
X230805028Y-228665595D01*
X230852647Y-228760833D01*
X231281219Y-227951309D02*
X231281219Y-227856071D01*
X231233600Y-227760833D01*
X231185980Y-227713214D01*
X231090742Y-227665595D01*
X230900266Y-227617976D01*
X230662171Y-227617976D01*
X230471695Y-227665595D01*
X230376457Y-227713214D01*
X230328838Y-227760833D01*
X230281219Y-227856071D01*
X230281219Y-227951309D01*
X230328838Y-228046547D01*
X230376457Y-228094166D01*
X230471695Y-228141785D01*
X230662171Y-228189404D01*
X230900266Y-228189404D01*
X231090742Y-228141785D01*
X231185980Y-228094166D01*
X231233600Y-228046547D01*
X231281219Y-227951309D01*
%TO.C,P1_82*%
X234243619Y-231808452D02*
X235243619Y-231808452D01*
X235243619Y-231427500D01*
X235196000Y-231332261D01*
X235148380Y-231284642D01*
X235053142Y-231237023D01*
X234910285Y-231237023D01*
X234815047Y-231284642D01*
X234767428Y-231332261D01*
X234719809Y-231427500D01*
X234719809Y-231808452D01*
X234243619Y-230284642D02*
X234243619Y-230856071D01*
X234243619Y-230570357D02*
X235243619Y-230570357D01*
X235100761Y-230665595D01*
X235005523Y-230760833D01*
X234957904Y-230856071D01*
X234148380Y-230094166D02*
X234148380Y-229332261D01*
X234815047Y-228951309D02*
X234862666Y-229046547D01*
X234910285Y-229094166D01*
X235005523Y-229141785D01*
X235053142Y-229141785D01*
X235148380Y-229094166D01*
X235196000Y-229046547D01*
X235243619Y-228951309D01*
X235243619Y-228760833D01*
X235196000Y-228665595D01*
X235148380Y-228617976D01*
X235053142Y-228570357D01*
X235005523Y-228570357D01*
X234910285Y-228617976D01*
X234862666Y-228665595D01*
X234815047Y-228760833D01*
X234815047Y-228951309D01*
X234767428Y-229046547D01*
X234719809Y-229094166D01*
X234624571Y-229141785D01*
X234434095Y-229141785D01*
X234338857Y-229094166D01*
X234291238Y-229046547D01*
X234243619Y-228951309D01*
X234243619Y-228760833D01*
X234291238Y-228665595D01*
X234338857Y-228617976D01*
X234434095Y-228570357D01*
X234624571Y-228570357D01*
X234719809Y-228617976D01*
X234767428Y-228665595D01*
X234815047Y-228760833D01*
X235148380Y-228189404D02*
X235196000Y-228141785D01*
X235243619Y-228046547D01*
X235243619Y-227808452D01*
X235196000Y-227713214D01*
X235148380Y-227665595D01*
X235053142Y-227617976D01*
X234957904Y-227617976D01*
X234815047Y-227665595D01*
X234243619Y-228237023D01*
X234243619Y-227617976D01*
%TO.C,P1_84*%
X238206019Y-231808452D02*
X239206019Y-231808452D01*
X239206019Y-231427500D01*
X239158400Y-231332261D01*
X239110780Y-231284642D01*
X239015542Y-231237023D01*
X238872685Y-231237023D01*
X238777447Y-231284642D01*
X238729828Y-231332261D01*
X238682209Y-231427500D01*
X238682209Y-231808452D01*
X238206019Y-230284642D02*
X238206019Y-230856071D01*
X238206019Y-230570357D02*
X239206019Y-230570357D01*
X239063161Y-230665595D01*
X238967923Y-230760833D01*
X238920304Y-230856071D01*
X238110780Y-230094166D02*
X238110780Y-229332261D01*
X238777447Y-228951309D02*
X238825066Y-229046547D01*
X238872685Y-229094166D01*
X238967923Y-229141785D01*
X239015542Y-229141785D01*
X239110780Y-229094166D01*
X239158400Y-229046547D01*
X239206019Y-228951309D01*
X239206019Y-228760833D01*
X239158400Y-228665595D01*
X239110780Y-228617976D01*
X239015542Y-228570357D01*
X238967923Y-228570357D01*
X238872685Y-228617976D01*
X238825066Y-228665595D01*
X238777447Y-228760833D01*
X238777447Y-228951309D01*
X238729828Y-229046547D01*
X238682209Y-229094166D01*
X238586971Y-229141785D01*
X238396495Y-229141785D01*
X238301257Y-229094166D01*
X238253638Y-229046547D01*
X238206019Y-228951309D01*
X238206019Y-228760833D01*
X238253638Y-228665595D01*
X238301257Y-228617976D01*
X238396495Y-228570357D01*
X238586971Y-228570357D01*
X238682209Y-228617976D01*
X238729828Y-228665595D01*
X238777447Y-228760833D01*
X238872685Y-227713214D02*
X238206019Y-227713214D01*
X239253638Y-227951309D02*
X238539352Y-228189404D01*
X238539352Y-227570357D01*
%TO.C,P1_86*%
X242168419Y-231808452D02*
X243168419Y-231808452D01*
X243168419Y-231427500D01*
X243120800Y-231332261D01*
X243073180Y-231284642D01*
X242977942Y-231237023D01*
X242835085Y-231237023D01*
X242739847Y-231284642D01*
X242692228Y-231332261D01*
X242644609Y-231427500D01*
X242644609Y-231808452D01*
X242168419Y-230284642D02*
X242168419Y-230856071D01*
X242168419Y-230570357D02*
X243168419Y-230570357D01*
X243025561Y-230665595D01*
X242930323Y-230760833D01*
X242882704Y-230856071D01*
X242073180Y-230094166D02*
X242073180Y-229332261D01*
X242739847Y-228951309D02*
X242787466Y-229046547D01*
X242835085Y-229094166D01*
X242930323Y-229141785D01*
X242977942Y-229141785D01*
X243073180Y-229094166D01*
X243120800Y-229046547D01*
X243168419Y-228951309D01*
X243168419Y-228760833D01*
X243120800Y-228665595D01*
X243073180Y-228617976D01*
X242977942Y-228570357D01*
X242930323Y-228570357D01*
X242835085Y-228617976D01*
X242787466Y-228665595D01*
X242739847Y-228760833D01*
X242739847Y-228951309D01*
X242692228Y-229046547D01*
X242644609Y-229094166D01*
X242549371Y-229141785D01*
X242358895Y-229141785D01*
X242263657Y-229094166D01*
X242216038Y-229046547D01*
X242168419Y-228951309D01*
X242168419Y-228760833D01*
X242216038Y-228665595D01*
X242263657Y-228617976D01*
X242358895Y-228570357D01*
X242549371Y-228570357D01*
X242644609Y-228617976D01*
X242692228Y-228665595D01*
X242739847Y-228760833D01*
X243168419Y-227713214D02*
X243168419Y-227903690D01*
X243120800Y-227998928D01*
X243073180Y-228046547D01*
X242930323Y-228141785D01*
X242739847Y-228189404D01*
X242358895Y-228189404D01*
X242263657Y-228141785D01*
X242216038Y-228094166D01*
X242168419Y-227998928D01*
X242168419Y-227808452D01*
X242216038Y-227713214D01*
X242263657Y-227665595D01*
X242358895Y-227617976D01*
X242596990Y-227617976D01*
X242692228Y-227665595D01*
X242739847Y-227713214D01*
X242787466Y-227808452D01*
X242787466Y-227998928D01*
X242739847Y-228094166D01*
X242692228Y-228141785D01*
X242596990Y-228189404D01*
%TO.C,P2_2*%
X275137619Y-231491071D02*
X276137619Y-231491071D01*
X276137619Y-231110119D01*
X276090000Y-231014880D01*
X276042380Y-230967261D01*
X275947142Y-230919642D01*
X275804285Y-230919642D01*
X275709047Y-230967261D01*
X275661428Y-231014880D01*
X275613809Y-231110119D01*
X275613809Y-231491071D01*
X276042380Y-230538690D02*
X276090000Y-230491071D01*
X276137619Y-230395833D01*
X276137619Y-230157738D01*
X276090000Y-230062500D01*
X276042380Y-230014880D01*
X275947142Y-229967261D01*
X275851904Y-229967261D01*
X275709047Y-230014880D01*
X275137619Y-230586309D01*
X275137619Y-229967261D01*
X275042380Y-229776785D02*
X275042380Y-229014880D01*
X276042380Y-228824404D02*
X276090000Y-228776785D01*
X276137619Y-228681547D01*
X276137619Y-228443452D01*
X276090000Y-228348214D01*
X276042380Y-228300595D01*
X275947142Y-228252976D01*
X275851904Y-228252976D01*
X275709047Y-228300595D01*
X275137619Y-228872023D01*
X275137619Y-228252976D01*
%TO.C,P2_4*%
X277677619Y-231491071D02*
X278677619Y-231491071D01*
X278677619Y-231110119D01*
X278630000Y-231014880D01*
X278582380Y-230967261D01*
X278487142Y-230919642D01*
X278344285Y-230919642D01*
X278249047Y-230967261D01*
X278201428Y-231014880D01*
X278153809Y-231110119D01*
X278153809Y-231491071D01*
X278582380Y-230538690D02*
X278630000Y-230491071D01*
X278677619Y-230395833D01*
X278677619Y-230157738D01*
X278630000Y-230062500D01*
X278582380Y-230014880D01*
X278487142Y-229967261D01*
X278391904Y-229967261D01*
X278249047Y-230014880D01*
X277677619Y-230586309D01*
X277677619Y-229967261D01*
X277582380Y-229776785D02*
X277582380Y-229014880D01*
X278344285Y-228348214D02*
X277677619Y-228348214D01*
X278725238Y-228586309D02*
X278010952Y-228824404D01*
X278010952Y-228205357D01*
%TO.C,P2_6*%
X280217619Y-231491071D02*
X281217619Y-231491071D01*
X281217619Y-231110119D01*
X281170000Y-231014880D01*
X281122380Y-230967261D01*
X281027142Y-230919642D01*
X280884285Y-230919642D01*
X280789047Y-230967261D01*
X280741428Y-231014880D01*
X280693809Y-231110119D01*
X280693809Y-231491071D01*
X281122380Y-230538690D02*
X281170000Y-230491071D01*
X281217619Y-230395833D01*
X281217619Y-230157738D01*
X281170000Y-230062500D01*
X281122380Y-230014880D01*
X281027142Y-229967261D01*
X280931904Y-229967261D01*
X280789047Y-230014880D01*
X280217619Y-230586309D01*
X280217619Y-229967261D01*
X280122380Y-229776785D02*
X280122380Y-229014880D01*
X281217619Y-228348214D02*
X281217619Y-228538690D01*
X281170000Y-228633928D01*
X281122380Y-228681547D01*
X280979523Y-228776785D01*
X280789047Y-228824404D01*
X280408095Y-228824404D01*
X280312857Y-228776785D01*
X280265238Y-228729166D01*
X280217619Y-228633928D01*
X280217619Y-228443452D01*
X280265238Y-228348214D01*
X280312857Y-228300595D01*
X280408095Y-228252976D01*
X280646190Y-228252976D01*
X280741428Y-228300595D01*
X280789047Y-228348214D01*
X280836666Y-228443452D01*
X280836666Y-228633928D01*
X280789047Y-228729166D01*
X280741428Y-228776785D01*
X280646190Y-228824404D01*
%TO.C,P2_8*%
X282757619Y-231491071D02*
X283757619Y-231491071D01*
X283757619Y-231110119D01*
X283710000Y-231014880D01*
X283662380Y-230967261D01*
X283567142Y-230919642D01*
X283424285Y-230919642D01*
X283329047Y-230967261D01*
X283281428Y-231014880D01*
X283233809Y-231110119D01*
X283233809Y-231491071D01*
X283662380Y-230538690D02*
X283710000Y-230491071D01*
X283757619Y-230395833D01*
X283757619Y-230157738D01*
X283710000Y-230062500D01*
X283662380Y-230014880D01*
X283567142Y-229967261D01*
X283471904Y-229967261D01*
X283329047Y-230014880D01*
X282757619Y-230586309D01*
X282757619Y-229967261D01*
X282662380Y-229776785D02*
X282662380Y-229014880D01*
X283329047Y-228633928D02*
X283376666Y-228729166D01*
X283424285Y-228776785D01*
X283519523Y-228824404D01*
X283567142Y-228824404D01*
X283662380Y-228776785D01*
X283710000Y-228729166D01*
X283757619Y-228633928D01*
X283757619Y-228443452D01*
X283710000Y-228348214D01*
X283662380Y-228300595D01*
X283567142Y-228252976D01*
X283519523Y-228252976D01*
X283424285Y-228300595D01*
X283376666Y-228348214D01*
X283329047Y-228443452D01*
X283329047Y-228633928D01*
X283281428Y-228729166D01*
X283233809Y-228776785D01*
X283138571Y-228824404D01*
X282948095Y-228824404D01*
X282852857Y-228776785D01*
X282805238Y-228729166D01*
X282757619Y-228633928D01*
X282757619Y-228443452D01*
X282805238Y-228348214D01*
X282852857Y-228300595D01*
X282948095Y-228252976D01*
X283138571Y-228252976D01*
X283233809Y-228300595D01*
X283281428Y-228348214D01*
X283329047Y-228443452D01*
%TO.C,P2_10*%
X285297619Y-232443452D02*
X286297619Y-232443452D01*
X286297619Y-232062500D01*
X286250000Y-231967261D01*
X286202380Y-231919642D01*
X286107142Y-231872023D01*
X285964285Y-231872023D01*
X285869047Y-231919642D01*
X285821428Y-231967261D01*
X285773809Y-232062500D01*
X285773809Y-232443452D01*
X286202380Y-231491071D02*
X286250000Y-231443452D01*
X286297619Y-231348214D01*
X286297619Y-231110119D01*
X286250000Y-231014880D01*
X286202380Y-230967261D01*
X286107142Y-230919642D01*
X286011904Y-230919642D01*
X285869047Y-230967261D01*
X285297619Y-231538690D01*
X285297619Y-230919642D01*
X285202380Y-230729166D02*
X285202380Y-229967261D01*
X285297619Y-229205357D02*
X285297619Y-229776785D01*
X285297619Y-229491071D02*
X286297619Y-229491071D01*
X286154761Y-229586309D01*
X286059523Y-229681547D01*
X286011904Y-229776785D01*
X286297619Y-228586309D02*
X286297619Y-228491071D01*
X286250000Y-228395833D01*
X286202380Y-228348214D01*
X286107142Y-228300595D01*
X285916666Y-228252976D01*
X285678571Y-228252976D01*
X285488095Y-228300595D01*
X285392857Y-228348214D01*
X285345238Y-228395833D01*
X285297619Y-228491071D01*
X285297619Y-228586309D01*
X285345238Y-228681547D01*
X285392857Y-228729166D01*
X285488095Y-228776785D01*
X285678571Y-228824404D01*
X285916666Y-228824404D01*
X286107142Y-228776785D01*
X286202380Y-228729166D01*
X286250000Y-228681547D01*
X286297619Y-228586309D01*
%TO.C,P2_12*%
X287837619Y-232443452D02*
X288837619Y-232443452D01*
X288837619Y-232062500D01*
X288790000Y-231967261D01*
X288742380Y-231919642D01*
X288647142Y-231872023D01*
X288504285Y-231872023D01*
X288409047Y-231919642D01*
X288361428Y-231967261D01*
X288313809Y-232062500D01*
X288313809Y-232443452D01*
X288742380Y-231491071D02*
X288790000Y-231443452D01*
X288837619Y-231348214D01*
X288837619Y-231110119D01*
X288790000Y-231014880D01*
X288742380Y-230967261D01*
X288647142Y-230919642D01*
X288551904Y-230919642D01*
X288409047Y-230967261D01*
X287837619Y-231538690D01*
X287837619Y-230919642D01*
X287742380Y-230729166D02*
X287742380Y-229967261D01*
X287837619Y-229205357D02*
X287837619Y-229776785D01*
X287837619Y-229491071D02*
X288837619Y-229491071D01*
X288694761Y-229586309D01*
X288599523Y-229681547D01*
X288551904Y-229776785D01*
X288742380Y-228824404D02*
X288790000Y-228776785D01*
X288837619Y-228681547D01*
X288837619Y-228443452D01*
X288790000Y-228348214D01*
X288742380Y-228300595D01*
X288647142Y-228252976D01*
X288551904Y-228252976D01*
X288409047Y-228300595D01*
X287837619Y-228872023D01*
X287837619Y-228252976D01*
%TO.C,P2_14*%
X290377619Y-232443452D02*
X291377619Y-232443452D01*
X291377619Y-232062500D01*
X291330000Y-231967261D01*
X291282380Y-231919642D01*
X291187142Y-231872023D01*
X291044285Y-231872023D01*
X290949047Y-231919642D01*
X290901428Y-231967261D01*
X290853809Y-232062500D01*
X290853809Y-232443452D01*
X291282380Y-231491071D02*
X291330000Y-231443452D01*
X291377619Y-231348214D01*
X291377619Y-231110119D01*
X291330000Y-231014880D01*
X291282380Y-230967261D01*
X291187142Y-230919642D01*
X291091904Y-230919642D01*
X290949047Y-230967261D01*
X290377619Y-231538690D01*
X290377619Y-230919642D01*
X290282380Y-230729166D02*
X290282380Y-229967261D01*
X290377619Y-229205357D02*
X290377619Y-229776785D01*
X290377619Y-229491071D02*
X291377619Y-229491071D01*
X291234761Y-229586309D01*
X291139523Y-229681547D01*
X291091904Y-229776785D01*
X291044285Y-228348214D02*
X290377619Y-228348214D01*
X291425238Y-228586309D02*
X290710952Y-228824404D01*
X290710952Y-228205357D01*
%TO.C,P2_16*%
X292917619Y-232443452D02*
X293917619Y-232443452D01*
X293917619Y-232062500D01*
X293870000Y-231967261D01*
X293822380Y-231919642D01*
X293727142Y-231872023D01*
X293584285Y-231872023D01*
X293489047Y-231919642D01*
X293441428Y-231967261D01*
X293393809Y-232062500D01*
X293393809Y-232443452D01*
X293822380Y-231491071D02*
X293870000Y-231443452D01*
X293917619Y-231348214D01*
X293917619Y-231110119D01*
X293870000Y-231014880D01*
X293822380Y-230967261D01*
X293727142Y-230919642D01*
X293631904Y-230919642D01*
X293489047Y-230967261D01*
X292917619Y-231538690D01*
X292917619Y-230919642D01*
X292822380Y-230729166D02*
X292822380Y-229967261D01*
X292917619Y-229205357D02*
X292917619Y-229776785D01*
X292917619Y-229491071D02*
X293917619Y-229491071D01*
X293774761Y-229586309D01*
X293679523Y-229681547D01*
X293631904Y-229776785D01*
X293917619Y-228348214D02*
X293917619Y-228538690D01*
X293870000Y-228633928D01*
X293822380Y-228681547D01*
X293679523Y-228776785D01*
X293489047Y-228824404D01*
X293108095Y-228824404D01*
X293012857Y-228776785D01*
X292965238Y-228729166D01*
X292917619Y-228633928D01*
X292917619Y-228443452D01*
X292965238Y-228348214D01*
X293012857Y-228300595D01*
X293108095Y-228252976D01*
X293346190Y-228252976D01*
X293441428Y-228300595D01*
X293489047Y-228348214D01*
X293536666Y-228443452D01*
X293536666Y-228633928D01*
X293489047Y-228729166D01*
X293441428Y-228776785D01*
X293346190Y-228824404D01*
%TO.C,P2_18*%
X295457619Y-232443452D02*
X296457619Y-232443452D01*
X296457619Y-232062500D01*
X296410000Y-231967261D01*
X296362380Y-231919642D01*
X296267142Y-231872023D01*
X296124285Y-231872023D01*
X296029047Y-231919642D01*
X295981428Y-231967261D01*
X295933809Y-232062500D01*
X295933809Y-232443452D01*
X296362380Y-231491071D02*
X296410000Y-231443452D01*
X296457619Y-231348214D01*
X296457619Y-231110119D01*
X296410000Y-231014880D01*
X296362380Y-230967261D01*
X296267142Y-230919642D01*
X296171904Y-230919642D01*
X296029047Y-230967261D01*
X295457619Y-231538690D01*
X295457619Y-230919642D01*
X295362380Y-230729166D02*
X295362380Y-229967261D01*
X295457619Y-229205357D02*
X295457619Y-229776785D01*
X295457619Y-229491071D02*
X296457619Y-229491071D01*
X296314761Y-229586309D01*
X296219523Y-229681547D01*
X296171904Y-229776785D01*
X296029047Y-228633928D02*
X296076666Y-228729166D01*
X296124285Y-228776785D01*
X296219523Y-228824404D01*
X296267142Y-228824404D01*
X296362380Y-228776785D01*
X296410000Y-228729166D01*
X296457619Y-228633928D01*
X296457619Y-228443452D01*
X296410000Y-228348214D01*
X296362380Y-228300595D01*
X296267142Y-228252976D01*
X296219523Y-228252976D01*
X296124285Y-228300595D01*
X296076666Y-228348214D01*
X296029047Y-228443452D01*
X296029047Y-228633928D01*
X295981428Y-228729166D01*
X295933809Y-228776785D01*
X295838571Y-228824404D01*
X295648095Y-228824404D01*
X295552857Y-228776785D01*
X295505238Y-228729166D01*
X295457619Y-228633928D01*
X295457619Y-228443452D01*
X295505238Y-228348214D01*
X295552857Y-228300595D01*
X295648095Y-228252976D01*
X295838571Y-228252976D01*
X295933809Y-228300595D01*
X295981428Y-228348214D01*
X296029047Y-228443452D01*
%TO.C,P2_20*%
X297997619Y-232443452D02*
X298997619Y-232443452D01*
X298997619Y-232062500D01*
X298950000Y-231967261D01*
X298902380Y-231919642D01*
X298807142Y-231872023D01*
X298664285Y-231872023D01*
X298569047Y-231919642D01*
X298521428Y-231967261D01*
X298473809Y-232062500D01*
X298473809Y-232443452D01*
X298902380Y-231491071D02*
X298950000Y-231443452D01*
X298997619Y-231348214D01*
X298997619Y-231110119D01*
X298950000Y-231014880D01*
X298902380Y-230967261D01*
X298807142Y-230919642D01*
X298711904Y-230919642D01*
X298569047Y-230967261D01*
X297997619Y-231538690D01*
X297997619Y-230919642D01*
X297902380Y-230729166D02*
X297902380Y-229967261D01*
X298902380Y-229776785D02*
X298950000Y-229729166D01*
X298997619Y-229633928D01*
X298997619Y-229395833D01*
X298950000Y-229300595D01*
X298902380Y-229252976D01*
X298807142Y-229205357D01*
X298711904Y-229205357D01*
X298569047Y-229252976D01*
X297997619Y-229824404D01*
X297997619Y-229205357D01*
X298997619Y-228586309D02*
X298997619Y-228491071D01*
X298950000Y-228395833D01*
X298902380Y-228348214D01*
X298807142Y-228300595D01*
X298616666Y-228252976D01*
X298378571Y-228252976D01*
X298188095Y-228300595D01*
X298092857Y-228348214D01*
X298045238Y-228395833D01*
X297997619Y-228491071D01*
X297997619Y-228586309D01*
X298045238Y-228681547D01*
X298092857Y-228729166D01*
X298188095Y-228776785D01*
X298378571Y-228824404D01*
X298616666Y-228824404D01*
X298807142Y-228776785D01*
X298902380Y-228729166D01*
X298950000Y-228681547D01*
X298997619Y-228586309D01*
%TO.C,P2_22*%
X300537619Y-232443452D02*
X301537619Y-232443452D01*
X301537619Y-232062500D01*
X301490000Y-231967261D01*
X301442380Y-231919642D01*
X301347142Y-231872023D01*
X301204285Y-231872023D01*
X301109047Y-231919642D01*
X301061428Y-231967261D01*
X301013809Y-232062500D01*
X301013809Y-232443452D01*
X301442380Y-231491071D02*
X301490000Y-231443452D01*
X301537619Y-231348214D01*
X301537619Y-231110119D01*
X301490000Y-231014880D01*
X301442380Y-230967261D01*
X301347142Y-230919642D01*
X301251904Y-230919642D01*
X301109047Y-230967261D01*
X300537619Y-231538690D01*
X300537619Y-230919642D01*
X300442380Y-230729166D02*
X300442380Y-229967261D01*
X301442380Y-229776785D02*
X301490000Y-229729166D01*
X301537619Y-229633928D01*
X301537619Y-229395833D01*
X301490000Y-229300595D01*
X301442380Y-229252976D01*
X301347142Y-229205357D01*
X301251904Y-229205357D01*
X301109047Y-229252976D01*
X300537619Y-229824404D01*
X300537619Y-229205357D01*
X301442380Y-228824404D02*
X301490000Y-228776785D01*
X301537619Y-228681547D01*
X301537619Y-228443452D01*
X301490000Y-228348214D01*
X301442380Y-228300595D01*
X301347142Y-228252976D01*
X301251904Y-228252976D01*
X301109047Y-228300595D01*
X300537619Y-228872023D01*
X300537619Y-228252976D01*
%TO.C,P2_24*%
X303077619Y-232443452D02*
X304077619Y-232443452D01*
X304077619Y-232062500D01*
X304030000Y-231967261D01*
X303982380Y-231919642D01*
X303887142Y-231872023D01*
X303744285Y-231872023D01*
X303649047Y-231919642D01*
X303601428Y-231967261D01*
X303553809Y-232062500D01*
X303553809Y-232443452D01*
X303982380Y-231491071D02*
X304030000Y-231443452D01*
X304077619Y-231348214D01*
X304077619Y-231110119D01*
X304030000Y-231014880D01*
X303982380Y-230967261D01*
X303887142Y-230919642D01*
X303791904Y-230919642D01*
X303649047Y-230967261D01*
X303077619Y-231538690D01*
X303077619Y-230919642D01*
X302982380Y-230729166D02*
X302982380Y-229967261D01*
X303982380Y-229776785D02*
X304030000Y-229729166D01*
X304077619Y-229633928D01*
X304077619Y-229395833D01*
X304030000Y-229300595D01*
X303982380Y-229252976D01*
X303887142Y-229205357D01*
X303791904Y-229205357D01*
X303649047Y-229252976D01*
X303077619Y-229824404D01*
X303077619Y-229205357D01*
X303744285Y-228348214D02*
X303077619Y-228348214D01*
X304125238Y-228586309D02*
X303410952Y-228824404D01*
X303410952Y-228205357D01*
%TO.C,P2_26*%
X305617619Y-232443452D02*
X306617619Y-232443452D01*
X306617619Y-232062500D01*
X306570000Y-231967261D01*
X306522380Y-231919642D01*
X306427142Y-231872023D01*
X306284285Y-231872023D01*
X306189047Y-231919642D01*
X306141428Y-231967261D01*
X306093809Y-232062500D01*
X306093809Y-232443452D01*
X306522380Y-231491071D02*
X306570000Y-231443452D01*
X306617619Y-231348214D01*
X306617619Y-231110119D01*
X306570000Y-231014880D01*
X306522380Y-230967261D01*
X306427142Y-230919642D01*
X306331904Y-230919642D01*
X306189047Y-230967261D01*
X305617619Y-231538690D01*
X305617619Y-230919642D01*
X305522380Y-230729166D02*
X305522380Y-229967261D01*
X306522380Y-229776785D02*
X306570000Y-229729166D01*
X306617619Y-229633928D01*
X306617619Y-229395833D01*
X306570000Y-229300595D01*
X306522380Y-229252976D01*
X306427142Y-229205357D01*
X306331904Y-229205357D01*
X306189047Y-229252976D01*
X305617619Y-229824404D01*
X305617619Y-229205357D01*
X306617619Y-228348214D02*
X306617619Y-228538690D01*
X306570000Y-228633928D01*
X306522380Y-228681547D01*
X306379523Y-228776785D01*
X306189047Y-228824404D01*
X305808095Y-228824404D01*
X305712857Y-228776785D01*
X305665238Y-228729166D01*
X305617619Y-228633928D01*
X305617619Y-228443452D01*
X305665238Y-228348214D01*
X305712857Y-228300595D01*
X305808095Y-228252976D01*
X306046190Y-228252976D01*
X306141428Y-228300595D01*
X306189047Y-228348214D01*
X306236666Y-228443452D01*
X306236666Y-228633928D01*
X306189047Y-228729166D01*
X306141428Y-228776785D01*
X306046190Y-228824404D01*
%TO.C,P2_28*%
X308157619Y-232443452D02*
X309157619Y-232443452D01*
X309157619Y-232062500D01*
X309110000Y-231967261D01*
X309062380Y-231919642D01*
X308967142Y-231872023D01*
X308824285Y-231872023D01*
X308729047Y-231919642D01*
X308681428Y-231967261D01*
X308633809Y-232062500D01*
X308633809Y-232443452D01*
X309062380Y-231491071D02*
X309110000Y-231443452D01*
X309157619Y-231348214D01*
X309157619Y-231110119D01*
X309110000Y-231014880D01*
X309062380Y-230967261D01*
X308967142Y-230919642D01*
X308871904Y-230919642D01*
X308729047Y-230967261D01*
X308157619Y-231538690D01*
X308157619Y-230919642D01*
X308062380Y-230729166D02*
X308062380Y-229967261D01*
X309062380Y-229776785D02*
X309110000Y-229729166D01*
X309157619Y-229633928D01*
X309157619Y-229395833D01*
X309110000Y-229300595D01*
X309062380Y-229252976D01*
X308967142Y-229205357D01*
X308871904Y-229205357D01*
X308729047Y-229252976D01*
X308157619Y-229824404D01*
X308157619Y-229205357D01*
X308729047Y-228633928D02*
X308776666Y-228729166D01*
X308824285Y-228776785D01*
X308919523Y-228824404D01*
X308967142Y-228824404D01*
X309062380Y-228776785D01*
X309110000Y-228729166D01*
X309157619Y-228633928D01*
X309157619Y-228443452D01*
X309110000Y-228348214D01*
X309062380Y-228300595D01*
X308967142Y-228252976D01*
X308919523Y-228252976D01*
X308824285Y-228300595D01*
X308776666Y-228348214D01*
X308729047Y-228443452D01*
X308729047Y-228633928D01*
X308681428Y-228729166D01*
X308633809Y-228776785D01*
X308538571Y-228824404D01*
X308348095Y-228824404D01*
X308252857Y-228776785D01*
X308205238Y-228729166D01*
X308157619Y-228633928D01*
X308157619Y-228443452D01*
X308205238Y-228348214D01*
X308252857Y-228300595D01*
X308348095Y-228252976D01*
X308538571Y-228252976D01*
X308633809Y-228300595D01*
X308681428Y-228348214D01*
X308729047Y-228443452D01*
%TO.C,P2_30*%
X310697619Y-232443452D02*
X311697619Y-232443452D01*
X311697619Y-232062500D01*
X311650000Y-231967261D01*
X311602380Y-231919642D01*
X311507142Y-231872023D01*
X311364285Y-231872023D01*
X311269047Y-231919642D01*
X311221428Y-231967261D01*
X311173809Y-232062500D01*
X311173809Y-232443452D01*
X311602380Y-231491071D02*
X311650000Y-231443452D01*
X311697619Y-231348214D01*
X311697619Y-231110119D01*
X311650000Y-231014880D01*
X311602380Y-230967261D01*
X311507142Y-230919642D01*
X311411904Y-230919642D01*
X311269047Y-230967261D01*
X310697619Y-231538690D01*
X310697619Y-230919642D01*
X310602380Y-230729166D02*
X310602380Y-229967261D01*
X311697619Y-229824404D02*
X311697619Y-229205357D01*
X311316666Y-229538690D01*
X311316666Y-229395833D01*
X311269047Y-229300595D01*
X311221428Y-229252976D01*
X311126190Y-229205357D01*
X310888095Y-229205357D01*
X310792857Y-229252976D01*
X310745238Y-229300595D01*
X310697619Y-229395833D01*
X310697619Y-229681547D01*
X310745238Y-229776785D01*
X310792857Y-229824404D01*
X311697619Y-228586309D02*
X311697619Y-228491071D01*
X311650000Y-228395833D01*
X311602380Y-228348214D01*
X311507142Y-228300595D01*
X311316666Y-228252976D01*
X311078571Y-228252976D01*
X310888095Y-228300595D01*
X310792857Y-228348214D01*
X310745238Y-228395833D01*
X310697619Y-228491071D01*
X310697619Y-228586309D01*
X310745238Y-228681547D01*
X310792857Y-228729166D01*
X310888095Y-228776785D01*
X311078571Y-228824404D01*
X311316666Y-228824404D01*
X311507142Y-228776785D01*
X311602380Y-228729166D01*
X311650000Y-228681547D01*
X311697619Y-228586309D01*
%TO.C,P2_32*%
X313237619Y-232443452D02*
X314237619Y-232443452D01*
X314237619Y-232062500D01*
X314190000Y-231967261D01*
X314142380Y-231919642D01*
X314047142Y-231872023D01*
X313904285Y-231872023D01*
X313809047Y-231919642D01*
X313761428Y-231967261D01*
X313713809Y-232062500D01*
X313713809Y-232443452D01*
X314142380Y-231491071D02*
X314190000Y-231443452D01*
X314237619Y-231348214D01*
X314237619Y-231110119D01*
X314190000Y-231014880D01*
X314142380Y-230967261D01*
X314047142Y-230919642D01*
X313951904Y-230919642D01*
X313809047Y-230967261D01*
X313237619Y-231538690D01*
X313237619Y-230919642D01*
X313142380Y-230729166D02*
X313142380Y-229967261D01*
X314237619Y-229824404D02*
X314237619Y-229205357D01*
X313856666Y-229538690D01*
X313856666Y-229395833D01*
X313809047Y-229300595D01*
X313761428Y-229252976D01*
X313666190Y-229205357D01*
X313428095Y-229205357D01*
X313332857Y-229252976D01*
X313285238Y-229300595D01*
X313237619Y-229395833D01*
X313237619Y-229681547D01*
X313285238Y-229776785D01*
X313332857Y-229824404D01*
X314142380Y-228824404D02*
X314190000Y-228776785D01*
X314237619Y-228681547D01*
X314237619Y-228443452D01*
X314190000Y-228348214D01*
X314142380Y-228300595D01*
X314047142Y-228252976D01*
X313951904Y-228252976D01*
X313809047Y-228300595D01*
X313237619Y-228872023D01*
X313237619Y-228252976D01*
%TO.C,P2_34*%
X315777619Y-232443452D02*
X316777619Y-232443452D01*
X316777619Y-232062500D01*
X316730000Y-231967261D01*
X316682380Y-231919642D01*
X316587142Y-231872023D01*
X316444285Y-231872023D01*
X316349047Y-231919642D01*
X316301428Y-231967261D01*
X316253809Y-232062500D01*
X316253809Y-232443452D01*
X316682380Y-231491071D02*
X316730000Y-231443452D01*
X316777619Y-231348214D01*
X316777619Y-231110119D01*
X316730000Y-231014880D01*
X316682380Y-230967261D01*
X316587142Y-230919642D01*
X316491904Y-230919642D01*
X316349047Y-230967261D01*
X315777619Y-231538690D01*
X315777619Y-230919642D01*
X315682380Y-230729166D02*
X315682380Y-229967261D01*
X316777619Y-229824404D02*
X316777619Y-229205357D01*
X316396666Y-229538690D01*
X316396666Y-229395833D01*
X316349047Y-229300595D01*
X316301428Y-229252976D01*
X316206190Y-229205357D01*
X315968095Y-229205357D01*
X315872857Y-229252976D01*
X315825238Y-229300595D01*
X315777619Y-229395833D01*
X315777619Y-229681547D01*
X315825238Y-229776785D01*
X315872857Y-229824404D01*
X316444285Y-228348214D02*
X315777619Y-228348214D01*
X316825238Y-228586309D02*
X316110952Y-228824404D01*
X316110952Y-228205357D01*
%TO.C,P2_36*%
X318317619Y-232443452D02*
X319317619Y-232443452D01*
X319317619Y-232062500D01*
X319270000Y-231967261D01*
X319222380Y-231919642D01*
X319127142Y-231872023D01*
X318984285Y-231872023D01*
X318889047Y-231919642D01*
X318841428Y-231967261D01*
X318793809Y-232062500D01*
X318793809Y-232443452D01*
X319222380Y-231491071D02*
X319270000Y-231443452D01*
X319317619Y-231348214D01*
X319317619Y-231110119D01*
X319270000Y-231014880D01*
X319222380Y-230967261D01*
X319127142Y-230919642D01*
X319031904Y-230919642D01*
X318889047Y-230967261D01*
X318317619Y-231538690D01*
X318317619Y-230919642D01*
X318222380Y-230729166D02*
X318222380Y-229967261D01*
X319317619Y-229824404D02*
X319317619Y-229205357D01*
X318936666Y-229538690D01*
X318936666Y-229395833D01*
X318889047Y-229300595D01*
X318841428Y-229252976D01*
X318746190Y-229205357D01*
X318508095Y-229205357D01*
X318412857Y-229252976D01*
X318365238Y-229300595D01*
X318317619Y-229395833D01*
X318317619Y-229681547D01*
X318365238Y-229776785D01*
X318412857Y-229824404D01*
X319317619Y-228348214D02*
X319317619Y-228538690D01*
X319270000Y-228633928D01*
X319222380Y-228681547D01*
X319079523Y-228776785D01*
X318889047Y-228824404D01*
X318508095Y-228824404D01*
X318412857Y-228776785D01*
X318365238Y-228729166D01*
X318317619Y-228633928D01*
X318317619Y-228443452D01*
X318365238Y-228348214D01*
X318412857Y-228300595D01*
X318508095Y-228252976D01*
X318746190Y-228252976D01*
X318841428Y-228300595D01*
X318889047Y-228348214D01*
X318936666Y-228443452D01*
X318936666Y-228633928D01*
X318889047Y-228729166D01*
X318841428Y-228776785D01*
X318746190Y-228824404D01*
%TO.C,P2_38*%
X320857619Y-232443452D02*
X321857619Y-232443452D01*
X321857619Y-232062500D01*
X321810000Y-231967261D01*
X321762380Y-231919642D01*
X321667142Y-231872023D01*
X321524285Y-231872023D01*
X321429047Y-231919642D01*
X321381428Y-231967261D01*
X321333809Y-232062500D01*
X321333809Y-232443452D01*
X321762380Y-231491071D02*
X321810000Y-231443452D01*
X321857619Y-231348214D01*
X321857619Y-231110119D01*
X321810000Y-231014880D01*
X321762380Y-230967261D01*
X321667142Y-230919642D01*
X321571904Y-230919642D01*
X321429047Y-230967261D01*
X320857619Y-231538690D01*
X320857619Y-230919642D01*
X320762380Y-230729166D02*
X320762380Y-229967261D01*
X321857619Y-229824404D02*
X321857619Y-229205357D01*
X321476666Y-229538690D01*
X321476666Y-229395833D01*
X321429047Y-229300595D01*
X321381428Y-229252976D01*
X321286190Y-229205357D01*
X321048095Y-229205357D01*
X320952857Y-229252976D01*
X320905238Y-229300595D01*
X320857619Y-229395833D01*
X320857619Y-229681547D01*
X320905238Y-229776785D01*
X320952857Y-229824404D01*
X321429047Y-228633928D02*
X321476666Y-228729166D01*
X321524285Y-228776785D01*
X321619523Y-228824404D01*
X321667142Y-228824404D01*
X321762380Y-228776785D01*
X321810000Y-228729166D01*
X321857619Y-228633928D01*
X321857619Y-228443452D01*
X321810000Y-228348214D01*
X321762380Y-228300595D01*
X321667142Y-228252976D01*
X321619523Y-228252976D01*
X321524285Y-228300595D01*
X321476666Y-228348214D01*
X321429047Y-228443452D01*
X321429047Y-228633928D01*
X321381428Y-228729166D01*
X321333809Y-228776785D01*
X321238571Y-228824404D01*
X321048095Y-228824404D01*
X320952857Y-228776785D01*
X320905238Y-228729166D01*
X320857619Y-228633928D01*
X320857619Y-228443452D01*
X320905238Y-228348214D01*
X320952857Y-228300595D01*
X321048095Y-228252976D01*
X321238571Y-228252976D01*
X321333809Y-228300595D01*
X321381428Y-228348214D01*
X321429047Y-228443452D01*
%TO.C,P2_40*%
X323397619Y-232443452D02*
X324397619Y-232443452D01*
X324397619Y-232062500D01*
X324350000Y-231967261D01*
X324302380Y-231919642D01*
X324207142Y-231872023D01*
X324064285Y-231872023D01*
X323969047Y-231919642D01*
X323921428Y-231967261D01*
X323873809Y-232062500D01*
X323873809Y-232443452D01*
X324302380Y-231491071D02*
X324350000Y-231443452D01*
X324397619Y-231348214D01*
X324397619Y-231110119D01*
X324350000Y-231014880D01*
X324302380Y-230967261D01*
X324207142Y-230919642D01*
X324111904Y-230919642D01*
X323969047Y-230967261D01*
X323397619Y-231538690D01*
X323397619Y-230919642D01*
X323302380Y-230729166D02*
X323302380Y-229967261D01*
X324064285Y-229300595D02*
X323397619Y-229300595D01*
X324445238Y-229538690D02*
X323730952Y-229776785D01*
X323730952Y-229157738D01*
X324397619Y-228586309D02*
X324397619Y-228491071D01*
X324350000Y-228395833D01*
X324302380Y-228348214D01*
X324207142Y-228300595D01*
X324016666Y-228252976D01*
X323778571Y-228252976D01*
X323588095Y-228300595D01*
X323492857Y-228348214D01*
X323445238Y-228395833D01*
X323397619Y-228491071D01*
X323397619Y-228586309D01*
X323445238Y-228681547D01*
X323492857Y-228729166D01*
X323588095Y-228776785D01*
X323778571Y-228824404D01*
X324016666Y-228824404D01*
X324207142Y-228776785D01*
X324302380Y-228729166D01*
X324350000Y-228681547D01*
X324397619Y-228586309D01*
%TO.C,P2_42*%
X325937619Y-232443452D02*
X326937619Y-232443452D01*
X326937619Y-232062500D01*
X326890000Y-231967261D01*
X326842380Y-231919642D01*
X326747142Y-231872023D01*
X326604285Y-231872023D01*
X326509047Y-231919642D01*
X326461428Y-231967261D01*
X326413809Y-232062500D01*
X326413809Y-232443452D01*
X326842380Y-231491071D02*
X326890000Y-231443452D01*
X326937619Y-231348214D01*
X326937619Y-231110119D01*
X326890000Y-231014880D01*
X326842380Y-230967261D01*
X326747142Y-230919642D01*
X326651904Y-230919642D01*
X326509047Y-230967261D01*
X325937619Y-231538690D01*
X325937619Y-230919642D01*
X325842380Y-230729166D02*
X325842380Y-229967261D01*
X326604285Y-229300595D02*
X325937619Y-229300595D01*
X326985238Y-229538690D02*
X326270952Y-229776785D01*
X326270952Y-229157738D01*
X326842380Y-228824404D02*
X326890000Y-228776785D01*
X326937619Y-228681547D01*
X326937619Y-228443452D01*
X326890000Y-228348214D01*
X326842380Y-228300595D01*
X326747142Y-228252976D01*
X326651904Y-228252976D01*
X326509047Y-228300595D01*
X325937619Y-228872023D01*
X325937619Y-228252976D01*
%TO.C,P2_44*%
X328477619Y-232443452D02*
X329477619Y-232443452D01*
X329477619Y-232062500D01*
X329430000Y-231967261D01*
X329382380Y-231919642D01*
X329287142Y-231872023D01*
X329144285Y-231872023D01*
X329049047Y-231919642D01*
X329001428Y-231967261D01*
X328953809Y-232062500D01*
X328953809Y-232443452D01*
X329382380Y-231491071D02*
X329430000Y-231443452D01*
X329477619Y-231348214D01*
X329477619Y-231110119D01*
X329430000Y-231014880D01*
X329382380Y-230967261D01*
X329287142Y-230919642D01*
X329191904Y-230919642D01*
X329049047Y-230967261D01*
X328477619Y-231538690D01*
X328477619Y-230919642D01*
X328382380Y-230729166D02*
X328382380Y-229967261D01*
X329144285Y-229300595D02*
X328477619Y-229300595D01*
X329525238Y-229538690D02*
X328810952Y-229776785D01*
X328810952Y-229157738D01*
X329144285Y-228348214D02*
X328477619Y-228348214D01*
X329525238Y-228586309D02*
X328810952Y-228824404D01*
X328810952Y-228205357D01*
%TO.C,P2_46*%
X331017619Y-232443452D02*
X332017619Y-232443452D01*
X332017619Y-232062500D01*
X331970000Y-231967261D01*
X331922380Y-231919642D01*
X331827142Y-231872023D01*
X331684285Y-231872023D01*
X331589047Y-231919642D01*
X331541428Y-231967261D01*
X331493809Y-232062500D01*
X331493809Y-232443452D01*
X331922380Y-231491071D02*
X331970000Y-231443452D01*
X332017619Y-231348214D01*
X332017619Y-231110119D01*
X331970000Y-231014880D01*
X331922380Y-230967261D01*
X331827142Y-230919642D01*
X331731904Y-230919642D01*
X331589047Y-230967261D01*
X331017619Y-231538690D01*
X331017619Y-230919642D01*
X330922380Y-230729166D02*
X330922380Y-229967261D01*
X331684285Y-229300595D02*
X331017619Y-229300595D01*
X332065238Y-229538690D02*
X331350952Y-229776785D01*
X331350952Y-229157738D01*
X332017619Y-228348214D02*
X332017619Y-228538690D01*
X331970000Y-228633928D01*
X331922380Y-228681547D01*
X331779523Y-228776785D01*
X331589047Y-228824404D01*
X331208095Y-228824404D01*
X331112857Y-228776785D01*
X331065238Y-228729166D01*
X331017619Y-228633928D01*
X331017619Y-228443452D01*
X331065238Y-228348214D01*
X331112857Y-228300595D01*
X331208095Y-228252976D01*
X331446190Y-228252976D01*
X331541428Y-228300595D01*
X331589047Y-228348214D01*
X331636666Y-228443452D01*
X331636666Y-228633928D01*
X331589047Y-228729166D01*
X331541428Y-228776785D01*
X331446190Y-228824404D01*
%TO.C,P2_48*%
X333557619Y-232443452D02*
X334557619Y-232443452D01*
X334557619Y-232062500D01*
X334510000Y-231967261D01*
X334462380Y-231919642D01*
X334367142Y-231872023D01*
X334224285Y-231872023D01*
X334129047Y-231919642D01*
X334081428Y-231967261D01*
X334033809Y-232062500D01*
X334033809Y-232443452D01*
X334462380Y-231491071D02*
X334510000Y-231443452D01*
X334557619Y-231348214D01*
X334557619Y-231110119D01*
X334510000Y-231014880D01*
X334462380Y-230967261D01*
X334367142Y-230919642D01*
X334271904Y-230919642D01*
X334129047Y-230967261D01*
X333557619Y-231538690D01*
X333557619Y-230919642D01*
X333462380Y-230729166D02*
X333462380Y-229967261D01*
X334224285Y-229300595D02*
X333557619Y-229300595D01*
X334605238Y-229538690D02*
X333890952Y-229776785D01*
X333890952Y-229157738D01*
X334129047Y-228633928D02*
X334176666Y-228729166D01*
X334224285Y-228776785D01*
X334319523Y-228824404D01*
X334367142Y-228824404D01*
X334462380Y-228776785D01*
X334510000Y-228729166D01*
X334557619Y-228633928D01*
X334557619Y-228443452D01*
X334510000Y-228348214D01*
X334462380Y-228300595D01*
X334367142Y-228252976D01*
X334319523Y-228252976D01*
X334224285Y-228300595D01*
X334176666Y-228348214D01*
X334129047Y-228443452D01*
X334129047Y-228633928D01*
X334081428Y-228729166D01*
X334033809Y-228776785D01*
X333938571Y-228824404D01*
X333748095Y-228824404D01*
X333652857Y-228776785D01*
X333605238Y-228729166D01*
X333557619Y-228633928D01*
X333557619Y-228443452D01*
X333605238Y-228348214D01*
X333652857Y-228300595D01*
X333748095Y-228252976D01*
X333938571Y-228252976D01*
X334033809Y-228300595D01*
X334081428Y-228348214D01*
X334129047Y-228443452D01*
%TO.C,P2_50*%
X336097619Y-232443452D02*
X337097619Y-232443452D01*
X337097619Y-232062500D01*
X337050000Y-231967261D01*
X337002380Y-231919642D01*
X336907142Y-231872023D01*
X336764285Y-231872023D01*
X336669047Y-231919642D01*
X336621428Y-231967261D01*
X336573809Y-232062500D01*
X336573809Y-232443452D01*
X337002380Y-231491071D02*
X337050000Y-231443452D01*
X337097619Y-231348214D01*
X337097619Y-231110119D01*
X337050000Y-231014880D01*
X337002380Y-230967261D01*
X336907142Y-230919642D01*
X336811904Y-230919642D01*
X336669047Y-230967261D01*
X336097619Y-231538690D01*
X336097619Y-230919642D01*
X336002380Y-230729166D02*
X336002380Y-229967261D01*
X337097619Y-229252976D02*
X337097619Y-229729166D01*
X336621428Y-229776785D01*
X336669047Y-229729166D01*
X336716666Y-229633928D01*
X336716666Y-229395833D01*
X336669047Y-229300595D01*
X336621428Y-229252976D01*
X336526190Y-229205357D01*
X336288095Y-229205357D01*
X336192857Y-229252976D01*
X336145238Y-229300595D01*
X336097619Y-229395833D01*
X336097619Y-229633928D01*
X336145238Y-229729166D01*
X336192857Y-229776785D01*
X337097619Y-228586309D02*
X337097619Y-228491071D01*
X337050000Y-228395833D01*
X337002380Y-228348214D01*
X336907142Y-228300595D01*
X336716666Y-228252976D01*
X336478571Y-228252976D01*
X336288095Y-228300595D01*
X336192857Y-228348214D01*
X336145238Y-228395833D01*
X336097619Y-228491071D01*
X336097619Y-228586309D01*
X336145238Y-228681547D01*
X336192857Y-228729166D01*
X336288095Y-228776785D01*
X336478571Y-228824404D01*
X336716666Y-228824404D01*
X336907142Y-228776785D01*
X337002380Y-228729166D01*
X337050000Y-228681547D01*
X337097619Y-228586309D01*
%TO.C,P2_52*%
X338637619Y-232443452D02*
X339637619Y-232443452D01*
X339637619Y-232062500D01*
X339590000Y-231967261D01*
X339542380Y-231919642D01*
X339447142Y-231872023D01*
X339304285Y-231872023D01*
X339209047Y-231919642D01*
X339161428Y-231967261D01*
X339113809Y-232062500D01*
X339113809Y-232443452D01*
X339542380Y-231491071D02*
X339590000Y-231443452D01*
X339637619Y-231348214D01*
X339637619Y-231110119D01*
X339590000Y-231014880D01*
X339542380Y-230967261D01*
X339447142Y-230919642D01*
X339351904Y-230919642D01*
X339209047Y-230967261D01*
X338637619Y-231538690D01*
X338637619Y-230919642D01*
X338542380Y-230729166D02*
X338542380Y-229967261D01*
X339637619Y-229252976D02*
X339637619Y-229729166D01*
X339161428Y-229776785D01*
X339209047Y-229729166D01*
X339256666Y-229633928D01*
X339256666Y-229395833D01*
X339209047Y-229300595D01*
X339161428Y-229252976D01*
X339066190Y-229205357D01*
X338828095Y-229205357D01*
X338732857Y-229252976D01*
X338685238Y-229300595D01*
X338637619Y-229395833D01*
X338637619Y-229633928D01*
X338685238Y-229729166D01*
X338732857Y-229776785D01*
X339542380Y-228824404D02*
X339590000Y-228776785D01*
X339637619Y-228681547D01*
X339637619Y-228443452D01*
X339590000Y-228348214D01*
X339542380Y-228300595D01*
X339447142Y-228252976D01*
X339351904Y-228252976D01*
X339209047Y-228300595D01*
X338637619Y-228872023D01*
X338637619Y-228252976D01*
%TO.C,P2_54*%
X341177619Y-232443452D02*
X342177619Y-232443452D01*
X342177619Y-232062500D01*
X342130000Y-231967261D01*
X342082380Y-231919642D01*
X341987142Y-231872023D01*
X341844285Y-231872023D01*
X341749047Y-231919642D01*
X341701428Y-231967261D01*
X341653809Y-232062500D01*
X341653809Y-232443452D01*
X342082380Y-231491071D02*
X342130000Y-231443452D01*
X342177619Y-231348214D01*
X342177619Y-231110119D01*
X342130000Y-231014880D01*
X342082380Y-230967261D01*
X341987142Y-230919642D01*
X341891904Y-230919642D01*
X341749047Y-230967261D01*
X341177619Y-231538690D01*
X341177619Y-230919642D01*
X341082380Y-230729166D02*
X341082380Y-229967261D01*
X342177619Y-229252976D02*
X342177619Y-229729166D01*
X341701428Y-229776785D01*
X341749047Y-229729166D01*
X341796666Y-229633928D01*
X341796666Y-229395833D01*
X341749047Y-229300595D01*
X341701428Y-229252976D01*
X341606190Y-229205357D01*
X341368095Y-229205357D01*
X341272857Y-229252976D01*
X341225238Y-229300595D01*
X341177619Y-229395833D01*
X341177619Y-229633928D01*
X341225238Y-229729166D01*
X341272857Y-229776785D01*
X341844285Y-228348214D02*
X341177619Y-228348214D01*
X342225238Y-228586309D02*
X341510952Y-228824404D01*
X341510952Y-228205357D01*
%TO.C,P2_56*%
X343717619Y-232443452D02*
X344717619Y-232443452D01*
X344717619Y-232062500D01*
X344670000Y-231967261D01*
X344622380Y-231919642D01*
X344527142Y-231872023D01*
X344384285Y-231872023D01*
X344289047Y-231919642D01*
X344241428Y-231967261D01*
X344193809Y-232062500D01*
X344193809Y-232443452D01*
X344622380Y-231491071D02*
X344670000Y-231443452D01*
X344717619Y-231348214D01*
X344717619Y-231110119D01*
X344670000Y-231014880D01*
X344622380Y-230967261D01*
X344527142Y-230919642D01*
X344431904Y-230919642D01*
X344289047Y-230967261D01*
X343717619Y-231538690D01*
X343717619Y-230919642D01*
X343622380Y-230729166D02*
X343622380Y-229967261D01*
X344717619Y-229252976D02*
X344717619Y-229729166D01*
X344241428Y-229776785D01*
X344289047Y-229729166D01*
X344336666Y-229633928D01*
X344336666Y-229395833D01*
X344289047Y-229300595D01*
X344241428Y-229252976D01*
X344146190Y-229205357D01*
X343908095Y-229205357D01*
X343812857Y-229252976D01*
X343765238Y-229300595D01*
X343717619Y-229395833D01*
X343717619Y-229633928D01*
X343765238Y-229729166D01*
X343812857Y-229776785D01*
X344717619Y-228348214D02*
X344717619Y-228538690D01*
X344670000Y-228633928D01*
X344622380Y-228681547D01*
X344479523Y-228776785D01*
X344289047Y-228824404D01*
X343908095Y-228824404D01*
X343812857Y-228776785D01*
X343765238Y-228729166D01*
X343717619Y-228633928D01*
X343717619Y-228443452D01*
X343765238Y-228348214D01*
X343812857Y-228300595D01*
X343908095Y-228252976D01*
X344146190Y-228252976D01*
X344241428Y-228300595D01*
X344289047Y-228348214D01*
X344336666Y-228443452D01*
X344336666Y-228633928D01*
X344289047Y-228729166D01*
X344241428Y-228776785D01*
X344146190Y-228824404D01*
%TO.C,P2_58*%
X346257619Y-232443452D02*
X347257619Y-232443452D01*
X347257619Y-232062500D01*
X347210000Y-231967261D01*
X347162380Y-231919642D01*
X347067142Y-231872023D01*
X346924285Y-231872023D01*
X346829047Y-231919642D01*
X346781428Y-231967261D01*
X346733809Y-232062500D01*
X346733809Y-232443452D01*
X347162380Y-231491071D02*
X347210000Y-231443452D01*
X347257619Y-231348214D01*
X347257619Y-231110119D01*
X347210000Y-231014880D01*
X347162380Y-230967261D01*
X347067142Y-230919642D01*
X346971904Y-230919642D01*
X346829047Y-230967261D01*
X346257619Y-231538690D01*
X346257619Y-230919642D01*
X346162380Y-230729166D02*
X346162380Y-229967261D01*
X347257619Y-229252976D02*
X347257619Y-229729166D01*
X346781428Y-229776785D01*
X346829047Y-229729166D01*
X346876666Y-229633928D01*
X346876666Y-229395833D01*
X346829047Y-229300595D01*
X346781428Y-229252976D01*
X346686190Y-229205357D01*
X346448095Y-229205357D01*
X346352857Y-229252976D01*
X346305238Y-229300595D01*
X346257619Y-229395833D01*
X346257619Y-229633928D01*
X346305238Y-229729166D01*
X346352857Y-229776785D01*
X346829047Y-228633928D02*
X346876666Y-228729166D01*
X346924285Y-228776785D01*
X347019523Y-228824404D01*
X347067142Y-228824404D01*
X347162380Y-228776785D01*
X347210000Y-228729166D01*
X347257619Y-228633928D01*
X347257619Y-228443452D01*
X347210000Y-228348214D01*
X347162380Y-228300595D01*
X347067142Y-228252976D01*
X347019523Y-228252976D01*
X346924285Y-228300595D01*
X346876666Y-228348214D01*
X346829047Y-228443452D01*
X346829047Y-228633928D01*
X346781428Y-228729166D01*
X346733809Y-228776785D01*
X346638571Y-228824404D01*
X346448095Y-228824404D01*
X346352857Y-228776785D01*
X346305238Y-228729166D01*
X346257619Y-228633928D01*
X346257619Y-228443452D01*
X346305238Y-228348214D01*
X346352857Y-228300595D01*
X346448095Y-228252976D01*
X346638571Y-228252976D01*
X346733809Y-228300595D01*
X346781428Y-228348214D01*
X346829047Y-228443452D01*
%TO.C,P2_60*%
X348797619Y-232443452D02*
X349797619Y-232443452D01*
X349797619Y-232062500D01*
X349750000Y-231967261D01*
X349702380Y-231919642D01*
X349607142Y-231872023D01*
X349464285Y-231872023D01*
X349369047Y-231919642D01*
X349321428Y-231967261D01*
X349273809Y-232062500D01*
X349273809Y-232443452D01*
X349702380Y-231491071D02*
X349750000Y-231443452D01*
X349797619Y-231348214D01*
X349797619Y-231110119D01*
X349750000Y-231014880D01*
X349702380Y-230967261D01*
X349607142Y-230919642D01*
X349511904Y-230919642D01*
X349369047Y-230967261D01*
X348797619Y-231538690D01*
X348797619Y-230919642D01*
X348702380Y-230729166D02*
X348702380Y-229967261D01*
X349797619Y-229300595D02*
X349797619Y-229491071D01*
X349750000Y-229586309D01*
X349702380Y-229633928D01*
X349559523Y-229729166D01*
X349369047Y-229776785D01*
X348988095Y-229776785D01*
X348892857Y-229729166D01*
X348845238Y-229681547D01*
X348797619Y-229586309D01*
X348797619Y-229395833D01*
X348845238Y-229300595D01*
X348892857Y-229252976D01*
X348988095Y-229205357D01*
X349226190Y-229205357D01*
X349321428Y-229252976D01*
X349369047Y-229300595D01*
X349416666Y-229395833D01*
X349416666Y-229586309D01*
X349369047Y-229681547D01*
X349321428Y-229729166D01*
X349226190Y-229776785D01*
X349797619Y-228586309D02*
X349797619Y-228491071D01*
X349750000Y-228395833D01*
X349702380Y-228348214D01*
X349607142Y-228300595D01*
X349416666Y-228252976D01*
X349178571Y-228252976D01*
X348988095Y-228300595D01*
X348892857Y-228348214D01*
X348845238Y-228395833D01*
X348797619Y-228491071D01*
X348797619Y-228586309D01*
X348845238Y-228681547D01*
X348892857Y-228729166D01*
X348988095Y-228776785D01*
X349178571Y-228824404D01*
X349416666Y-228824404D01*
X349607142Y-228776785D01*
X349702380Y-228729166D01*
X349750000Y-228681547D01*
X349797619Y-228586309D01*
%TD*%
M02*
